<svg enable-background="new 0 0 1600 1200" fill="none" height="1200" viewBox="0 0 1600 1200" width="1600" xmlns="http://www.w3.org/2000/svg"><path d="m208.6 1084.3-47.4-580.5c-1.2-14.8 2.9-29.5 11.6-41.5l236.3-327c12.8-17.8 34.1-27.5 56-25.6l808.9 71.3c26.2 2.3 48.2 20.9 54.8 46.4l111.2 427.7c2.7 10.5 2.7 21.5-.2 32l-108.8 398.6z" fill="#797979"/><path d="m208.6 1084.3-47.4-580.5c-1.2-14.8 2.9-29.5 11.6-41.5l236.3-327c12.8-17.8 34.1-27.5 56-25.6l808.9 71.3c26.2 2.3 48.2 20.9 54.8 46.4l111.2 427.7c2.7 10.5 2.7 21.5-.2 32l-108.8 398.6z" fill="#fff" opacity=".9"/><g opacity=".7"><path d="m1038.89 464.083c28.55-28.547 28.55-74.831 0-103.378-28.54-28.547-74.827-28.547-103.374 0s-28.547 74.831 0 103.378 74.834 28.547 103.374 0z" fill="#70dab9" opacity=".7"/><path d="m1038.89 464.083c28.55-28.547 28.55-74.831 0-103.378-28.54-28.547-74.827-28.547-103.374 0s-28.547 74.831 0 103.378 74.834 28.547 103.374 0z" fill="#000" opacity=".1"/><path d="m981.4 484.7c40.37 0 73.1-32.728 73.1-73.1s-32.73-73.1-73.1-73.1c-40.372 0-73.1 32.728-73.1 73.1s32.728 73.1 73.1 73.1z" fill="#70dab9" opacity=".7"/><path d="m981.4 484.7c40.37 0 73.1-32.728 73.1-73.1s-32.73-73.1-73.1-73.1c-40.372 0-73.1 32.728-73.1 73.1s32.728 73.1 73.1 73.1z" fill="#fff" opacity=".15"/><path d="m981.4 470.2c32.42 0 58.7-26.281 58.7-58.7s-26.28-58.7-58.7-58.7c-32.419 0-58.7 26.281-58.7 58.7s26.281 58.7 58.7 58.7z" fill="#70dab9" opacity=".7"/><path d="m981.4 470.2c32.42 0 58.7-26.281 58.7-58.7s-26.28-58.7-58.7-58.7c-32.419 0-58.7 26.281-58.7 58.7s26.281 58.7 58.7 58.7z" fill="#fff" opacity=".05"/><path d="m925.8 409c2.7-32.3 31.1-56.2 63.4-53.5 12.1 1 24.2 6.8 33 13.9-23-22.8-60.1-22.6-82.9.4s-22.6 60.1.4 82.9c.3.3.7.7 1.1 1-5.4-6.5-9.3-14.1-11.5-22.2-2.1-6.7-4.1-15-3.5-22.5z" fill="#000" opacity=".1"/><path d="m974.4 451.7.7-8.4c-9.4-1.2-13.9-4.9-12.9-16.3.2-2.5.6-4.9 1.2-7.3l12 1c-.2 1.1-.4 2.2-.5 3.3-.4 5-.3 7.8 4.5 8.2s5.4-1.3 6-7.6c.3-3.1.3-4.2-1.2-5.9-3.3-3.6-11.9-6.6-15.9-10-3.5-2.9-4.1-6.6-3.3-16.6 1-11.5 4.7-15.1 15.8-14.7l.6-6.7 6.8.6-.6 6.7c10.1 1.3 13.3 5.1 12.5 15.4-.2 2.2-.5 4.4-1 6.5l-11.8-1c.2-1 .3-2 .4-3.6.4-4.5-.1-6.8-4.6-7.2-3.9-.3-5.1.9-5.5 6.3-.5 5.6-.2 6.2 3.3 8.1 3.8 2.2 7.6 3.7 10.9 5.6 4.6 2.8 7.8 4.1 6.8 15.2-1.3 15.6-4.7 20.8-16.6 20.6l-.7 8.5z" fill="#fff" opacity=".7"/></g><g opacity=".7"><path d="m1129.75 342.123c18.75-6.442 28.71-26.906 22.25-45.709s-26.9-28.823-45.65-22.381c-18.75 6.441-28.71 26.906-22.25 45.709 6.46 18.802 26.9 28.823 45.65 22.381z" fill="#70dab9" opacity=".7"/><path d="m1129.75 342.123c18.75-6.442 28.71-26.906 22.25-45.709s-26.9-28.823-45.65-22.381c-18.75 6.441-28.71 26.906-22.25 45.709 6.46 18.802 26.9 28.823 45.65 22.381z" fill="#000" opacity=".1"/><path d="m1117.88 343.694c19.77-1.48 34.59-18.752 33.11-38.579-1.49-19.826-18.72-34.699-38.49-33.22-19.77 1.48-34.59 18.752-33.11 38.579 1.48 19.826 18.71 34.699 38.49 33.22z" fill="#70dab9" opacity=".7"/><path d="m1117.88 343.694c19.77-1.48 34.59-18.752 33.11-38.579-1.49-19.826-18.72-34.699-38.49-33.22-19.77 1.48-34.59 18.752-33.11 38.579 1.48 19.826 18.71 34.699 38.49 33.22z" fill="#fff" opacity=".15"/><path d="m1129.79 332.508c13.72-8.047 18.32-25.693 10.28-39.413-8.05-13.721-25.7-18.32-39.42-10.273s-18.32 25.692-10.27 39.413c8.05 13.72 25.69 18.319 39.41 10.273z" fill="#70dab9" opacity=".7"/><path d="m1129.79 332.508c13.72-8.047 18.32-25.693 10.28-39.413-8.05-13.721-25.7-18.32-39.42-10.273s-18.32 25.692-10.27 39.413c8.05 13.72 25.69 18.319 39.41 10.273z" fill="#fff" opacity=".05"/><path d="m1087.9 306.5c1.3-15.9 15.3-27.6 31.1-26.3 6 .7 11.6 3.1 16.2 6.8-11.3-11.3-29.5-11.2-40.8 0-11.3 11.3-11.2 29.5 0 40.8.2.2.5.5.7.7-2.7-3.2-4.6-6.9-5.7-10.9-.8-3.4-1.8-7.5-1.5-11.1z" fill="#000" opacity=".1"/><path d="m1111.8 327.5.3-4.1c-4.6-.6-6.8-2.4-6.4-8 .1-1.2.3-2.4.6-3.6l5.9.5c-.1.5-.2 1.1-.2 1.6-.2 2.4-.2 3.8 2.2 4s2.7-.6 2.9-3.8c.1-1.5.2-2.1-.6-2.9-1.6-1.8-5.8-3.3-7.8-4.9-1.8-1.4-2-3.3-1.6-8.2.5-5.7 2.3-7.4 7.8-7.2l.3-3.3 3.3.3-.3 3.3c5 .6 6.6 2.5 6.1 7.5-.1 1.1-.2 2.2-.5 3.2l-5.8-.5c.1-.5.1-1 .2-1.8.2-2.2 0-3.4-2.3-3.5-1.9-.2-2.5.4-2.7 3.1s-.1 3 1.6 4 3.7 1.8 5.4 2.7c2.3 1.4 3.8 2 3.4 7.5-.6 7.7-2.3 10.2-8.2 10.1l-.3 4.2z" fill="#fff" opacity=".7"/></g><g opacity=".7"><path d="m633.6 295.2c20.656 0 37.4-16.745 37.4-37.4s-16.744-37.4-37.4-37.4c-20.655 0-37.4 16.745-37.4 37.4s16.745 37.4 37.4 37.4z" fill="#70dab9" opacity=".7"/><path d="m633.6 295.2c20.656 0 37.4-16.745 37.4-37.4s-16.744-37.4-37.4-37.4c-20.655 0-37.4 16.745-37.4 37.4s16.745 37.4 37.4 37.4z" fill="#000" opacity=".1"/><path d="m640.206 294.119c19.961-5.308 31.84-25.794 26.531-45.755-5.308-19.961-25.793-31.84-45.755-26.532-19.961 5.309-31.84 25.794-26.531 45.756 5.308 19.961 25.793 31.84 45.755 26.531z" fill="#70dab9" opacity=".7"/><path d="m640.206 294.119c19.961-5.308 31.84-25.794 26.531-45.755-5.308-19.961-25.793-31.84-45.755-26.532-19.961 5.309-31.84 25.794-26.531 45.756 5.308 19.961 25.793 31.84 45.755 26.531z" fill="#fff" opacity=".15"/><path d="m630.6 287.9c16.569 0 30-13.431 30-30s-13.431-30-30-30c-16.568 0-30 13.431-30 30s13.432 30 30 30z" fill="#70dab9" opacity=".7"/><path d="m630.6 287.9c16.569 0 30-13.431 30-30s-13.431-30-30-30c-16.568 0-30 13.431-30 30s13.432 30 30 30z" fill="#fff" opacity=".05"/><path d="m602.5 262c-1.7-16.5 10.3-31.2 26.8-32.9 6.2-.4 12.4.9 17.9 3.9-13.5-9.6-32.2-6.5-41.8 7s-6.5 32.2 7 41.8c.6.4 1.2.8 1.9 1.2-3.3-2.7-6-6.2-7.9-10.1-1.8-3.1-3.6-7.2-3.9-10.9z" fill="#000" opacity=".1"/><path d="m630.9 278.8-.4-4.3c-4.9.3-7.4-1.1-8-7-.1-1.2-.2-2.5-.1-3.8l6.1-.6c0 .6 0 1.1.1 1.7.3 2.5.6 3.9 3 3.7s2.6-1.1 2.3-4.4c-.2-1.6-.2-2.1-1.2-2.8-2-1.5-6.6-2.2-8.9-3.5-2.1-1.1-2.7-2.9-3.2-8.1-.6-5.9 1-8 6.5-8.9l-.3-3.4 3.5-.4.3 3.4c5.2-.3 7.2 1.3 7.7 6.5.1 1.1.2 2.3.1 3.4l-6 .6c0-.5-.1-1.1-.1-1.9-.2-2.3-.7-3.4-3-3.2-2 .2-2.5.9-2.2 3.7s.5 3.1 2.4 3.8c2.1.7 4.2 1.1 6 1.8 2.6 1 4.3 1.3 4.9 7 .8 8-.4 10.9-6.4 11.9l.4 4.3z" fill="#fff" opacity=".7"/></g><g opacity=".7"><path d="m333.262 627.699c28.88-10.437 43.815-42.352 33.359-71.284s-42.344-43.925-71.224-33.487c-28.88 10.437-43.816 42.352-33.36 71.284 10.457 28.932 42.345 43.925 71.225 33.487z" fill="#70dab9" opacity=".7"/><path d="m333.262 627.699c28.88-10.437 43.815-42.352 33.359-71.284s-42.344-43.925-71.224-33.487c-28.88 10.437-43.816 42.352-33.36 71.284 10.457 28.932 42.345 43.925 71.225 33.487z" fill="#000" opacity=".1"/><path d="m314.951 630.08c30.582-2.783 53.112-29.875 50.324-60.511s-29.839-53.215-60.42-50.432-53.112 29.875-50.324 60.511 29.839 53.215 60.42 50.432z" fill="#70dab9" opacity=".7"/><path d="m314.951 630.08c30.582-2.783 53.112-29.875 50.324-60.511s-29.839-53.215-60.42-50.432-53.112 29.875-50.324 60.511 29.839 53.215 60.42 50.432z" fill="#fff" opacity=".15"/><path d="m309.9 619.3c24.632 0 44.6-19.968 44.6-44.6s-19.968-44.6-44.6-44.6-44.6 19.968-44.6 44.6 19.968 44.6 44.6 44.6z" fill="#70dab9" opacity=".7"/><path d="m309.9 619.3c24.632 0 44.6-19.968 44.6-44.6s-19.968-44.6-44.6-44.6-44.6 19.968-44.6 44.6 19.968 44.6 44.6 44.6z" fill="#fff" opacity=".05"/><path d="m267.6 573.4c1.7-24.6 23-43.2 47.5-41.5 9.2.6 18.5 4.9 25.3 10.2-18-16.8-46.2-15.9-63.1 2.1-16.8 18-15.9 46.2 2.1 63.1-4.2-4.9-7.2-10.6-9-16.8-1.6-5.1-3.2-11.5-2.8-17.1z" fill="#000" opacity=".1"/><path d="m305.1 605.3.4-6.4c-7.2-.8-10.6-3.5-10-12.2.1-1.9.4-3.7.8-5.5l9.1.6c-.2.8-.3 1.7-.3 2.5-.3 3.8-.2 5.9 3.5 6.2s4.1-1 4.4-5.9c.2-2.4.2-3.2-1-4.4-2.5-2.7-9.1-4.9-12.2-7.4-2.7-2.2-3.2-5-2.7-12.6.6-8.8 3.4-11.5 11.8-11.4l.3-5.1 5.2.3-.4 5c7.7.8 10.2 3.7 9.7 11.5-.1 1.7-.3 3.4-.7 5l-9-.6c.1-.7.2-1.5.3-2.8.2-3.4-.1-5.2-3.6-5.4-3-.2-3.8.7-4.1 4.8-.3 4.3-.1 4.7 2.6 6.1 2.9 1.6 5.8 2.7 8.4 4.1 3.6 2 6 3 5.4 11.5-.8 11.9-3.3 15.8-12.4 15.9l-.4 6.5z" fill="#fff" opacity=".7"/></g><path d="m1369.6 1087.1h-1193c-.8 0-1.5-.7-1.5-1.5s.7-1.5 1.5-1.5h1193c.8 0 1.5.7 1.5 1.5s-.7 1.5-1.5 1.5z" fill="#797979"/><path d="m1369.6 1087.1h-1193c-.8 0-1.5-.7-1.5-1.5s.7-1.5 1.5-1.5h1193c.8 0 1.5.7 1.5 1.5s-.7 1.5-1.5 1.5z" fill="#fff" opacity=".36"/><path d="m782.6 1059.1h334.9c14.8 0 26.9 12 26.9 26.9h-384.8v-3.8c0-12.7 10.2-23.1 23-23.1z" fill="#797979"/><path d="m782.6 1059.1h334.9c14.8 0 26.9 12 26.9 26.9h-384.8v-3.8c0-12.7 10.2-23.1 23-23.1z" fill="#000" opacity=".3"/><path d="m1021.1 1007.3h-126.6v65.2h126.6z" fill="#797979"/><path d="m620 487h676.8c11.7 0 21.1 9.5 21.1 21.1v478c0 11.7-9.5 21.1-21.1 21.1h-676.8c-11.7 0-21.1-9.5-21.1-21.1v-478c0-11.6 9.4-21.1 21.1-21.1z" fill="#797979"/><path d="m620 487h676.8c11.7 0 21.1 9.5 21.1 21.1v478c0 11.7-9.5 21.1-21.1 21.1h-676.8c-11.7 0-21.1-9.5-21.1-21.1v-478c0-11.6 9.4-21.1 21.1-21.1z" fill="#000" opacity=".09"/><path d="m608.5 487h676.8c11.7 0 21.1 9.5 21.1 21.1v478c0 11.7-9.5 21.1-21.1 21.1h-676.8c-11.7 0-21.1-9.5-21.1-21.1v-478c0-11.6 9.4-21.1 21.1-21.1z" fill="#797979"/><path d="m1021.1 1007.3h-126.6v65.2h126.6z" fill="#000" opacity=".3"/><path d="m1010.2 1007.3h-126.6v65.2h126.6z" fill="#797979"/><path d="m1010.2 1007.3h-126.6v65.2h126.6z" fill="#fff" opacity=".2"/><path d="m1010 1007.3h-126.7v11.5h126.7z" fill="#000" opacity=".3"/><path d="m783 1063h327.7c12.7 0 23 10.3 23 23h-373.7c0-12.7 10.3-23 23-23z" fill="#797979"/><path d="m608.5 487h676.8c11.7 0 21.1 9.5 21.1 21.1v478c0 11.7-9.5 21.1-21.1 21.1h-676.8c-11.7 0-21.1-9.5-21.1-21.1v-478c0-11.6 9.4-21.1 21.1-21.1z" fill="#fff" opacity=".04"/><path d="m783 1063h327.7c12.7 0 23 10.3 23 23h-373.7c0-12.7 10.3-23 23-23z" fill="#fff" opacity=".2"/><path d="m946.2 989.1c7.18 0 13-5.82 13-13s-5.82-13-13-13-13 5.82-13 13 5.82 13 13 13z" fill="#ffb7a1"/><path d="m946.2 963.2c-.6 0-1.3.1-1.9.2 7.1 1 12 7.6 10.9 14.7-.8 5.6-5.3 10.1-10.9 10.9.6.1 1.3.1 1.9.2 7.2 0 13-5.8 13-13s-5.8-13-13-13z" fill="#000" opacity=".2"/><path d="m614.3 501.7h665.3c5.4 0 9.7 4.3 9.7 9.7v434.5h-684.7v-434.5c0-5.4 4.3-9.7 9.7-9.7z" fill="#fff"/><g fill="#70dab9"><path d="m680.8 619.3h-22.8v254.8h22.8z"/><path d="m724.8 705.9h-22.8v168.3h22.8z"/><path d="m768.9 651h-22.8v224.5h22.8z"/><path d="m812.9 629.2h-22.8v245h22.8z"/><path d="m857 711h-22.8v163.1h22.8z"/><path d="m901 743h-22.8v131.1h22.8z"/><path d="m945.1 645.5h-22.8v228.7h22.8z"/><path d="m989.1 686.7h-22.8v187.5h22.8z"/><path d="m1033.2 653.8h-22.8v220.4h22.8z"/><path d="m1077.2 724h-22.8v150.2h22.8z"/><path d="m1165.1 645.5h-22.8v228.7h22.8z"/><path d="m1258.7 792.6h-22.8v78.2h22.8z"/><path d="m1213.1 724h-22.8v150.2h22.8z"/><path d="m1121.3 695.4h-22.8v178.7h22.8z"/></g><path d="m1258.5 893.1h-626.5v-326.2c-.2-.5.1-1.1.7-1.2.5-.2 1.1.1 1.2.7.1.2.1.4 0 .6v324.3h624.6c.5-.2 1.1.1 1.3.7.2.5-.1 1.1-.7 1.3-.2-.1-.4-.1-.6-.2z" fill="#ffb7a1"/><path d="m672.3 686.9c2.4-3.2 5.2-6.1 8.1-8.8 1.5-1.3 3-2.7 4.6-3.8.8-.6 1.6-1.2 2.4-1.8l2.5-1.7c6.6-4.6 13.6-8.4 21-11.5 14.8-6.3 30.9-9.2 47-8.5 16.1 1 31.7 6 45.4 14.7 1.8 1 3.3 2.2 5 3.3s3.3 2.3 4.8 3.6l4.7 3.8c1.5 1.3 2.9 2.7 4.4 4.1l2.2 2.1 2.1 2.2 4.1 4.4c1.3 1.5 2.5 3.1 3.8 4.6s2.6 3.1 3.7 4.7l3.5 4.9c.6.8 1.2 1.6 1.7 2.5l1.6 2.5 6.5 10.1c2.1 3.4 4.3 6.7 6.4 10.2s4.1 6.9 6.2 10.3c8.1 13.8 16 27.7 24.7 41s18.3 26.2 29.9 37.1c5.7 5.5 12.1 10.2 19 14.2 6.9 3.9 14.4 6.5 22.2 7.8 7.8 1.2 15.8.9 23.5-.8 3.9-.9 7.7-2 11.3-3.4 3.7-1.4 7.3-3 10.8-4.8 7-3.7 13.7-8 20-12.8 6.2-5 11.8-10.6 16.7-16.8 10.1-12.3 18.5-25.9 26.9-39.5s16.8-27.2 26.3-40.1c4.7-6.5 9.8-12.7 15.1-18.7 5.4-6 11.1-11.6 17.2-16.8 12.2-10.5 26.1-18.8 41.1-24.7 15-5.7 30.8-9.2 46.8-10.3s32-.7 47.9 1.3c-15.9-1.9-31.9-2.2-47.8-.9s-31.6 4.9-46.5 10.7c-14.8 5.9-28.6 14.3-40.6 24.7-6 5.2-11.7 10.8-17 16.8s-10.3 12.2-14.9 18.7c-9.4 12.9-17.7 26.5-26.1 40.1s-16.8 27.3-27 39.7c-5.1 6.3-10.8 12-17 17.1-1.6 1.2-3.2 2.5-4.9 3.6l-2.5 1.7c-.8.6-1.7 1.1-2.5 1.7-3.4 2.2-6.9 4.2-10.4 6.1-3.6 1.9-7.2 3.5-11 5-3.8 1.4-7.7 2.6-11.6 3.5-7.9 1.8-16.1 2.1-24.2.9-8-1.3-15.7-4-22.8-8.1-7-4-13.5-8.9-19.3-14.5-11.7-11.1-21.3-24.1-30.1-37.5s-16.6-27.4-24.7-41.2c-2-3.5-4-6.9-6.1-10.3s-4.2-6.7-6.3-10.2l-6.4-10.1-1.6-2.6c-.5-.8-1.2-1.6-1.7-2.4l-3.5-4.9c-1.1-1.7-2.4-3.1-3.7-4.7s-2.5-3.1-3.8-4.6l-4-4.4-2-2.2-2.2-2.1c-1.5-1.4-2.9-2.7-4.3-4.1l-4.6-3.8c-1.5-1.3-3.2-2.4-4.8-3.6s-3.2-2.4-4.9-3.3c-13.5-8.6-28.9-13.7-44.8-14.8-16-.9-31.9 1.9-46.7 8-7.4 3-14.5 6.8-21.1 11.2l-2.5 1.7c-.8.6-1.6 1.2-2.4 1.8-1.6 1.2-3.1 2.5-4.6 3.8-3 2.8-5.8 5.7-8.2 8.9z" fill="#ffb7a1"/><path d="m1154.5 672.3c2.32 0 4.2-1.88 4.2-4.2s-1.88-4.2-4.2-4.2-4.2 1.88-4.2 4.2 1.88 4.2 4.2 4.2z" fill="#ffb7a1"/><path d="m977.2 844.2c2.32 0 4.2-1.88 4.2-4.2s-1.88-4.2-4.2-4.2-4.2 1.88-4.2 4.2 1.88 4.2 4.2 4.2z" fill="#ffb7a1"/><path d="m801.8 668.6c2.32 0 4.2-1.88 4.2-4.2s-1.88-4.2-4.2-4.2c-2.319 0-4.2 1.88-4.2 4.2s1.881 4.2 4.2 4.2z" fill="#ffb7a1"/><path d="m932.8 336h-477.3v371.4h477.3z" fill="#fff" stroke="#3562ff" stroke-miterlimit="10"/><path d="m553.1 384.8h-77.3v4.3h77.3z" fill="#ffb7a1"/><path d="m514 394.9h-38.2v4.3h38.2z" fill="#ffb7a1"/><path d="m553.1 384.8h-77.3v4.3h77.3z" fill="#fff" opacity=".0484"/><path d="m514 394.9h-38.2v4.3h38.2z" fill="#fff" opacity=".0484"/><path d="m874 664.7h-4v14.3h4z" fill="#ffb7a1"/><path d="m811.7 664.7h-4v14.3h4z" fill="#ffb7a1"/><path d="m749.4 664.7h-4v14.3h4z" fill="#ffb7a1"/><path d="m687.1 664.7h-4v14.3h4z" fill="#ffb7a1"/><path d="m624.8 664.7h-4v14.3h4z" fill="#ffb7a1"/><path d="m562.5 664.7h-4v14.3h4z" fill="#ffb7a1"/><path d="m533.9 654.1h-14v4h14z" fill="#ffb7a1"/><path d="m533.9 600.2h-14v4h14z" fill="#ffb7a1"/><path d="m533.9 498.9h-14v4h14z" fill="#ffb7a1"/><path d="m533.9 447.9h-14v4h14z" fill="#ffb7a1"/><path d="m534.6 549.5h-14v4h14z" fill="#ffb7a1"/><path d="m558.1 647.2v-45l28-43.5 19 14.6 39-60.7 23 16.2 32-56 26 21.2 39.2-74.1 42 83 34-41.5 40-11.5v197.3z" fill="#797979"/><path d="m884.4 434h-.7-2.1l-8.1.1-30.7.1.2-.1c-9 11.7-20.1 26.2-33 43l-.1.1h-.2l-82.4.1.4-.2-34.7 57.7-34 56.6-.4.6-.4-.6-44.6-61.4h.7l-40.7 63.5c-4.9 7.6-8.7 13.5-11.3 17.6l-3 4.6c-.7 1-1.1 1.5-1.1 1.5s.3-.6 1-1.6l2.9-4.6 11.1-17.7 40.4-63.7.3-.5.3.5 44.8 61.3h-.8l34-56.6 34.7-57.7.1-.2h.3l82.4.1-.3.1 33.1-42.9.1-.1h.1l30.7.1 8.1.1h2.1c.6.1.8.2.8.2z" fill="#70dab9"/><path d="m627.3 544.2c.1 1.7-1.2 3.2-3 3.3s-3.2-1.2-3.3-3c-.1-1.7 1.2-3.2 3-3.3h.2c1.7 0 3.1 1.3 3.1 3z" fill="#70dab9"/><path d="m722.4 490.2c.1 1.7-1.3 3.2-3 3.3s-3.2-1.3-3.3-3 1.3-3.2 3-3.3h.1c1.8-.1 3.2 1.3 3.2 3z" fill="#70dab9"/><path d="m793.2 479.9c1.767 0 3.2-1.343 3.2-3s-1.433-3-3.2-3-3.2 1.343-3.2 3 1.433 3 3.2 3z" fill="#70dab9"/><path d="m880 658.5h-339.5v-242.5c0-.3.2-.5.5-.5s.5.2.5.5v241.5h338.5c.3 0 .5.2.5.5s-.2.5-.5.5z" fill="#ffb7a1"/><path d="m884 450.5h-329c-.3 0-.5-.2-.5-.5s.2-.5.5-.5h329c.3 0 .5.2.5.5s-.2.5-.5.5z" fill="#ffb7a1"/><path d="m884.5 502h-329c-.3 0-.5-.2-.5-.5s.2-.5.5-.5h329c.3 0 .5.2.5.5s-.2.5-.5.5z" fill="#ffb7a1"/><path d="m885 553.5h-329c-.3 0-.5-.2-.5-.5s.2-.5.5-.5h329c.3 0 .5.2.5.5s-.2.5-.5.5z" fill="#ffb7a1"/><path d="m885.5 605h-329c-.3 0-.5-.2-.5-.5s.2-.5.5-.5h329c.3 0 .5.2.5.5s-.2.5-.5.5z" fill="#ffb7a1"/><path d="m932 336h-476v30h476z" fill="#ffb7a1"/><path d="m932 336h-476v30h476z" fill="#fff" opacity=".22"/><path d="m475.5 351.3c0 2-1.6 3.7-3.7 3.7-2 0-3.7-1.6-3.7-3.7 0-2 1.6-3.7 3.7-3.7 2 0 3.7 1.7 3.7 3.7z" fill="#fff"/><path d="m488.2 351.3c0 2-1.6 3.7-3.7 3.7-2 0-3.7-1.6-3.7-3.7 0-2 1.6-3.7 3.7-3.7 2 0 3.7 1.7 3.7 3.7z" fill="#fff"/><path d="m500.9 351.3c0 2-1.6 3.7-3.7 3.7-2 0-3.7-1.6-3.7-3.7 0-2 1.6-3.7 3.7-3.7 2 0 3.7 1.7 3.7 3.7z" fill="#fff"/><path d="m417.1 1054.4h-122.4v15.5h122.4z" fill="#70dab9"/><path d="m317.8 1054.4h-23.3v15.5h23.3z" fill="#000" opacity=".2"/><path d="m402.6 1054.4h-17.1v15.5h17.1z" fill="#fff" opacity=".2"/><path d="m417.1 1023.3h-122.4v15.5h122.4z" fill="#70dab9"/><path d="m317.8 1023.3h-23.3v15.5h23.3z" fill="#000" opacity=".2"/><path d="m402.6 1023.3h-17.1v15.5h17.1z" fill="#fff" opacity=".2"/><path d="m417.1 976.7h-122.4v15.5h122.4z" fill="#70dab9"/><path d="m317.8 976.7h-23.3v15.5h23.3z" fill="#000" opacity=".2"/><path d="m402.6 976.7h-17.1v15.5h17.1z" fill="#fff" opacity=".2"/><path d="m431.7 1069.9h-122.4v15.5h122.4z" fill="#70dab9"/><path d="m333.2 1069.1h-23.3v15.5h23.3z" fill="#000" opacity=".2"/><path d="m417.2 1069.9h-17.1v15.5h17.1z" fill="#fff" opacity=".2"/><path d="m431.7 1007.8h-122.4v15.5h122.4z" fill="#70dab9"/><path d="m333.2 1007.8h-23.3v15.5h23.3z" fill="#000" opacity=".2"/><path d="m417.2 1007.8h-17.1v15.5h17.1z" fill="#fff" opacity=".2"/><path d="m431.7 992.2h-122.4v15.5h122.4z" fill="#70dab9"/><path d="m333.2 992.2h-23.3v15.5h23.3z" fill="#000" opacity=".2"/><path d="m417.2 992.2h-17.1v15.5h17.1z" fill="#fff" opacity=".2"/><path d="m431.7 1038.8h-122.4v15.5h122.4z" fill="#70dab9"/><path d="m333.2 1038.8h-23.3v15.5h23.3z" fill="#000" opacity=".2"/><path d="m417.2 1038.8h-17.1v15.5h17.1z" fill="#fff" opacity=".2"/><path d="m417.2 1069.4h-107.9v1h107.9z" fill="#000" opacity=".09"/><path d="m417.2 1053.9h-107.9v1h107.9z" fill="#000" opacity=".09"/><path d="m417.2 1038.3h-107.9v1h107.9z" fill="#000" opacity=".09"/><path d="m417.2 1022.8h-107.9v1h107.9z" fill="#000" opacity=".09"/><path d="m431.7 1007.3h-122.4v1h122.4z" fill="#000" opacity=".09"/><path d="m431.7 991.7h-122.4v1h122.4z" fill="#000" opacity=".09"/><path d="m291.359 1083.99c29.088-7.73 46.398-37.58 38.662-66.67-7.735-29.09-37.587-46.4-66.675-38.665-29.088 7.736-46.398 37.585-38.662 66.675 7.735 29.09 37.587 46.4 66.675 38.66z" fill="#70dab9"/><path d="m291.359 1083.99c29.088-7.73 46.398-37.58 38.662-66.67-7.735-29.09-37.587-46.4-66.675-38.665-29.088 7.736-46.398 37.585-38.662 66.675 7.735 29.09 37.587 46.4 66.675 38.66z" fill="#000" opacity=".2"/><path d="m323.572 1034.88c.032-30.15-24.388-54.625-54.542-54.657-30.155-.032-54.626 24.387-54.659 54.537-.032 30.16 24.388 54.63 54.543 54.66 30.154.03 54.625-24.38 54.658-54.54z" fill="#70dab9"/><path d="m323.572 1034.88c.032-30.15-24.388-54.625-54.542-54.657-30.155-.032-54.626 24.387-54.659 54.537-.032 30.16 24.388 54.63 54.543 54.66 30.154.03 54.625-24.38 54.658-54.54z" fill="#fff" opacity=".2"/><path d="m293.478 1069.21c21.349-11.25 29.533-37.68 18.279-59.03-11.254-21.351-37.684-29.535-59.034-18.281-21.35 11.251-29.534 37.681-18.28 59.031s37.685 29.54 59.035 18.28z" fill="#70dab9"/><path d="m231.6 1028.8c2-24 23.2-41.9 47.2-39.9 9 .8 18 5.1 24.6 10.4-17.4-16.8-45-16.3-61.8 1.1s-16.3 45 1.1 61.8c-4-4.8-6.9-10.5-8.6-16.5-1.4-5.1-2.9-11.4-2.5-16.9z" fill="#000" opacity=".2"/><path d="m267.9 1060.6.5-6.2c-7-.9-10.4-3.6-9.6-12.1.1-1.8.4-3.6.9-5.4l8.9.8c-.2.8-.3 1.6-.4 2.5-.3 3.7-.2 5.8 3.4 6.1s4-1 4.4-5.7c.2-2.3.3-3.1-.9-4.4-2.4-2.7-8.9-4.9-11.8-7.4-2.6-2.2-3.1-4.9-2.4-12.4.7-8.6 3.5-11.3 11.7-11l.4-5 5 .4-.4 5c7.5 1 9.9 3.8 9.3 11.4-.1 1.6-.4 3.3-.7 4.9l-8.8-.7c.2-.9.3-1.8.3-2.7.3-3.4-.1-5.1-3.4-5.4-2.9-.2-3.8.7-4.1 4.7-.4 4.2-.1 4.6 2.5 6 2.9 1.6 5.7 2.7 8.1 4.2 3.5 2.1 5.8 3.1 5.1 11.3-1 11.6-3.5 15.5-12.4 15.4l-.5 6.3z" fill="#fff"/><path d="m1212.7 1033c2.4 1.1 4.2 3 5.1 5.5.9 2.4 1.2 5 .9 7.6-.4 5-3.1 10-6 14.1-4.3-3.5-5.4-9.8-5.8-13.1-.6-5.1 1.4-14.7 5.8-14.1z" fill="#ffb7a1"/><path d="m1218.4 1068.9c-1-2.8-.4-5.9 1.6-8.1s4.7-3.5 7.6-3.6c1.3-.2 2.7.2 3.7 1.1.8 1 1 2.3.5 3.5s-1.2 2.2-2.2 2.9c-3.4 2.8-7 4.8-11.2 4.2z" fill="#ffb7a1"/><path d="m1208.3 1069c-1.2-6.1-5.3-11.2-10.9-13.7-1.4-.6-3.2-1-4.4.1s-.8 2.9-.2 4.3c2.7 6 8.7 9.9 15.3 9.7" fill="#ffb7a1"/><path d="m1212.7 1033c2.4 1.1 4.2 3 5.1 5.5.9 2.4 1.2 5 .9 7.6-.4 5-3.1 10-6 14.1-4.3-3.5-5.4-9.8-5.8-13.1-.6-5.1 1.4-14.7 5.8-14.1z" fill="#fff" opacity=".04"/><path d="m1218.4 1068.9c-1-2.8-.4-5.9 1.6-8.1s4.7-3.5 7.6-3.6c1.3-.2 2.7.2 3.7 1.1.8 1 1 2.3.5 3.5s-1.2 2.2-2.2 2.9c-3.4 2.8-7 4.8-11.2 4.2z" fill="#fff" opacity=".04"/><path d="m1208.3 1069c-1.2-6.1-5.3-11.2-10.9-13.7-1.4-.6-3.2-1-4.4.1s-.8 2.9-.2 4.3c2.7 6 8.7 9.9 15.3 9.7" fill="#fff" opacity=".04"/><path d="m1212.2 1040.6c.3 3.6.5 7.3.7 10.9s.3 7.3.4 10.9.2 7.3.2 10.9 0 7.3-.1 10.9l-.7-21.8-.3-10.9c-.1-3.6-.1-7.3-.2-10.9z" fill="#000"/><path d="m1214 1083.6c.1-2.2.4-4.4.9-6.6s1.2-4.3 2.2-6.3 2.3-3.9 3.9-5.4c.8-.8 1.8-1.4 2.8-1.9s2.1-.8 3.2-1c-2.1.6-4.1 1.7-5.6 3.2s-2.8 3.4-3.7 5.3c-1 2-1.7 4-2.3 6.2-.7 2.1-1.1 4.3-1.4 6.5z" fill="#000"/><path d="m1212.8 1083.6c-.3-2.2-.7-4.4-1.3-6.5s-1.3-4.2-2.3-6.2c-.9-2-2.2-3.8-3.7-5.3-1.6-1.6-3.5-2.7-5.7-3.2 1.1.2 2.2.5 3.2 1s1.9 1.2 2.8 1.9c1.6 1.5 3 3.4 3.9 5.4 1 2 1.7 4.1 2.2 6.3s.8 4.4.9 6.6z" fill="#000"/><path d="m614.7 1032c2.4 1.1 4.2 3 5.1 5.5.9 2.4 1.2 5 .9 7.6-.4 5-3.1 10-6 14.1-4.3-3.5-5.4-9.8-5.8-13.1-.6-5.1 1.4-14.7 5.8-14.1z" fill="#ffb7a1"/><path d="m620.4 1067.9c-1-2.8-.4-5.9 1.5-8.1 2-2.2 4.7-3.5 7.6-3.6 1.3-.2 2.7.2 3.7 1.1.8 1 1 2.3.5 3.5s-1.2 2.2-2.2 2.9c-3.3 2.8-6.9 4.8-11.1 4.2z" fill="#ffb7a1"/><path d="m610.3 1068c-1.2-6.1-5.3-11.2-10.9-13.7-1.4-.6-3.2-1-4.4.1s-.8 2.9-.2 4.3c2.7 6 8.7 9.9 15.3 9.7" fill="#ffb7a1"/><path d="m614.7 1032c2.4 1.1 4.2 3 5.1 5.5.9 2.4 1.2 5 .9 7.6-.4 5-3.1 10-6 14.1-4.3-3.5-5.4-9.8-5.8-13.1-.6-5.1 1.4-14.7 5.8-14.1z" fill="#fff" opacity=".04"/><path d="m620.4 1067.9c-1-2.8-.4-5.9 1.5-8.1 2-2.2 4.7-3.5 7.6-3.6 1.3-.2 2.7.2 3.7 1.1.8 1 1 2.3.5 3.5s-1.2 2.2-2.2 2.9c-3.3 2.8-6.9 4.8-11.1 4.2z" fill="#fff" opacity=".04"/><path d="m610.3 1068c-1.2-6.1-5.3-11.2-10.9-13.7-1.4-.6-3.2-1-4.4.1s-.8 2.9-.2 4.3c2.7 6 8.7 9.9 15.3 9.7" fill="#fff" opacity=".04"/><path d="m614.2 1039.6c.3 3.6.5 7.3.7 10.9s.3 7.3.4 10.9.2 7.3.2 10.9 0 7.3-.1 10.9l-.7-21.8-.3-10.9c-.1-3.6-.1-7.3-.2-10.9z" fill="#000"/><path d="m616 1082.6c.1-2.2.4-4.4.9-6.6s1.2-4.3 2.2-6.3 2.3-3.9 3.9-5.4c.8-.8 1.8-1.4 2.8-1.9s2.1-.8 3.2-1c-2.1.6-4.1 1.7-5.6 3.2s-2.8 3.4-3.7 5.3c-1 2-1.7 4-2.3 6.2-.7 2.1-1.1 4.3-1.4 6.5z" fill="#000"/><path d="m614.8 1082.6c-.3-2.2-.7-4.4-1.3-6.5s-1.3-4.2-2.3-6.2c-.9-2-2.2-3.8-3.7-5.3-1.6-1.6-3.5-2.7-5.7-3.2 1.1.2 2.2.5 3.2 1s1.9 1.2 2.8 1.9c1.6 1.5 3 3.4 3.9 5.4 1 2 1.7 4.1 2.2 6.3s.8 4.4.9 6.6z" fill="#000"/><path d="m500.5 1065.9 62.8 1.5-25-17.9c-4.2-3-6.8-7.7-7-12.9l-.9-19.6-34.1.1z" fill="#fc9d9d"/><path d="m507.5 1043v-.4c-.2-2.2 1.3-4.1 3.5-4.4l20-2.9-.2-4h-33.4l3 33.3 27.4-3-9-3.6c-6.4-2.5-10.7-8.3-11.3-15z" fill="#000" opacity=".15"/><path d="m387.4 1064.8h28.2l5.2-47.8-33.4.1z" fill="#fc9d9d"/><path d="m394.5 1056.7.7-14.7c.1-1.9 1.6-3.5 3.5-3.8l20.3-3.1.5-4.1-31.8.1-.1 33.9z" fill="#000" opacity=".15"/><path d="m385.6 640.6v390.7h36.7l31.9-318.5c0-2.2 1.8-4 4-4s4 1.8 4 4l34 318.5h36.6l-13.2-390.7z" fill="#ffb7a1"/><path d="m389.5 1047.9.9-.9c6.8-6.6 17.6-6.5 24.3.3l.5.6c1.6 1.7 2.5 3.9 2.5 6.2v3.7c0 2.1.3 4.3 1 6.3l3 10c.8 2.4 1.2 4.9 1.2 7.4v1.3c-.1 2-1.8 3.5-3.8 3.5h-34.8c-2 .1-3.7-1.4-3.8-3.4v-.5c0-2.9.5-5.8 1.5-8.6l3.5-9.8c.8-2.2 1.2-4.6 1.2-7l.1-2.8c.2-2.4 1.1-4.6 2.7-6.3z" fill="#797979"/><path d="m384.6 1031.3h39.1l.8-8h-39.8z" fill="#ffb7a1"/><path d="m384.6 1031.3h16.4l.4-8h-16.7z" fill="#000" opacity=".3"/><path d="m380.5 1082.3v.5c.1 2 1.8 3.5 3.8 3.5h34.7c2 .1 3.7-1.4 3.8-3.4 0 0 0 0 0-.1v-1.3c0-.5 0-1-.1-1.4h-42.2z" fill="#000" opacity=".5"/><path d="m496.1 1054.8v24.5c0 3.9 3.2 7.1 7.1 7.2h83.2c1.7 0 3-1.3 3-3 0-5.8-3.8-11-9.3-12.9l-18.8-6.2-23.8-18.5c-2.5-1.9-5.9-1.8-8.3.2l-10.5 9c-1.5 1.3-3.7 1.8-5.6 1.2l-13.4-4.2c-1.5-.4-3.1.4-3.6 1.9.1.3 0 .5 0 .8z" fill="#797979"/><path d="m503.3 1086.4h83.2c1.7 0 3-1.3 3-3 0-1-.1-2-.4-3h-92.9c.6 3.5 3.6 6 7.1 6z" fill="#000" opacity=".5"/><path d="m537.1 1055.7c-.2 0-.3-.1-.5-.2-.3-.3-.3-.8 0-1.1l5-5.4c.3-.3.8-.3 1.1 0s.3.7 0 1l-5 5.4c-.2.2-.4.2-.6.3z" fill="#fff"/><path d="m541.1 1058.8c-.2 0-.3-.1-.5-.2-.3-.3-.3-.8 0-1.1l5-5.4c.3-.3.8-.3 1.1 0s.3.8 0 1.1l-5 5.4c-.2.1-.4.1-.6.2z" fill="#fff"/><path d="m545.1 1061.8c-.2 0-.4-.1-.5-.2-.3-.3-.3-.8 0-1.1l5-5.4c.3-.3.8-.2 1.1.1.2.3.2.7 0 1l-5 5.4c-.2.2-.4.3-.6.2z" fill="#fff"/><path d="m408.9 1056.2c-.1 0-.3 0-.4-.1-4-1.9-8.7-1.9-12.8 0-.5.2-1-.1-1.1-.5s0-.8.3-1c4.5-2.2 9.9-2.2 14.4 0 .4.2.6.7.4 1.2-.1.2-.5.4-.8.4z" fill="#fff"/><path d="m408.9 1060.6c-.1 0-.3 0-.4-.1-4-1.9-8.7-1.9-12.8 0-.4.3-.9.3-1.2-.1s-.3-.9.1-1.2c.1-.1.3-.2.4-.2 4.5-2.2 9.9-2.2 14.4 0 .4.2.6.7.4 1.2-.2.3-.6.4-.9.4z" fill="#fff"/><path d="m408.9 1065c-.1 0-.3 0-.4-.1-4-1.9-8.7-1.9-12.8 0-.4.2-.9 0-1.2-.4-.2-.4 0-.9.4-1.2 4.5-2.2 9.9-2.2 14.4 0 .4.2.6.7.4 1.2-.1.3-.5.5-.8.5z" fill="#fff"/><path d="m518 1026.8-36.2-300.7c-1.2-9.6-9.3-16.9-19-16.9h-4.5c2.1 0 3.8 1.6 4 3.7l33.8 316.8z" fill="#000" opacity=".3"/><path d="m495.2 1031.3h39l-.6-8h-39.2z" fill="#ffb7a1"/><path d="m428.5 459.1 22.4-5.4 26.1 7v197.3h-52.9z" fill="#fff"/><path d="m495.2 1031.3h23.2l-.9-8h-23.1z" fill="#000" opacity=".3"/><path d="m434.2 467.9c10.9 7.5 25.4 7.1 35.7-1.1l1.1-.8c1.1-.9.6-1.6.4-3l-1.4-22.4c.5-2.2.8-4.4.7-6.6.4-11.3 1.4-21.6 1.4-21.6s-37.6-23.6-39.1 5.2l-.6 7.5-2.6 37.8c0 1 .3 2.1 1 2.9z" fill="#fc9d9d"/><path d="m475.5 414.1c7 0 12.7-5.7 12.7-12.7s-5.7-12.7-12.7-12.7-12.7 5.7-12.7 12.7c-.1 7 5.6 12.7 12.7 12.7z" fill="#000"/><path d="m479 393.9s8.3 57-20.7 58.2c-25.1 1.1-24.3-37.8-24.3-37.8l3.5-25z" fill="#fc9d9d"/><path d="m474.7 395.5-25.4 1.8c-3.1.3-5.5 3-5.4 6.2.2 3.2-2.2 5.9-5.3 6.2-.8.1-1.5.8-1.5 1.7l.4 5.6c.1.7-.4 1.3-1 1.4-.1 0-.1 0-.2 0-.6.1-1.2-.4-1.4-1l-1.1-5.4-1.1-1.8-6 3.7s-9.7-14.9-5.1-28.6c2.7-7.7 10.3-10.5 14-11 1.2-.2 2.2-.8 2.9-1.8 1.5-2.5 5.1-6.8 13.1-6.5 4.6 0 8.9 2.4 11.3 6.3 1.1 1.6 3.1 2.2 4.9 1.4 3.5-1.6 7.6-1.3 10.8.8 8.3 5.3 5 19.6-3.9 21z" fill="#000"/><path d="m432.5 426.9s2.4.2 3.7-.8l-4.1 6.3z" fill="#000" opacity=".15"/><path d="m470.9 456.3-.9-9c-2.4 2.5-9.3 6.1-17.1 4.2-3.9-1-7.4-3.2-10-6.3-.2-.3-.6-.3-.8-.1-.3.2-.3.6-.1.8 3.4 3.9 8.1 6.5 13.3 7.1 4.4 3.3 10.1 4.4 15.6 3.3z" fill="#000" opacity=".15"/><path d="m463.1 440.4c0 .1-.1.1 0 0-2.4.2-3.5.3-3.5.3-.4 0-.8-.3-.8-.7s.3-.8.7-.8h.1l3.4-.3c.4 0 .8.2.8.6 0 .5-.3.9-.7.9z" fill="#000" opacity=".2"/><path d="m464.4 437.1c-6.3.9-9.1-2.5-10.1-4.1-.2-.4-.1-.8.3-1s.8-.1 1 .3c.9 1.7 4.1 5.2 11.6 2.8.4-.2.8 0 1 .4s0 .8-.4 1h-.1c-1.1.2-2.2.4-3.3.6z" fill="#000" opacity=".2"/><path d="m455.8 422.3c1.3 0 2.3-1 2.3-2.3s-1-2.3-2.3-2.3-2.3 1-2.3 2.3c-.1 1.3 1 2.3 2.3 2.3z" fill="#000"/><path d="m456.8 420.7c.3 0 .4-.3.4-.5s-.2-.4-.4-.4c-.3 0-.4.3-.4.5s.2.3.4.4z" fill="#fff"/><path d="m474 422.4c1.3 0 2.3-1 2.3-2.3s-1-2.3-2.3-2.3-2.3 1-2.3 2.3 1 2.3 2.3 2.3z" fill="#000"/><path d="m475 420.8c.3 0 .5-.2.5-.5 0-.2-.2-.5-.4-.5-.3 0-.5.2-.5.5-.1.3.1.5.4.5z" fill="#fff"/><path d="m466.1 431.5-3 .2c-.4 0-.7-.3-.7-.6 0-.4.3-.7.6-.7l3-.2c.8 0 1.4-.6 1.4-1.4s-.6-1.4-1.4-1.4h-.1c-.4 0-.7-.3-.7-.6-.1-.4.3-.6.6-.7 1.5-.1 2.8 1 3 2.5-.1 1.4-1.2 2.7-2.7 2.9z" fill="#000" opacity=".2"/><path d="m480.8 412.8-10-.3h-1.4l-8.8-.3h-.1l-11.3-.3c-1.8-.1-3.4 1.4-3.4 3.2l-.1 2.6c-.1 5 3.8 9.1 8.8 9.3 5 .1 9.1-3.8 9.3-8.8l.1-2.6c0-.7-.2-1.5-.7-2l3.5.1c-.5.6-.7 1.3-.7 2l-.1 2.6c-.1 5 3.8 9.1 8.8 9.3 5 .1 9.1-3.8 9.3-8.8l.1-2.6c.1-1.8-1.3-3.4-3.1-3.4-.2 0-.2 0-.2 0zm-18.3 2.7-.1 2.6c-.2 4.2-3.8 7.5-8.1 7.3-4.1-.2-7.3-3.6-7.3-7.7l.1-2.6c0-1.1.9-2 2-2h.1l11.3.3h.1c1.1.2 1.9 1.1 1.9 2.1zm20.1 3.2c-.2 4.2-3.8 7.5-8.1 7.3-4.1-.2-7.3-3.6-7.3-7.7l.1-2.6c0-1.1.9-2 2-2h.1 1.4l10 .3c1.1 0 2 .9 2 2v.1z" fill="#000"/><path d="m476 493-11.9 190.2c0 3.7 2.9 6.7 6.6 6.7h50.6v-28.8z" fill="#000" opacity=".15"/><path d="m435 510-19.3 141.4v19.7l-30.2-.3v352.4l15.8.1 14.3-307.1.4-8.8c.2-5 3.9-9.2 8.8-10l12.5-2.1c3.9 0 7-3.1 7-7v-.1l.4-65.3c.2-37.9-3.1-75.7-9.7-112.9z" fill="#000" opacity=".3"/><path d="m488.2 464.1 34.8 8.9c9.6 2.2 17 9.9 18.8 19.7l20.4 105.8-39.9-4-1.7 90c0 1.8-1.5 3.2-3.3 3.2h-38.3c-1.8 0-3.2-1.4-3.3-3.2l-3.4-223z" fill="#797979"/><path d="m429 463c7.3 44.6 10.7 89.7 10.2 134.9l-1 86.6c0 1.8-1.5 3.2-3.3 3.2h-50c-1.8 0-3.2-1.4-3.3-3.2l-.6-74.5-15.9 6-6.4 1.7c-7.9 2.1-16.1-3.4-16.6-11.5-.1-.9 0-1.9.1-2.8l16.8-110c1.6-10.1 9.1-18.2 19.1-20.3l29-6.4c7.2-1.7 14.5-2.9 21.9-3.7z" fill="#797979"/><path d="m527 594.6 35.2 3.9-10-51.5-25.2 4z" fill="#fc9d9d"/><path d="m372 517.9s5.4 4.8 9.4 17.2z" fill="#000" opacity=".15"/><path d="m526.7 559.1v-41.2l7.7 43c1.1 6.8 4.7 12.9 10.1 17.2l16.8 13.2 1.4 8.3-30.2-10.1-5.9-30.7" fill="#000" opacity=".15"/><path d="m538.8 566.7s2.7-3.6 3.6 0l-.9 16.1-4.5-10.8z" fill="#fc9d9d"/><path d="m538.8 566.7s2.7-3.6 3.6 0l-.9 16.1-4.5-10.8z" fill="#000" opacity=".15"/><path d="m533 490.1c-4.5 9-6.3 26-6.3 26s2.2-10.3 5.8-13" fill="#000" opacity=".15"/><path d="m380.9 623.5.7 61c0 1.8 1.5 3.2 3.3 3.2h10.6l-.5-84.3-6.4-23.6-5.7-59.8c0-.4-.3-.7-.7-.7s-.7.3-.7.7z" fill="#000" opacity=".15"/><path d="m381 551-30-5-8.9 57.3c-.1.9-.2 1.9-.1 2.8.6 8.2 8.8 13.6 16.6 11.5l6.4-1.7 2.9-1c8.3-2.9 16.4-6.5 24-11l-11-34z" fill="#fc9d9d"/><path d="m540.1 582.8 19.9 11.8c1.8 1.1 2.5 3.2 2.8 5.5.8 6.7-2.3 24.6-20.6 19-1.4-.4-2.5-1.3-3.3-2.5l-12-17.5z" fill="#fc9d9d"/><path d="m532.7 599.6c3.3-3 6.8-8.3 7.8-16.3l-1.6-.9-12.7 17 2 2.2 10.8 14.9c.8 1.2 2 2.1 3.3 2.5 12.8 3.9 18.1-2.9 20-11.2-8.9 17.9-24.4 2.1-29.8-4.3-1-1-.9-2.8.2-3.9z" fill="#000" opacity=".15"/><path d="m381.1 570.4 67.7-17.5 29.3-11.7c1.3-.5 2.8-.6 4.2-.2l13.8 3.9c1 .3 2 .8 2.7 1.6l8.6 8.6c.9.9.9 2.4 0 3.3-.1.1-.2.1-.2.2-.8.6-2 .6-2.8 0l-9.3-7-8-2.4c-.6-.2-1.1.1-1.4.6s-.1 1.1.4 1.5l10.1 7.2c1 .7 1.4 1.9 1 3-.2.5-.5 1-1 1.3l-.8.5c-.7.5-1.6.6-2.4.2l-3.2-1.3 1.3.8c.8.6 1.2 1.6.9 2.6-.2.7-.7 1.2-1.4 1.4l-1 .3c-.4.1-.9.1-1.3 0l-5.6-1.6 4.9 2.1c.7.3 1.1 1.1.8 1.9 0 0 0 .1-.1.1-.1.3-.4.5-.6.7l-1.4.7c-1.1.6-2.4.8-3.7.7l-6.1-.7s-8.1 1.8-20.6.9l-71.1 35.9-13.4-15.2z" fill="#fc9d9d"/><path d="m487.3 569c0 3.6-11.6 0-11.6 0-5.4 0-21.5-2.7-21.5-2.7l-72.8 29.2v.2c-40.3 16.9-38.2.6-38.2.6l-1.1 7.1c-.1 1-.2 1.9-.1 2.9.6 8.5 8.4 13.6 16.6 11.5l6.4-1.7 3.1-1c6.5-2 12.9-4.7 18.9-8l-.2-.1 68.7-34.8c12.5.9 20.6-.9 20.6-.9l6.1.7c1.3.1 2.6-.1 3.7-.7l1.4-.7c.3-.1.5-.4.6-.7v-.1z" fill="#000" opacity=".15"/><path d="m490.3 562.5-7.4-3.4" opacity=".15" stroke="#000" stroke-linecap="round" stroke-miterlimit="10" stroke-width=".9"/><path d="m485.1 567-5.8-2.5" opacity=".15" stroke="#000" stroke-linecap="round" stroke-miterlimit="10" stroke-width=".9"/><path d="m417.5 464.5-2.5 51.5 19.7-11.5-5.7-41.5z" fill="#000" opacity=".15"/><path d="m419 464.3-1.3 46.7 16.5-7.9-5.5-44.1z" fill="#797979"/><path d="m481.5 462.3 10.5 51.7-19.1-8.9-.9-45.1z" fill="#000" opacity=".15"/><path d="m472 458 .9 45.1 16.1 6.9-9-48.2z" fill="#797979"/><path d="m381 570-9 3 8.9-6.7z" fill="#000" opacity=".15"/><path d="m505.3 554.4-36.2 43.9 2.8 3 58.8-9 29.2-43.9-2.7-2.4z" fill="#ffb7a1"/><path d="m472 601 35-43 53-10-3-2-52 8-36 45z" fill="#000" opacity=".2"/><path d="m529 566c1.105 0 2-.895 2-2s-.895-2-2-2-2 .895-2 2 .895 2 2 2z" fill="#fff"/><path d="m543.8 566c-2.3 0-4.4 1.4-5.2 3.6-.9 2.3-2.2 4.9-3.6 5.7-2.6 1.4-7.1 2.6-9.5 1.4s-11.9-9.7-13.5-8.8-3.1 3.1-1.4 5 10.5 7.6 8.8 9.5-20.2-6.5-23-5.7-4.5 2.5-2.9 3.6 14.3 5.9 15 7.6c0 0-19-5-19.7-3.8s-1.9 3.1 0 3.8 18.3 5 19.7 5.7c2.4 1 4.8 1.7 7.3 2.1 2.6.7 5.1 1.5 7.7 2.4 3.8 1.3 8 1.2 11.8-.3l1.9-.8c3-1.2 4.9-4.2 4.7-7.4l-.4-6.5 2.1-5.3z" fill="#fc9d9d"/><path d="m507 591-13-1s-2.1.7-1 2.1c.5.6 1.1.9 1.9 1l22.1 2.9z" fill="#fc9d9d"/><path d="m442.1 425.1s17.7 5.7 37 2.2c0 0-1.1 18.6-13.7 24.8 0 0-16.1 5.3-26.9-11.8 0 0 3.6-8 3.6-15.2z" fill="#70dab9"/><path d="m441.6 441.2-2.3-.5-8.9-14.8 2.7-15.2 11.6 16.5zm-1.8-1.5.9.3 2.7-12.2-9.3-14.1-2.5 11.8z" fill="#70dab9"/><path d="m440.7 443.4-.7-.8s4.9-4.6 5.3-16.5h1c-.4 12.5-5.4 17.1-5.6 17.3z" fill="#fff" opacity=".04"/><path d="m445 447.9-.7-.7c.1-.1 5.9-6.3 6.3-19.9h1c-.4 14-6.3 20.3-6.6 20.6z" fill="#fff" opacity=".04"/><path d="m450.6 451.1c1.7-2.5 6.2-10.2 6.3-23.1h-.5-.5c-.2 12.9-4.8 20.6-6.3 22.8z" fill="#fff" opacity=".2"/><path d="m456.3 452.7 1 .1c1.4-3.6 5.6-15 4.5-24.4l-1-.1c1.1 9.4-3.2 21.3-4.5 24.4z" fill="#fff" opacity=".2"/><path d="m462.7 452.7c.4-.1.8-.1 1.1-.2 1.3-3.6 4.4-13.6 2.4-24-.3 0-.7 0-1 0 2.2 10.8-1.4 21.4-2.5 24.2z" fill="#fff" opacity=".2"/><path d="m470.2 448.8c.9-3.8 2.4-12.2.5-20.4h-.5l-.5.1c2.2 9.4-.2 19-.8 21.5.4-.4.8-.8 1.3-1.2z" fill="#fff" opacity=".2"/><path d="m474.2 443.6c.5-.9 1-1.8 1.4-2.8.5-3.4.9-8.9.1-13l-1 .1c1.2 5.9-.4 15-.5 15.7z" fill="#fff" opacity=".2"/><path d="m433.9 412s-1.9-5.2-7.4-2.9c-6.3 2.8-5 17 5.6 17.8 5.5.5 4.4-2.8 3.5-7.1z" fill="#fc9d9d"/><path d="m426.3 412.8c.9-.7 1.9-1 3-.8 1 .3 1.9 1 2.4 1.9.7 1.2 1 2.5 1 3.9l.1 1.2c0 .4-.4.6-.7.6s-.5-.3-.6-.6l-.1-1.2c0-1.1-.3-2.2-.8-3.2-.3-.6-.9-1.1-1.5-1.4-.7-.1-1.4.1-2 .5-.3.2-.7.1-.9-.2-.3 0-.2-.4.1-.7z" fill="#000" opacity=".15"/></svg>