<svg enable-background="new 0 0 1600 1200" fill="none" height="1200" viewBox="0 0 1600 1200" width="1600" xmlns="http://www.w3.org/2000/svg"><path d="m1344.5 1052.65h-1131.94l-91.87-495.85c-1.514-8.173-1.206-16.579.903-24.618 2.108-8.04 5.966-15.515 11.297-21.892l254.6-304.44c4.962-5.935 11.091-10.786 18.006-14.252 6.916-3.467 14.47-5.474 22.194-5.898l774.59-42.7c12.64-.697 25.16 2.877 35.53 10.147 10.36 7.271 17.99 17.817 21.64 29.943l159.79 530.5c2.91 9.645 3.18 19.894.79 29.68z" fill="#70dab9"/><path d="m1344.5 1052.65h-1131.94l-91.87-495.85c-1.514-8.173-1.206-16.579.903-24.618 2.108-8.04 5.966-15.515 11.297-21.892l254.6-304.44c4.962-5.935 11.091-10.786 18.006-14.252 6.916-3.467 14.47-5.474 22.194-5.898l774.59-42.7c12.64-.697 25.16 2.877 35.53 10.147 10.36 7.271 17.99 17.817 21.64 29.943l159.79 530.5c2.91 9.645 3.18 19.894.79 29.68z" fill="#fff" opacity=".81"/><path d="m1208.12 335.6-147.57 45.31 42.09 39.14-140.14 156.21-53.16-54.3-9.96-10.19-9.82 9.62-213.84 209.43-71.03-75.2-4.61-4.88-4.61 4.55-256.65 252.87 260.6-238.97 69.8 79.42 5.6 6.37 6.48-5.92 216.95-197.73 53.36 58.57 11.06 12.14 11.79-12.22 157.06-162.91 42.09 39.15z" fill="#ffb7a1"/><path d="m900 734.87h-14c.682.003 1.356.14 1.985.403.628.263 1.199.648 1.679 1.131.48.484.86 1.058 1.119 1.688.258.631.39 1.307.387 1.988v305.46c.003.68-.129 1.36-.387 1.99-.259.63-.639 1.2-1.119 1.69-.48.48-1.051.86-1.679 1.13-.629.26-1.303.4-1.985.4h14c.682 0 1.356-.14 1.985-.4.628-.27 1.199-.65 1.679-1.13.48-.49.86-1.06 1.119-1.69.258-.63.39-1.31.387-1.99v-305.46c.003-.681-.129-1.357-.387-1.988-.259-.63-.639-1.204-1.119-1.688-.48-.483-1.051-.868-1.679-1.131-.629-.263-1.303-.4-1.985-.403z" fill="#70dab9"/><path d="m766.34 734.87h119.66c.681.003 1.356.14 1.984.403.629.263 1.2.648 1.68 1.131.48.484.86 1.058 1.118 1.688.259.631.39 1.307.388 1.988v305.46c.002.68-.129 1.36-.388 1.99-.258.63-.638 1.2-1.118 1.69-.48.48-1.051.86-1.68 1.13-.628.26-1.303.4-1.984.4h-119.66c-.681 0-1.355-.14-1.983-.4-.628-.27-1.198-.65-1.678-1.13-.479-.49-.858-1.06-1.115-1.69-.258-.63-.388-1.31-.384-1.99v-305.46c-.004-.681.126-1.356.384-1.987.257-.63.636-1.204 1.115-1.688.48-.484 1.05-.869 1.678-1.132s1.302-.4 1.983-.403z" fill="#70dab9"/><path d="m766.34 734.87h119.66c.681.003 1.356.14 1.984.403.629.263 1.2.648 1.68 1.131.48.484.86 1.058 1.118 1.688.259.631.39 1.307.388 1.988v305.46c.002.68-.129 1.36-.388 1.99-.258.63-.638 1.2-1.118 1.69-.48.48-1.051.86-1.68 1.13-.628.26-1.303.4-1.984.4h-119.66c-.681 0-1.355-.14-1.983-.4-.628-.27-1.198-.65-1.678-1.13-.479-.49-.858-1.06-1.115-1.69-.258-.63-.388-1.31-.384-1.99v-305.46c-.004-.681.126-1.356.384-1.987.257-.63.636-1.204 1.115-1.688.48-.484 1.05-.869 1.678-1.132s1.302-.4 1.983-.403z" fill="#fff" opacity=".4"/><path d="m1058 631.47h-14c2.85 0 5.17 3.1 5.17 6.92v405.45c0 3.82-2.32 6.91-5.17 6.91h14c2.85 0 5.17-3.09 5.17-6.91v-405.45c.01-3.82-2.31-6.92-5.17-6.92z" fill="#70dab9"/><path d="m924.34 631.47h119.66c2.85 0 5.17 3.1 5.17 6.92v405.45c0 3.82-2.32 6.91-5.17 6.91h-119.66c-2.85 0-5.16-3.09-5.16-6.91v-405.45c0-3.82 2.31-6.92 5.16-6.92z" fill="#70dab9"/><path d="m924.34 631.47h119.66c2.85 0 5.17 3.1 5.17 6.92v405.45c0 3.82-2.32 6.91-5.17 6.91h-119.66c-2.85 0-5.16-3.09-5.16-6.91v-405.45c0-3.82 2.31-6.92 5.16-6.92z" fill="#fff" opacity=".4"/><path d="m1216.1 526.41h-14c2.85 0 5.17 3.88 5.17 8.65v507c0 4.78-2.32 8.65-5.17 8.65h14c2.85 0 5.17-3.87 5.17-8.65v-507c0-4.77-2.27-8.65-5.17-8.65z" fill="#70dab9"/><path d="m1082.43 526.41h119.67c2.85 0 5.17 3.88 5.17 8.65v507c0 4.78-2.32 8.65-5.17 8.65h-119.67c-2.85 0-5.16-3.87-5.16-8.65v-507c0-4.77 2.31-8.65 5.16-8.65z" fill="#70dab9"/><path d="m1082.43 526.41h119.67c2.85 0 5.17 3.88 5.17 8.65v507c0 4.78-2.32 8.65-5.17 8.65h-119.67c-2.85 0-5.16-3.87-5.16-8.65v-507c0-4.77 2.31-8.65 5.16-8.65z" fill="#fff" opacity=".4"/><path d="m1374 360.84h-14c2.85 0 5.16 5.1 5.16 11.39v667.9c0 6.3-2.31 11.4-5.16 11.4h14c2.85 0 5.16-5.1 5.16-11.4v-667.9c-.03-6.29-2.34-11.39-5.16-11.39z" fill="#70dab9"/><path d="m1240.3 360.84h119.7c2.85 0 5.16 5.1 5.16 11.39v667.9c0 6.3-2.31 11.4-5.16 11.4h-119.7c-2.85 0-5.17-5.1-5.17-11.4v-667.9c0-6.29 2.32-11.39 5.17-11.39z" fill="#70dab9"/><path d="m1240.32 360.52h119.68c2.85 0 5.16 5.1 5.16 11.39v667.91c0 6.29-2.31 11.39-5.16 11.39h-119.68c-2.85 0-5.17-5.1-5.17-11.39v-667.91c0-6.29 2.32-11.39 5.17-11.39z" fill="#fff" opacity=".4"/><path d="m808.23 998.3 1.23 35.59-26.73 16.76-.37-43.97z" fill="#fff"/><path d="m780.17 1050.77 29.16-20.5c2.38.27 4.4 3.4 2.35 4.61l-22.6 15.89z" fill="#ffb7a1"/><path d="m784.09 1007.91h-186.14v42.86h186.14z" fill="#ffb7a1"/><path d="m784.09 1007.91h-186.14v42.86h186.14z" fill="#fff" opacity=".2"/><path d="m598 1007.91 30.17-13.55 184.81 1.43c.269.005.528.102.734.275.205.173.345.411.396.675.05.264.008.538-.119.774-.128.237-.333.423-.581.526l-29.28 11.84-186.13 1.48z" fill="#ffb7a1"/><path d="m733.03 1017.5h-125.14v25.38h125.14z" fill="#fff"/><path d="m757.52 1038.43c5.02 0 9.09-4.07 9.09-9.09s-4.07-9.09-9.09-9.09c-5.021 0-9.09 4.07-9.09 9.09s4.069 9.09 9.09 9.09z" fill="#ffb7a1"/><path d="m757.52 1038.93c-1.897 0-3.751-.56-5.328-1.62-1.577-1.05-2.806-2.55-3.532-4.3s-.916-3.68-.546-5.54 1.283-3.57 2.625-4.91c1.341-1.34 3.05-2.26 4.91-2.63s3.788-.18 5.541.55c1.752.73 3.25 1.96 4.303 3.53 1.054 1.58 1.617 3.43 1.617 5.33-.003 2.54-1.014 4.98-2.812 6.78s-4.236 2.81-6.778 2.81zm0-18.18c-1.699 0-3.36.5-4.773 1.45-1.412.94-2.513 2.28-3.163 3.85-.651 1.57-.821 3.3-.489 4.97.331 1.66 1.149 3.19 2.351 4.39 1.201 1.21 2.732 2.02 4.398 2.35 1.666.34 3.393.17 4.963-.48s2.911-1.76 3.855-3.17 1.448-3.07 1.448-4.77c-.003-2.28-.909-4.46-2.519-6.07-1.611-1.61-3.794-2.52-6.071-2.52z" fill="#fff"/><path d="m784.08 1018.54 24.27-16.61v-1.86l-24.27 9.81z" fill="#000" opacity=".2"/><path d="m809.49 985.01-4.23 2.65 3.99 2.65h-28.85v-5.3z" fill="#797979"/><path d="m802.88 972.61-3.51 2.54 3.06 2.88h-34.03v-5.42z" fill="#797979"/><path d="m788.65 959.84h-186.08v43.31h186.08z" fill="#70dab9"/><path d="m724.9 970.67h-107.71v22.19h107.71z" fill="#fff"/><path d="m760.81 992.29c-1.897 0-3.751-.562-5.328-1.616s-2.806-2.552-3.532-4.304-.916-3.68-.546-5.541c.37-1.86 1.283-3.569 2.625-4.91 1.341-1.341 3.05-2.255 4.91-2.625s3.788-.18 5.541.546c1.752.726 3.25 1.955 4.304 3.532 1.053 1.577 1.616 3.431 1.616 5.328-.003 2.543-1.014 4.98-2.812 6.778s-4.236 2.809-6.778 2.812zm0-18.18c-1.699 0-3.36.504-4.773 1.448-1.412.944-2.513 2.285-3.163 3.855-.651 1.569-.821 3.297-.489 4.963.331 1.666 1.149 3.197 2.351 4.398 1.201 1.202 2.732 2.02 4.398 2.351 1.666.332 3.393.161 4.963-.489s2.911-1.751 3.855-3.164c.944-1.412 1.448-3.073 1.448-4.772-.006-2.276-.912-4.458-2.522-6.068s-3.792-2.517-6.068-2.522z" fill="#fff"/><path d="m788.68 929.63h-190.73v30.42h190.73z" fill="#ffb7a1"/><path d="m788.68 929.63h-190.73v30.42h190.73z" fill="#fff" opacity=".2"/><path d="m766.61 936.44h-4.3v17.97h4.3z" fill="#fff"/><path d="m643.59 934.39v5.71h.32c.634-.073 1.277-.012 1.886.181s1.171.512 1.648.937.858.946 1.12 1.529c.261.583.396 1.214.396 1.853s-.135 1.271-.396 1.853c-.262.583-.643 1.104-1.12 1.529s-1.039.745-1.648.937c-.609.193-1.252.254-1.886.181h-.32v5.35h37.73v-20z" fill="#fff"/><path d="m628.12 939.14h-2.3v13.02h2.3z" fill="#fff" stroke="#000" stroke-miterlimit="10"/><path d="m633.94 939.14h-2.3v13.02h2.3z" fill="#fff" stroke="#000" stroke-miterlimit="10"/><path d="m641.66 939.14h-2.3v13.02h2.3z" fill="#fff" stroke="#000" stroke-miterlimit="10"/><path d="m791.4 892.99h-186.27v36.64h186.27z" fill="#70dab9"/><path d="m724.9 898.4h-107.2v21.47h107.2z" fill="#fff"/><path d="m779.23 851.5h-186.08v43.31h186.08z" fill="#ffb7a1"/><path d="m779.05 851.77h-186.08v43.31h186.08z" fill="#fff" opacity=".2"/><path d="m722.16 858.46h-115.5v29.94h115.5z" fill="#fff"/><path d="m757.52 882.99c5.02 0 9.09-4.07 9.09-9.09s-4.07-9.09-9.09-9.09c-5.021 0-9.09 4.07-9.09 9.09s4.069 9.09 9.09 9.09z" fill="#ffb7a1"/><path d="m757.52 883.49c-1.897 0-3.751-.562-5.328-1.616s-2.806-2.552-3.532-4.304-.916-3.681-.546-5.541 1.283-3.569 2.625-4.91c1.341-1.341 3.05-2.255 4.91-2.625s3.788-.18 5.541.546c1.752.726 3.25 1.955 4.303 3.532 1.054 1.577 1.617 3.431 1.617 5.328-.003 2.543-1.014 4.98-2.812 6.778s-4.236 2.809-6.778 2.812zm0-18.18c-1.699 0-3.36.504-4.773 1.448-1.412.944-2.513 2.285-3.163 3.855-.651 1.569-.821 3.297-.489 4.963.331 1.666 1.149 3.197 2.351 4.398 1.201 1.201 2.732 2.02 4.398 2.351s3.393.161 4.963-.489 2.911-1.751 3.855-3.164c.944-1.412 1.448-3.073 1.448-4.772-.003-2.277-.909-4.461-2.519-6.071-1.611-1.61-3.794-2.516-6.071-2.519z" fill="#fff"/><path d="m761.18 918.73c-1.897 0-3.751-.562-5.328-1.616s-2.806-2.552-3.532-4.304-.916-3.681-.546-5.541 1.284-3.569 2.625-4.91 3.05-2.255 4.91-2.625 3.788-.18 5.541.546c1.752.726 3.25 1.955 4.304 3.532 1.053 1.577 1.616 3.431 1.616 5.328-.003 2.543-1.014 4.98-2.812 6.778s-4.236 2.809-6.778 2.812zm0-18.18c-1.699 0-3.36.504-4.773 1.448-1.412.944-2.513 2.285-3.163 3.855-.65 1.569-.821 3.297-.489 4.963.331 1.666 1.149 3.197 2.351 4.398 1.201 1.201 2.732 2.02 4.398 2.351s3.393.161 4.963-.489 2.911-1.751 3.855-3.164c.944-1.412 1.448-3.073 1.448-4.772-.003-2.277-.909-4.461-2.519-6.071s-3.794-2.516-6.071-2.519z" fill="#fff"/><path d="m784.03 808.19h-186.08v43.31h186.08z" fill="#70dab9"/><path d="m756.19 843.44c5.02 0 9.09-4.07 9.09-9.09s-4.07-9.09-9.09-9.09c-5.021 0-9.09 4.07-9.09 9.09s4.069 9.09 9.09 9.09z" fill="#70dab9"/><path d="m756.19 843.94c-1.897 0-3.751-.562-5.328-1.616s-2.807-2.551-3.532-4.304c-.726-1.752-.916-3.68-.546-5.541.37-1.86 1.283-3.569 2.625-4.91 1.341-1.341 3.049-2.254 4.91-2.624 1.86-.371 3.788-.181 5.541.545 1.752.726 3.25 1.955 4.303 3.532 1.054 1.577 1.617 3.432 1.617 5.328-.003 2.543-1.014 4.981-2.812 6.778-1.798 1.798-4.236 2.81-6.778 2.812zm0-18.18c-1.699 0-3.36.504-4.773 1.448-1.412.944-2.513 2.285-3.164 3.855-.65 1.57-.82 3.297-.488 4.963.331 1.666 1.149 3.197 2.351 4.398 1.201 1.202 2.731 2.02 4.398 2.351 1.666.332 3.393.162 4.963-.489 1.569-.65 2.911-1.751 3.855-3.163.944-1.413 1.448-3.074 1.448-4.773-.003-2.277-.909-4.461-2.519-6.071-1.611-1.61-3.794-2.516-6.071-2.519z" fill="#fff"/><path d="m641.57 819v6.66c1.297.565 2.402 1.497 3.177 2.681.776 1.184 1.189 2.569 1.189 3.984s-.413 2.8-1.189 3.984c-.775 1.184-1.88 2.116-3.177 2.681v6.1h36.57v-26.09z" fill="#fff"/><path d="m794.97 775.5v-28.69l-37.46-22.93v37.44z" fill="#fff"/><path d="m794.97 775.5v-28.69l-37.46-22.93v37.44z" fill="#000" opacity=".1"/><path d="m622.1 766.81-23.49-5.49h158.91l49.28 16.77c.08.032.149.087.198.158.048.072.074.156.074.242s-.026.171-.074.242c-.049.071-.118.126-.198.158l-20.65 9.11z" fill="#70dab9"/><path d="m622.1 766.81-23.49-5.49h158.91l49.28 16.77c.08.032.149.087.198.158.048.072.074.156.074.242s-.026.171-.074.242c-.049.071-.118.126-.198.158l-20.65 9.11z" fill="#000" opacity=".2"/><path d="m777.91 781.5h-184.76v26.69h184.76z" fill="#ffb7a1"/><path d="m777.91 781.5h-184.76v26.69h184.76z" fill="#fff" opacity=".2"/><path d="m784.81 781.26h-186.2c1.9-3.23 2.29-7 0-11.61h186.2c-1.378 3.747-1.378 7.863 0 11.61z" fill="#ffb7a1"/><path d="m784.81 781.26h-186.2c1.9-3.23 2.29-7 0-11.61h186.2c-1.378 3.747-1.378 7.863 0 11.61z" fill="#fff" opacity=".2"/><path d="m788.11 783.07h-186.2c1.9-2.1 2.28-4.54 0-7.57h186.2c-2.11 0-2.11 7.57 0 7.57z" fill="#ffb7a1"/><path d="m788.11 783.07h-186.2c1.9-2.1 2.28-4.54 0-7.57h186.2c-2.11 0-2.11 7.57 0 7.57z" fill="#fff" opacity=".4"/><path d="m598.61 730.15v31.17h158.9v-40.18z" fill="#70dab9"/><path d="m605.05 734.86v22.34l101.33-.78v-28.42z" fill="#fff"/><path d="m731.74 749.48c4.815 0 8.72-3.904 8.72-8.72s-3.905-8.72-8.72-8.72c-4.816 0-8.72 3.904-8.72 8.72s3.904 8.72 8.72 8.72z" fill="#70dab9"/><path d="m731.74 750c-1.826.002-3.612-.538-5.132-1.551-1.519-1.014-2.704-2.455-3.403-4.142-.7-1.687-.884-3.544-.528-5.335.356-1.792 1.235-3.437 2.526-4.729 1.292-1.291 2.937-2.17 4.729-2.526 1.791-.356 3.648-.172 5.335.528 1.687.699 3.128 1.884 4.142 3.403 1.013 1.52 1.553 3.306 1.551 5.132-.005 2.444-.978 4.786-2.706 6.514s-4.07 2.701-6.514 2.706zm0-17.45c-1.628-.002-3.22.479-4.575 1.382s-2.411 2.188-3.036 3.692c-.624 1.503-.789 3.158-.472 4.756.316 1.597 1.099 3.064 2.25 4.216s2.617 1.937 4.214 2.255c1.596.319 3.252.156 4.756-.466 1.505-.623 2.791-1.678 3.695-3.032.905-1.353 1.388-2.945 1.388-4.573.003-1.082-.208-2.153-.62-3.153s-1.016-1.91-1.78-2.676c-.763-.766-1.67-1.374-2.669-1.79-.999-.415-2.069-.63-3.151-.631z" fill="#fff"/><path d="m757.51 721.14v2.74l37.46 22.93v-4.17z" fill="#70dab9"/><path d="m757.51 721.14v2.74l37.46 22.93v-4.17z" fill="#000" opacity=".2"/><path d="m758.51 747.79 36.49 19.6 35.28-17.7-32-13.07s-19.53 12.44-39.77 11.17z" fill="#fff"/><path d="m757.51 757.2 46.67 15.09-25.54-10.97z" fill="#fff"/><path d="m735.5 834.24 68.85 35.57 79-30.13-49.8-31.49s-22.37 55.63-98.05 26.05z" fill="#fff"/><path d="m675.12 783.27s38.9 15.35 75.23 50.41l18.65-13.52c-40.77-27.43-93.88-36.89-93.88-36.89z" fill="#000" opacity=".2"/><path d="m833.2 783.27h-158.08s65.3 11.62 106.62 46.49z" fill="#fff"/><path d="m783.4 952.16c-2.775-11.81-4.726-23.799-5.84-35.88-4.402-6.226-7.878-13.057-10.32-20.28-.25 23.29 1.76 46.38 7.16 69.17l14.27 4.45v-15.76z" fill="#000" opacity=".2"/><path d="m776.24 883c-.25 23.29 1.76 46.38 7.16 69.17l70.27 21.45v-45.32s-57.37 12.41-77.43-45.3z" fill="#fff"/><path d="m727.05 525.307c17.761-17.761 17.761-46.557 0-64.318s-46.557-17.761-64.318 0-17.761 46.557 0 64.318 46.557 17.761 64.318 0z" fill="#797979"/><path d="m727.05 525.307c17.761-17.761 17.761-46.557 0-64.318s-46.557-17.761-64.318 0-17.761 46.557 0 64.318 46.557 17.761 64.318 0z" fill="#000" opacity=".2"/><path d="m709.027 535.804c22.427-11.31 31.441-38.659 20.131-61.087-11.309-22.428-38.659-31.441-61.087-20.131-22.427 11.309-31.44 38.659-20.131 61.086 11.309 22.428 38.659 31.441 61.087 20.132z" fill="#797979"/><path d="m717.614 517.129c12.162-16.063 8.999-38.944-7.064-51.105-16.063-12.162-38.943-8.999-51.104 7.064-12.162 16.063-8.999 38.943 7.064 51.105 16.062 12.161 38.943 8.998 51.104-7.064z" fill="#797979"/><path d="m717.614 517.129c12.162-16.063 8.999-38.944-7.064-51.105-16.063-12.162-38.943-8.999-51.104 7.064-12.162 16.063-8.999 38.943 7.064 51.105 16.062 12.161 38.943 8.998 51.104-7.064z" fill="#000" opacity=".04"/><path d="m657 507.36c-2.008-6.307-2.264-13.041-.739-19.481 1.525-6.441 4.773-12.345 9.396-17.081 4.624-4.737 10.448-8.126 16.85-9.806s13.14-1.588 19.493.268c-4.455-1.758-9.213-2.622-14.002-2.542-4.789.081-9.515 1.103-13.908 3.01-4.394 1.907-8.369 4.661-11.698 8.104-3.33 3.443-5.949 7.508-7.707 11.963s-2.622 9.213-2.542 14.002c.081 4.789 1.103 9.515 3.01 13.908 1.907 4.394 4.661 8.369 8.104 11.699 3.443 3.329 7.508 5.948 11.963 7.706-8.631-4.653-15.151-12.437-18.22-21.75z" fill="#000" opacity=".09"/><path d="m694.11 519.91-1.59-5c-5.72 1.54-9.15.52-11.31-6.27-.474-1.456-.832-2.947-1.07-4.46l7.11-2.26c.126.676.293 1.344.5 2 .94 2.95 1.67 4.55 4.55 3.63s2.81-2 1.6-5.8c-.59-1.85-.79-2.49-2.1-3.06-2.75-1.32-8.43-1-11.5-2-2.73-.83-3.93-2.84-5.83-8.79-2.18-6.85-.87-9.81 5.56-12.21l-1.26-4 4-1.28 1.26 4c6.1-1.66 8.89-.22 10.83 5.86.424 1.309.758 2.645 1 4l-7 2.24c-.171-.741-.381-1.472-.63-2.19-.85-2.69-1.67-3.92-4.36-3.06-2.3.74-2.7 1.71-1.67 4.91s1.35 3.59 3.83 3.85c2.72.34 5.25.31 7.6.61 3.33.5 5.46.52 7.56 7.12 3 9.28 2.25 13-4.63 15.79l1.61 5z" fill="#fff"/><path d="m947.69 369.966c41.615-7.735 69.08-47.741 61.34-89.355-7.73-41.615-47.737-69.079-89.352-61.344-41.614 7.735-69.078 47.741-61.343 89.356 7.735 41.614 47.741 69.078 89.355 61.343z" fill="#797979"/><path d="m947.69 369.966c41.615-7.735 69.08-47.741 61.34-89.355-7.73-41.615-47.737-69.079-89.352-61.344-41.614 7.735-69.078 47.741-61.343 89.356 7.735 41.614 47.741 69.078 89.355 61.343z" fill="#000" opacity=".2"/><path d="m999.177 297.554c3.053-42.216-28.69-78.917-70.907-81.973-42.217-3.055-78.917 28.691-81.973 70.907-3.056 42.217 28.691 78.918 70.907 81.973 42.217 3.056 78.917-28.69 81.973-70.907z" fill="#797979"/><path d="m945.771 349.032c31.486-12.696 46.719-48.512 34.023-79.997-12.696-31.486-48.512-46.719-79.997-34.023-31.486 12.695-46.719 48.511-34.023 79.997 12.695 31.486 48.511 46.718 79.997 34.023z" fill="#000" opacity=".04"/><path d="m866.62 282.37c2.549-10.854 8.001-20.81 15.775-28.803 7.773-7.992 17.574-13.719 28.352-16.568 10.779-2.85 22.13-2.713 32.837.395 10.707 3.107 20.368 9.069 27.946 17.246-4.918-6.398-11.049-11.765-18.042-15.793-6.992-4.029-14.71-6.641-22.712-7.687s-16.132-.506-23.925 1.59c-7.794 2.096-15.098 5.706-21.496 10.625s-11.764 11.049-15.793 18.042-6.641 14.71-7.687 22.712c-1.046 8.003-.505 16.132 1.591 23.926 2.095 7.793 5.706 15.097 10.624 21.495-8.441-14.189-11.115-31.077-7.47-47.18z" fill="#000" opacity=".04"/><path d="m909.41 332.62 2-8.59c-9.59-2.72-13.67-7.16-10.92-18.85.573-2.511 1.346-4.972 2.31-7.36l12.24 2.87c-.406 1.101-.74 2.226-1 3.37-1.19 5.07-1.53 8 3.43 9.18s5.82-.5 7.35-7c.75-3.2 1-4.3-.4-6.26-2.83-4.27-11.33-8.71-14.9-12.81-3.24-3.55-3.24-7.5-.83-17.75 2.77-11.8 7.23-14.94 18.61-12.85l1.6-6.82 6.94 1.63-1.6 6.83c10.26 2.87 13 7.36 10.58 17.84-.514 2.25-1.182 4.462-2 6.62l-12.13-2.85c.406-1.223.74-2.468 1-3.73 1.09-4.62 1-7.1-3.65-8.18-4-.94-5.38.13-6.68 5.64-1.35 5.73-1.15 6.36 2.21 8.89 3.64 2.84 7.32 5 10.46 7.46 4.39 3.59 7.44 5.47 4.77 16.83-3.75 16-8 20.79-20.36 18.82l-2 8.7z" fill="#fff"/><path d="m574.757 372.315c23.522-23.521 23.522-61.657 0-85.178-23.521-23.521-61.656-23.521-85.178 0-23.521 23.521-23.521 61.657 0 85.178 23.522 23.521 61.657 23.521 85.178 0z" fill="#797979"/><path d="m574.757 372.315c23.522-23.521 23.522-61.657 0-85.178-23.521-23.521-61.656-23.521-85.178 0-23.521 23.521-23.521 61.657 0 85.178 23.522 23.521 61.657 23.521 85.178 0z" fill="#000" opacity=".2"/><path d="m550.565 386.299c29.787-14.806 41.932-50.956 27.126-80.743s-50.956-41.932-80.743-27.126-41.932 50.956-27.126 80.743c14.806 29.788 50.956 41.932 80.743 27.126z" fill="#797979"/><path d="m562.094 361.691c16.228-21.179 12.214-51.502-8.964-67.73-21.179-16.227-51.503-12.214-67.73 8.965-16.228 21.179-12.214 51.502 8.965 67.73 21.178 16.227 51.502 12.214 67.729-8.965z" fill="#797979"/><path d="m562.094 361.691c16.228-21.179 12.214-51.502-8.964-67.73-21.179-16.227-51.503-12.214-67.73 8.965-16.228 21.179-12.214 51.502 8.965 67.73 21.178 16.227 51.502 12.214 67.729-8.965z" fill="#000" opacity=".04"/><path d="m481.89 348.26c-2.611-8.364-2.898-17.28-.832-25.795 2.067-8.514 6.41-16.307 12.564-22.543 6.154-6.237 13.888-10.682 22.375-12.862 8.486-2.179 17.405-2.01 25.803.49-5.886-2.364-12.181-3.545-18.524-3.476-6.343.068-12.61 1.386-18.444 3.877s-11.12 6.106-15.556 10.64c-4.437 4.534-7.937 9.897-10.301 15.784-2.364 5.886-3.545 12.181-3.476 18.524s1.386 12.61 3.877 18.444 6.107 11.12 10.641 15.556c4.533 4.437 9.897 7.937 15.783 10.301-11.377-6.237-19.936-16.592-23.92-28.94z" fill="#000" opacity=".04"/><path d="m530.94 365.16-2.07-6.62c-7.58 2-12.12.61-14.93-8.39-.612-1.931-1.074-3.907-1.38-5.91l9.44-2.94c.163.906.38 1.801.65 2.68 1.22 3.91 2.17 6 6 4.84s3.74-2.66 2.17-7.67c-.77-2.46-1-3.31-2.76-4.07-3.63-1.76-11.15-1.37-15.21-2.71-3.61-1.11-5.19-3.79-7.66-11.69-2.84-9.09-1.07-13 7.46-16.13l-1.65-5.25 5.35-1.68 1.64 5.26c8.09-2.15 11.77-.22 14.29 7.84.549 1.732.976 3.499 1.28 5.29l-9.34 2.92c-.223-.983-.497-1.955-.82-2.91-1.12-3.57-2.18-5.19-5.75-4.08-3.06.95-3.59 2.24-2.26 6.49 1.38 4.41 1.77 4.76 5 5.13 3.59.46 6.94.44 10.06.87 4.41.67 7.22.72 10 9.47 3.85 12.32 2.89 17.28-6.25 20.88l2.1 6.71z" fill="#fff"/><path d="m633.678 557.195-337.139-.823c-4.352-.011-7.889 3.508-7.9 7.86l-1.167 477.928c-.011 4.35 3.508 7.89 7.86 7.9l337.139.82c4.352.01 7.889-3.5 7.9-7.86l1.167-477.925c.011-4.352-3.508-7.889-7.86-7.9z" fill="#797979"/><path d="m633.678 557.195-337.139-.823c-4.352-.011-7.889 3.508-7.9 7.86l-1.167 477.928c-.011 4.35 3.508 7.89 7.86 7.9l337.139.82c4.352.01 7.889-3.5 7.9-7.86l1.167-477.925c.011-4.352-3.508-7.889-7.86-7.9z" fill="#fff" opacity=".3"/><path d="m626.158 557.167-337.139-.824c-4.352-.01-7.889 3.509-7.9 7.861l-1.167 477.926c-.011 4.35 3.508 7.89 7.86 7.9l337.139.83c4.352.01 7.889-3.51 7.9-7.87l1.167-477.924c.011-4.352-3.508-7.888-7.86-7.899z" fill="#797979"/><path d="m626.158 557.167-337.139-.824c-4.352-.01-7.889 3.509-7.9 7.861l-1.167 477.926c-.011 4.35 3.508 7.89 7.86 7.9l337.139.83c4.352.01 7.889-3.51 7.9-7.87l1.167-477.924c.011-4.352-3.508-7.888-7.86-7.899z" fill="#fff" opacity=".7"/><path d="m586.151 625.24-253.569-.619-.159 65.249 253.569.62z" fill="#797979"/><path d="m586.151 625.24-253.569-.619-.159 65.249 253.569.62z" fill="#fff" opacity=".85"/><path d="m339.33 634.01 246.84.59.02-9.4-253.57-.6-.15 65.25 6.72.01z" fill="#797979"/><path d="m339.33 634.01 246.84.59.02-9.4-253.57-.6-.15 65.25 6.72.01z" fill="#000" opacity=".2"/><path d="m400.948 708.648-64.38-.158c-2.314-.005-4.195 1.866-4.2 4.18l-.037 15.13c-.006 2.314 1.865 4.195 4.179 4.2l64.38.157c2.314.006 4.195-1.865 4.2-4.179l.037-15.13c.006-2.314-1.865-4.195-4.179-4.2z" fill="#797979"/><path d="m491.357 708.868-64.38-.157c-2.314-.005-4.194 1.866-4.2 4.18l-.037 15.13c-.006 2.314 1.866 4.194 4.18 4.2l64.379.157c2.315.006 4.195-1.865 4.201-4.179l.037-15.13c.005-2.314-1.866-4.195-4.18-4.201z" fill="#797979"/><path d="m583.49 707.67h-64.38c-2.314 0-4.19 1.876-4.19 4.19v15.13c0 2.314 1.876 4.19 4.19 4.19h64.38c2.314 0 4.19-1.876 4.19-4.19v-15.13c0-2.314-1.876-4.19-4.19-4.19z" fill="#797979"/><path d="m400.948 708.648-64.38-.158c-2.314-.005-4.195 1.866-4.2 4.18l-.037 15.13c-.006 2.314 1.865 4.195 4.179 4.2l64.38.157c2.314.006 4.195-1.865 4.2-4.179l.037-15.13c.006-2.314-1.865-4.195-4.179-4.2z" fill="#fff" opacity=".2"/><path d="m491.357 708.868-64.38-.157c-2.314-.005-4.194 1.866-4.2 4.18l-.037 15.13c-.006 2.314 1.866 4.194 4.18 4.2l64.379.157c2.315.006 4.195-1.865 4.201-4.179l.037-15.13c.005-2.314-1.866-4.195-4.18-4.201z" fill="#fff" opacity=".2"/><path d="m583.49 707.67h-64.38c-2.314 0-4.19 1.876-4.19 4.19v15.13c0 2.314 1.876 4.19 4.19 4.19h64.38c2.314 0 4.19-1.876 4.19-4.19v-15.13c0-2.314-1.876-4.19-4.19-4.19z" fill="#fff" opacity=".2"/><path d="m386.265 750.732-51.67-.127c-1.281-.003-2.323 1.033-2.326 2.315l-.117 48.059c-.003 1.282 1.033 2.323 2.314 2.326l51.67.126c1.281.003 2.322-1.033 2.326-2.314l.117-48.06c.003-1.281-1.033-2.322-2.314-2.325z" fill="#797979"/><path d="m386.265 750.732-51.67-.127c-1.281-.003-2.323 1.033-2.326 2.315l-.117 48.059c-.003 1.282 1.033 2.323 2.314 2.326l51.67.126c1.281.003 2.322-1.033 2.326-2.314l.117-48.06c.003-1.281-1.033-2.322-2.314-2.325z" fill="#fff" opacity=".4"/><path d="m452.014 750.892-51.67-.126c-1.281-.003-2.322 1.033-2.325 2.314l-.118 48.06c-.003 1.281 1.033 2.323 2.315 2.326l51.669.126c1.282.003 2.323-1.033 2.326-2.314l.118-48.06c.003-1.281-1.033-2.323-2.315-2.326z" fill="#797979"/><path d="m452.014 750.892-51.67-.126c-1.281-.003-2.322 1.033-2.325 2.314l-.118 48.06c-.003 1.281 1.033 2.323 2.315 2.326l51.669.126c1.282.003 2.323-1.033 2.326-2.314l.118-48.06c.003-1.281-1.033-2.323-2.315-2.326z" fill="#fff" opacity=".4"/><path d="m517.774 751.053-51.67-.126c-1.282-.004-2.323 1.033-2.326 2.314l-.117 48.06c-.004 1.281 1.033 2.322 2.314 2.325l51.67.127c1.281.003 2.322-1.033 2.325-2.315l.118-48.06c.003-1.281-1.033-2.322-2.314-2.325z" fill="#797979"/><path d="m517.774 751.053-51.67-.126c-1.282-.004-2.323 1.033-2.326 2.314l-.117 48.06c-.004 1.281 1.033 2.322 2.314 2.325l51.67.127c1.281.003 2.322-1.033 2.325-2.315l.118-48.06c.003-1.281-1.033-2.322-2.314-2.325z" fill="#fff" opacity=".4"/><path d="m386.106 815.691-51.67-.126c-1.281-.003-2.322 1.033-2.325 2.314l-.118 48.06c-.003 1.281 1.033 2.322 2.314 2.326l51.67.126c1.282.003 2.323-1.033 2.326-2.314l.117-48.06c.004-1.282-1.033-2.323-2.314-2.326z" fill="#797979"/><path d="m386.106 815.691-51.67-.126c-1.281-.003-2.322 1.033-2.325 2.314l-.118 48.06c-.003 1.281 1.033 2.322 2.314 2.326l51.67.126c1.282.003 2.323-1.033 2.326-2.314l.117-48.06c.004-1.282-1.033-2.323-2.314-2.326z" fill="#fff" opacity=".4"/><path d="m451.865 815.862-51.67-.127c-1.281-.003-2.322 1.033-2.325 2.315l-.118 48.06c-.003 1.281 1.033 2.322 2.315 2.325l51.67.126c1.281.004 2.322-1.033 2.325-2.314l.118-48.06c.003-1.281-1.033-2.322-2.315-2.325z" fill="#797979"/><path d="m451.865 815.862-51.67-.127c-1.281-.003-2.322 1.033-2.325 2.315l-.118 48.06c-.003 1.281 1.033 2.322 2.315 2.325l51.67.126c1.281.004 2.322-1.033 2.325-2.314l.118-48.06c.003-1.281-1.033-2.322-2.315-2.325z" fill="#fff" opacity=".4"/><path d="m517.615 816.022-51.67-.126c-1.281-.003-2.323 1.033-2.326 2.314l-.117 48.06c-.003 1.282 1.033 2.323 2.314 2.326l51.67.126c1.281.003 2.323-1.033 2.326-2.314l.117-48.06c.003-1.281-1.033-2.323-2.314-2.326z" fill="#797979"/><path d="m517.615 816.022-51.67-.126c-1.281-.003-2.323 1.033-2.326 2.314l-.117 48.06c-.003 1.282 1.033 2.323 2.314 2.326l51.67.126c1.281.003 2.323-1.033 2.326-2.314l.117-48.06c.003-1.281-1.033-2.323-2.314-2.326z" fill="#fff" opacity=".4"/><path d="m575 751.92-33.37-.08c-3.041-.005-5.96 1.196-8.116 3.341s-3.373 5.058-3.384 8.099v16.31 13.45l-.15 65c-.005 1.507.287 3 .859 4.393.572 1.394 1.414 2.661 2.476 3.729 1.063 1.068 2.326 1.917 3.716 2.496 1.391.58 2.882.879 4.389.882l33.37.08c1.506.004 2.998-.289 4.39-.862 1.393-.573 2.659-1.414 3.726-2.477 1.067-1.062 1.914-2.325 2.493-3.715s.878-2.88.881-4.386l.16-65v-13.44-16.31c.007-1.507-.284-3.001-.856-4.396s-1.413-2.663-2.476-3.733c-1.062-1.069-2.326-1.918-3.717-2.498s-2.883-.88-4.391-.883z" fill="#797979"/><path d="m575 751.92-33.37-.08c-3.041-.005-5.96 1.196-8.116 3.341s-3.373 5.058-3.384 8.099v16.31 13.45l-.15 65c-.005 1.507.287 3 .859 4.393.572 1.394 1.414 2.661 2.476 3.729 1.063 1.068 2.326 1.917 3.716 2.496 1.391.58 2.882.879 4.389.882l33.37.08c1.506.004 2.998-.289 4.39-.862 1.393-.573 2.659-1.414 3.726-2.477 1.067-1.062 1.914-2.325 2.493-3.715s.878-2.88.881-4.386l.16-65v-13.44-16.31c.007-1.507-.284-3.001-.856-4.396s-1.413-2.663-2.476-3.733c-1.062-1.069-2.326-1.918-3.717-2.498s-2.883-.88-4.391-.883z" fill="#fff" opacity=".4"/><path d="m385.947 880.66-51.67-.126c-1.281-.003-2.322 1.033-2.325 2.315l-.118 48.059c-.003 1.282 1.033 2.323 2.315 2.326l51.67.126c1.281.003 2.322-1.033 2.325-2.314l.118-48.06c.003-1.281-1.033-2.322-2.315-2.326z" fill="#797979"/><path d="m385.947 880.66-51.67-.126c-1.281-.003-2.322 1.033-2.325 2.315l-.118 48.059c-.003 1.282 1.033 2.323 2.315 2.326l51.67.126c1.281.003 2.322-1.033 2.325-2.314l.118-48.06c.003-1.281-1.033-2.322-2.315-2.326z" fill="#fff" opacity=".4"/><path d="m451.697 880.831-51.67-.126c-1.281-.003-2.323 1.033-2.326 2.314l-.117 48.06c-.003 1.281 1.033 2.323 2.314 2.326l51.67.126c1.281.003 2.323-1.033 2.326-2.314l.117-48.06c.003-1.281-1.033-2.323-2.314-2.326z" fill="#797979"/><path d="m451.697 880.831-51.67-.126c-1.281-.003-2.323 1.033-2.326 2.314l-.117 48.06c-.003 1.281 1.033 2.323 2.314 2.326l51.67.126c1.281.003 2.323-1.033 2.326-2.314l.117-48.06c.003-1.281-1.033-2.323-2.314-2.326z" fill="#fff" opacity=".4"/><path d="m517.456 880.982-51.67-.126c-1.281-.004-2.322 1.033-2.325 2.314l-.118 48.06c-.003 1.281 1.033 2.322 2.315 2.325l51.669.127c1.282.003 2.323-1.033 2.326-2.315l.118-48.06c.003-1.281-1.034-2.322-2.315-2.325z" fill="#797979"/><path d="m517.456 880.982-51.67-.126c-1.281-.004-2.322 1.033-2.325 2.314l-.118 48.06c-.003 1.281 1.033 2.322 2.315 2.325l51.669.127c1.282.003 2.323-1.033 2.326-2.315l.118-48.06c.003-1.281-1.034-2.322-2.315-2.325z" fill="#fff" opacity=".4"/><path d="m583.206 881.142-51.67-.126c-1.281-.003-2.323 1.033-2.326 2.314l-.117 48.06c-.003 1.282 1.033 2.323 2.314 2.326l51.67.126c1.281.003 2.322-1.033 2.326-2.314l.117-48.06c.003-1.281-1.033-2.322-2.314-2.326z" fill="#797979"/><path d="m583.206 881.142-51.67-.126c-1.281-.003-2.323 1.033-2.326 2.314l-.117 48.06c-.003 1.282 1.033 2.323 2.314 2.326l51.67.126c1.281.003 2.322-1.033 2.326-2.314l.117-48.06c.003-1.281-1.033-2.322-2.314-2.326z" fill="#fff" opacity=".4"/><path d="m385.789 945.64-51.67-.127c-1.281-.003-2.323 1.034-2.326 2.315l-.117 48.06c-.003 1.281 1.033 2.322 2.314 2.325l51.67.127c1.281.003 2.322-1.033 2.326-2.315l.117-48.06c.003-1.281-1.033-2.322-2.314-2.325z" fill="#797979"/><path d="m385.789 945.64-51.67-.127c-1.281-.003-2.323 1.034-2.326 2.315l-.117 48.06c-.003 1.281 1.033 2.322 2.314 2.325l51.67.127c1.281.003 2.322-1.033 2.326-2.315l.117-48.06c.003-1.281-1.033-2.322-2.314-2.325z" fill="#fff" opacity=".4"/><path d="m451.548 945.791-51.67-.127c-1.281-.003-2.322 1.033-2.326 2.315l-.117 48.06c-.003 1.281 1.033 2.322 2.314 2.325l51.67.126c1.281.004 2.323-1.033 2.326-2.314l.117-48.06c.003-1.281-1.033-2.322-2.314-2.325z" fill="#797979"/><path d="m451.548 945.791-51.67-.127c-1.281-.003-2.322 1.033-2.326 2.315l-.117 48.06c-.003 1.281 1.033 2.322 2.314 2.325l51.67.126c1.281.004 2.323-1.033 2.326-2.314l.117-48.06c.003-1.281-1.033-2.322-2.314-2.325z" fill="#fff" opacity=".4"/><path d="m517.297 945.951-51.669-.126c-1.282-.003-2.323 1.033-2.326 2.314l-.117 48.06c-.004 1.281 1.033 2.323 2.314 2.326l51.67.126c1.281.003 2.322-1.033 2.325-2.314l.118-48.06c.003-1.281-1.033-2.323-2.315-2.326z" fill="#797979"/><path d="m517.297 945.951-51.669-.126c-1.282-.003-2.323 1.033-2.326 2.314l-.117 48.06c-.004 1.281 1.033 2.323 2.314 2.326l51.67.126c1.281.003 2.322-1.033 2.325-2.314l.118-48.06c.003-1.281-1.033-2.323-2.315-2.326z" fill="#fff" opacity=".4"/><path d="m583.057 946.122-51.67-.126c-1.281-.003-2.323 1.033-2.326 2.314l-.117 48.06c-.003 1.281 1.033 2.322 2.314 2.325l51.67.127c1.281.003 2.322-1.033 2.326-2.315l.117-48.059c.003-1.282-1.033-2.323-2.314-2.326z" fill="#797979"/><g fill="#fff"><path d="m583.057 946.122-51.67-.126c-1.281-.003-2.323 1.033-2.326 2.314l-.117 48.06c-.003 1.281 1.033 2.322 2.314 2.325l51.67.127c1.281.003 2.322-1.033 2.326-2.315l.117-48.059c.003-1.282-1.033-2.323-2.314-2.326z" opacity=".2"/><path d="m369.77 893.11v2.66l-13.07 27.16-4.18-.01 13.02-26.38v-.09l-14.6-.04v-3.35z"/><path d="m430.15 907.21v-.14c3.68-1.74 4.92-4.44 4.93-7 0-3.72-2.88-7.36-8.67-7.37-5.23 0-9.24 3.19-9.25 7.93 0 2.57 1.41 5.14 4.72 6.71v.14c-3.67 1.55-5.93 4.21-5.94 8 0 4.36 3.75 8.09 10 8.11 5.7 0 10.16-3.47 10.18-8.66.03-3.62-2.26-6.24-5.97-7.72zm-9.15-6.82c0-2.57 1.85-4.77 5.2-4.77.66-.051 1.323.04 1.946.266.622.226 1.189.583 1.662 1.046s.843 1.021 1.083 1.638c.24.618.345 1.279.309 1.94 0 2.71-2 4.54-4.56 5.4-3.42-.91-5.64-2.54-5.64-5.52zm5.09 20.27c-3.81 0-6.1-2.68-6-5.71 0-2.85 1.9-5.14 5.39-6.14 4 1.15 6.57 2.9 6.56 6.53.01 3.08-2.34 5.33-5.97 5.32z"/><path d="m426.22 956.9c-6.07 0-10.4 5.49-10.42 15.5s4 15.35 9.84 15.36c6.61 0 10.39-5.58 10.41-15.73.03-9.5-3.54-15.12-9.83-15.13zm-.35 27.74c-3.67 0-6.05-4.42-6-12.19 0-8.13 2.6-12.44 6.14-12.43 4.18 0 6 4.84 6 12.19-.01 7.62-2.01 12.44-6.14 12.43z"/><path d="m493.11 892.89c-6.11 0-10.21 4.94-10.22 10.59 0 5.09 3.42 9.14 8.8 9.16 1.333.034 2.657-.236 3.87-.791 1.213-.554 2.283-1.378 3.13-2.409h.14c-.37 3.031-1.784 5.839-4 7.94-1.731 1.587-3.917 2.591-6.25 2.87-1.079.154-2.172.198-3.26.13v3.31c1.244.053 2.491-.021 3.72-.22 3.257-.344 6.311-1.75 8.69-4 3-2.84 5.16-7.43 5.18-14 .09-7.6-3.69-12.57-9.8-12.58zm5.39 13.56c-.624.988-1.496 1.796-2.53 2.342-1.033.545-2.192.81-3.36.768-3.49 0-5.73-2.63-5.72-6.35 0-4.23 2.45-7.25 5.89-7.24 4.23 0 6.1 3.92 6.09 9 .026.519-.103 1.034-.37 1.48z"/><path d="m366.81 845.41.05-18.55h-4.37l-13.36 19v2.66h13.87v8.13h3.81v-8.13h4.19v-3.17zm-3.79-10v10h-9.78v-.09l7.32-10.14c.83-1.37 1.57-2.66 2.49-4.4h.14c-.11 1.53-.19 3.09-.19 4.66z"/><path d="m434.37 830.42h-11.39l-1.17 7.67c.808-.121 1.623-.181 2.44-.18 2.247-.038 4.463.525 6.42 1.63 1.342.771 2.448 1.894 3.199 3.247.751 1.354 1.117 2.886 1.061 4.433 0 5.83-4.67 10.18-11.14 10.17-2.601.051-5.169-.591-7.44-1.86l1-3.07c1.954 1.08 4.147 1.654 6.38 1.67 3.81 0 7.08-2.47 7.09-6.46s-2.6-6.62-8.57-6.64c-1.385.015-2.768.119-4.14.31l2-14.32h14.29z"/><path d="m494.21 837.36c-1.387-.034-2.763.258-4.016.852-1.254.594-2.351 1.474-3.204 2.568h-.14c.32-2.667 1.516-5.152 3.4-7.066 1.883-1.915 4.349-3.15 7.01-3.514.991-.164 1.996-.224 3-.18v-3.31c-.984.004-1.967.08-2.94.23-3.586.362-6.952 1.903-9.57 4.38-2.94 2.94-5.07 7.57-5.08 13.45 0 7.76 4.15 12.73 10.53 12.75 6.2 0 9.94-5 9.95-10.5.05-5.83-3.66-9.65-8.94-9.66zm-1 17c-4.23 0-6.47-3.64-6.55-8.55-.014-.629.149-1.249.47-1.79.541-1.08 1.365-1.992 2.386-2.639 1.02-.646 2.197-1.003 3.404-1.031 3.72 0 6.15 2.59 6.14 6.86s-2.32 7.19-5.81 7.18z"/><path d="m359.46 767.13h-.09l-5.19 2.79-.78-3.08 6.53-3.47h3.45l-.07 29.86-3.91-.01z"/><path d="m416.64 793.36v-2.48l3.18-3.07c7.64-7.24 11.1-11.09 11.15-15.59 0-3-1.45-5.84-5.91-5.85-2.34.077-4.581.964-6.34 2.51l-1.28-2.88c2.378-1.967 5.375-3.029 8.46-3 6.43 0 9.13 4.43 9.12 8.7 0 5.51-4 10-10.33 16l-2.39 2.2v.1h13.41v3.35z"/><path d="m484.31 788.88c2.003 1.192 4.28 1.846 6.61 1.9 5.19 0 6.81-3.29 6.77-5.77 0-4.18-3.8-6-7.71-6h-2.25v-3h2.27c2.94 0 6.66-1.5 6.67-5 0-2.39-1.5-4.51-5.22-4.52-2.152.065-4.239.76-6 2l-1-2.95c2.33-1.502 5.048-2.291 7.82-2.27 5.88 0 8.53 3.51 8.52 7.14 0 3.07-1.85 5.69-5.53 7v.09c3.68.75 6.66 3.51 6.65 7.69 0 4.78-3.75 8.95-10.91 8.93-2.719.039-5.399-.651-7.76-2z"/><path d="m363.52 983.18c-.002.712-.215 1.408-.612 1.998-.398.591-.961 1.051-1.62 1.322-.658.27-1.382.34-2.08.199s-1.339-.486-1.841-.99c-.502-.505-.843-1.148-.98-1.846-.137-.699-.064-1.423.211-2.08.274-.657.737-1.218 1.33-1.612s1.29-.603 2.002-.601c.473 0 .941.094 1.378.275.437.182.834.448 1.167.784.334.335.598.733.777 1.171.18.438.27.907.268 1.38z"/><path d="m578.98 811.9-18.95-.04.04-18.96-4.87-.01-.05 18.95-18.95-.04-.01 4.87 18.95.05-.04 18.95 4.87.01.05-18.95 18.95.04z"/><path d="m504.04 983.46-10.01-10.06 10.06-10.01-2.57-2.59-10.06 10.01-10.01-10.06-2.59 2.58 10.01 10.06-10.06 10.01 2.58 2.58 10.06-10.01 10.01 10.06z"/><path d="m572.014 906.435-31.74-.078-.012 4.86 31.74.078z"/><path d="m573.047 962.618-31.74-.078-.012 4.86 31.74.078z"/><path d="m573.016 974.847-31.74-.077-.012 4.86 31.74.077z"/></g><path d="m512.06 479.05c4-2.69-4.3-7.07-9.42-6.4-20.44 2.63-24.85-6.22-15.33-5.15 7.59.85 7.41-4 7.17-4.75s-2.73-.8-7.91-1.55c-2-.29-23.11-.7-34.27 10.39l-.3 5.28 7.76 20.55c3.89-2.7 12-8.4 16.35-11.17 22.16 3.2 31.53-4.25 35.95-7.2z" fill="#fc9d9d"/><path d="m324.85 476.59c-.03.304.048.608.22.86l42.26 62.36c1.322 1.957 3.025 3.627 5.008 4.91s4.204 2.153 6.531 2.557c2.326.405 4.711.335 7.01-.204 2.3-.539 4.466-1.537 6.371-2.933l73.3-50.73c.234-.164.409-.401.497-.673.089-.272.086-.566-.007-.837l-8.1-23.3c-.064-.183-.167-.349-.303-.487-.135-.139-.299-.245-.481-.313-.181-.068-.375-.095-.568-.079-.193.015-.38.073-.548.169l-62.19 35.54c-.275.154-.596.206-.906.145-.309-.06-.587-.229-.784-.475l-60.59-77.36c-.164-.207-.386-.36-.638-.44-.251-.079-.521-.082-.774-.006-.253.075-.478.225-.645.429s-.269.454-.293.717z" fill="#70dab9"/><path d="m321.33 417.91-30-10.64 28.67 70.92c4.736 11.702 7.242 24.187 7.39 36.81l.83 73 17.58 6-9.31-151.1c.41-11.61-4.7-20.03-15.16-24.99z" fill="#70dab9"/><path d="m203.39 1036.96h27.67l5.12-46.82-32.69.1z" fill="#797979"/><path d="m203.44 1003.87v3.81h21.71c.723 0 1.437.15 2.096.45.66.29 1.25.72 1.732 1.26s.846 1.17 1.067 1.86.294 1.41.215 2.13l-1.82 16.62h3.39l2.87-26.14z" fill="#000" opacity=".15"/><path d="m206.25 1019.2.84-.73c6.26-5.44 17.07-5.37 23.16.25l.46.47c.738.64 1.333 1.43 1.748 2.31s.641 1.84.662 2.82v3c-.017 1.78.292 3.54.91 5.21l2.86 8.25c.74 1.99 1.116 4.1 1.11 6.22v1c0 1.6-1.66 2.87-3.6 2.87h-33.13c-2 0-3.6-1.28-3.6-2.87v-.41c.009-2.44.48-4.86 1.39-7.13l3.32-8.08c.767-1.83 1.175-3.79 1.2-5.77l.09-2.32c.161-1.97 1.088-3.8 2.58-5.09z" fill="#ffb7a1"/><path d="m311.21 1004.17 1.84 27.21 53.93 2.5-17.93-18.09c-3.42-2.46-5.52-7.84-6.21-11.94z" fill="#797979"/><path d="m330.48 1008.71c2.477 0 4.907.67 7.024 1.96s3.839 3.13 4.976 5.33c.883 1.78 2.154 3.33 3.72 4.55l12.85 13 7.94.37-17.93-18.09c-3.42-2.46-5.52-7.84-6.21-11.94l-31.63.32.32 4.73z" fill="#000" opacity=".15"/><path d="m312 1019.87s12.21 7.63 25.94 1c-.275-1.42-.165-2.88.321-4.24s1.328-2.57 2.439-3.49c2.27-1.79 6.9-2.37 8.15-.72s3.21 4.38 6.49 8.37c4.55 5.48 10.71 11.82 15.47 12.82 8.74 1.83 26.39-7.09 27.61 11.58 0 0-17.24 6.48-33.29 4.86-10.459-1.22-20.738-3.67-30.62-7.31v7.49h-25s-5.67-21.01 2.49-30.36z" fill="#ffb7a1"/><path d="m307.68 1038.35c.242 4.05.858 8.07 1.84 12h25v-7.5c9.881 3.65 20.159 6.1 30.62 7.32 16 1.62 33.28-4.86 33.28-4.86-.085-1.44-.309-2.87-.67-4.27-12.544 6.37-27.052 7.69-40.54 3.69-9.16-2.67-16.55-4.51-23-6.36-.06-.08-21.53-.54-26.53-.02z" fill="#000"/><path d="m369.55 1033.45s-13.72 4.76-23.25-2.53c-7-5.39-10.63-8.53-7.78-15 1.71-4.24 6.34-4.61 8.68-4.51.413.02.817.13 1.178.33.362.2.67.49.902.83 2.41 3.61 10.98 15.71 20.27 20.88z" fill="#000"/><path d="m203.86 620.3 130.24 2.1 12.44 382.37h-36.14l-33.4-313.53c-.107-.967-.563-1.863-1.283-2.518-.719-.656-1.653-1.026-2.627-1.042-.994-.024-1.96.33-2.702.991-.743.661-1.207 1.579-1.298 2.569l-31.4 313.53h-36.18z" fill="#70dab9"/><path d="m203.86 620.3 130.24 2.1 12.44 382.37h-36.14l-33.4-313.53c-.107-.967-.563-1.863-1.283-2.518-.719-.656-1.653-1.026-2.627-1.042-.994-.024-1.96.33-2.702.991-.743.661-1.207 1.579-1.298 2.569l-31.4 313.53h-36.18z" fill="#000" opacity=".2"/><path d="m200.46 996.95h39.41l-.72 7.82h-38.81z" fill="#70dab9"/><path d="m200.2 996.95h39.41l-.71 7.82h-38.82z" fill="#000" opacity=".2"/><path d="m225.36 996.95h14.15l-.68 7.82-14.08-.12z" fill="#000" opacity=".2"/><path d="m341.75 996.86-19.27-360.31h11.94l11.81 360.31z" fill="#000" opacity=".2"/><path d="m225.12 996.86 26-292.44c1.2-9.55 9.68-16.71 19.64-16.71h2.67c-1.011-.013-1.991.352-2.748 1.023-.756.672-1.235 1.601-1.342 2.607l-31 305.52z" fill="#000" opacity=".2"/><path d="m346.67 996.86h-37.79l1 7.91h37.24z" fill="#70dab9"/><path d="m346.8 996.86h-4.62l.49 7.91h4.45z" fill="#70dab9" opacity=".3"/><path d="m346.41 996.86h-37.79l1 7.91h37.25z" fill="#000" opacity=".2"/><path d="m346.54 996.86h-4.62l.49 7.91h4.46z" fill="#000" opacity=".2"/><path d="m334.43 621.71h-123.67v14.85h123.67z" fill="#000"/><path d="m253.48 621.71h-3.29v14.85h3.29z" fill="#70dab9"/><path d="m253.48 621.71h-3.29v14.85h3.29z" fill="#000" opacity=".2"/><path d="m304.69 621.71h-29.7v14.85h29.7z" fill="#ffb7a1"/><path d="m304.69 621.71h-29.7v14.85h29.7z" fill="#fff" opacity=".2"/><path d="m346.56 685.11 1-89s-3.31-59.07-2-69.08-2-35.36-8-44.37c-2-4.34-4-46.53-12.33-54.12s-33.38-23.48-33.38-23.48l13.33 210 27.91 84.47s13.47-6.43 13.47-14.42z" fill="#70dab9"/><path d="m332.05 426.49c-3.69-9.44-31.24-12.46-35.12-19.29v2.09c7.52 6.42 22.65 13.39 27.34 19.3 6.71 8.46 8.64 50.69 12.33 54.12 3.59 19.76 6.6 47.74 5.26 57.74s.78 46.27 4 57.29l.76-7c-1.68-11.71-2.11-43.22-1.76-66.26.16-9.94-1.38-12.37-1.82-22-1.04-21.28-3.22-68.72-10.99-75.99z" fill="#000" opacity=".15"/><path d="m238.55 618.26s48.66 10.12 57.8 9.24c6.68-.64 9.87-.1 14.61-5.31 6.77-7.44 2.26-14 2.26-14l9.29-123.16-27.16-78.61s-19.52-5.88-18.82-5.88-56.26 14.77-54.86 15.47 16.88 202.25 16.88 202.25z" fill="#fff"/><path d="m283.69 418.3-14.9 23.59-14.91-20.36-17.85-28.83 1.81-2.09 17.04 24.92 13.91 20.36 13.13-19.02z" fill="#000" opacity=".15"/><path d="m230.6 401.37c-1.94 0-29.43 9.72-46.34 15.77-3.557 1.272-6.497 3.849-8.224 7.208s-2.111 7.25-1.076 10.882l32.35 113.88-46.31 135.94c-.409 1.201-.574 2.472-.487 3.737.087 1.266.425 2.502.995 3.635.57 1.134 1.359 2.143 2.323 2.968.963.826 2.081 1.451 3.289 1.84l20.2 6.52c4.04 1.301 8.405 1.165 12.356-.384s7.245-4.416 9.324-8.116l30.22-60.82c23.2-25 47.47-71 47.47-103 .04-75.17-56.09-130.06-56.09-130.06z" fill="#70dab9"/><path d="m201.67 670.96 11.29 23.29 14.11-35.29z" fill="#fc9d9d"/><path d="m176.35 423.8-31.06 113.2c-4.4 20.811-1.82 42.492 7.34 61.69l41 85.82 40.54-23.44-40.18-89 32.3-148.26" fill="#70dab9"/><path d="m194 572.06 14.41-66.14c.122-.596.06-1.216-.179-1.776-.238-.56-.641-1.034-1.155-1.359-.515-.326-1.116-.487-1.724-.463s-1.195.233-1.682.598h1c-.564.431-.957 1.047-1.11 1.74l-14.89 68.64 41.23 90.2 4.23-2.42z" fill="#000" opacity=".15"/><path d="m228.35 419.58 8.44-3.05-15-5.63 4.91-7.5 11.13-12.79 17 24.91c10.83 21 25.12 58.92 31.48 105.33z" fill="#70dab9"/><path d="m292.07 338.21s-43.91-27.55-45.64 6.14l-.64 8.72-3 44.12c-.025 1.221.399 2.41 1.19 3.34l30.48 17.33c.76.54 7.87 2 8.52 1.5l7.71-17.65c.629-.536 1.115-1.219 1.415-1.988.3-.77.405-1.602.305-2.422l-2.8-26.15c.588-2.541.877-5.142.86-7.75.41-13.24 1.6-25.19 1.6-25.19z" fill="#fc9d9d"/><path d="m294.21 340.26c9.041 0 16.37-7.329 16.37-16.37s-7.329-16.37-16.37-16.37-16.37 7.329-16.37 16.37 7.329 16.37 16.37 16.37z" fill="#000"/><path d="m297 314.43s15.6 65.44-18 69.85c-29.06 3.87-32.28-41.44-32.28-41.44l1.4-29.38z" fill="#fc9d9d"/><path d="m285.59 287.1c-9 0-17 3.79-21.42 9.47-1.117 1.374-2.578 2.426-4.235 3.05-1.657.623-3.449.796-5.195.5-1.064-.038-2.129-.011-3.19.08-29.1 2-25 45.54 1.34 42 5.56-.75 10.53-4.68 13.33-10.93.914-2.066 2.54-3.734 4.581-4.702 2.041-.967 4.362-1.169 6.539-.568 2.687.743 5.463 1.116 8.25 1.11 13.92 0 25.2-8.95 25.2-20s-11.28-20.01-25.2-20.01z" fill="#000"/><path d="m245.61 355.25s2.8.22 4.31-1l-4.74 7.32z" fill="#000" opacity=".15"/><path d="m291.74 389.55-1.07-10.55c-2.8 2.91-10.87 7.11-20 4.95-4.586-1.132-8.694-3.691-11.73-7.31-.055-.078-.125-.143-.207-.192-.082-.048-.173-.079-.268-.089s-.19-.001-.281.029c-.09.029-.174.078-.244.142-.075.057-.138.128-.185.21s-.076.173-.086.266c-.011.094-.002.189.026.279s.074.173.135.245c3.95 4.6 9.48 7.554 15.5 8.28 2.66 1.829 5.661 3.104 8.824 3.746 3.163.643 6.424.641 9.586-.006z" fill="#000" opacity=".15"/><path d="m278.94 372.22c0 .11-.11.11 0 0l-4.09.33c-.244.002-.481-.085-.665-.246-.184-.16-.303-.382-.335-.624-.019-.124-.01-.25.024-.371.035-.12.095-.231.177-.326.081-.095.183-.171.296-.224.114-.052.238-.079.363-.079l4-.33c.116-.018.234-.013.348.016.114.028.221.08.314.151.094.071.172.16.23.262s.095.214.108.331c-.02.68-.34 1.11-.77 1.11z" fill="#000" opacity=".2"/><path d="m280.44 368.35c-7.31 1.07-10.65-2.91-11.83-4.84-.069-.099-.116-.211-.139-.329-.024-.118-.022-.239.004-.357.026-.117.076-.228.147-.325s.162-.178.266-.239c.104-.06.219-.098.339-.112.119-.013.24-.002.355.034s.221.095.312.174.165.175.216.284c1.08 1.94 4.74 6.14 13.56 3.23.214-.04.436-.009.631.089.195.097.353.256.449.451.04.214.009.436-.088.631-.098.195-.256.352-.452.449-1.227.404-2.489.692-3.77.86z" fill="#000" opacity=".2"/><path d="m270.04 348.97c1.486 0 2.69-1.204 2.69-2.69s-1.204-2.69-2.69-2.69-2.69 1.204-2.69 2.69 1.204 2.69 2.69 2.69z" fill="#000"/><path d="m271.22 347.96c.298 0 .54-.242.54-.54s-.242-.54-.54-.54-.54.242-.54.54.242.54.54.54z" fill="#fff"/><path d="m291.35 349.08c1.486 0 2.69-1.204 2.69-2.69 0-1.485-1.204-2.69-2.69-2.69-1.485 0-2.69 1.205-2.69 2.69 0 1.486 1.205 2.69 2.69 2.69z" fill="#000"/><path d="m292.53 348.07c.298 0 .54-.242.54-.54s-.242-.54-.54-.54-.54.242-.54.54.242.54.54.54z" fill="#fff"/><path d="m279.8 360.49-3.55.22c-.208-.01-.407-.091-.563-.229s-.261-.325-.297-.531c.008-.207.087-.406.224-.562.136-.156.322-.261.526-.298l3.55-.21c.415-.045.796-.249 1.064-.569.269-.319.403-.73.376-1.146-.027-.417-.214-.806-.521-1.089-.307-.282-.712-.434-1.129-.426-.208-.006-.407-.084-.564-.221s-.261-.324-.296-.529c-.11-.43.32-.76.75-.87.835-.039 1.654.24 2.292.78.638.539 1.048 1.3 1.148 2.13.054.866-.23 1.719-.791 2.381-.561.661-1.356 1.08-2.219 1.169z" fill="#000" opacity=".2"/><path d="m279.49 429.59c14.71 45.22 22.33 101 21.77 168.86l6.8 7 4.94-8.45c1.75-66.3-6.32-121.38-21.26-168.6z" fill="#797979"/><path d="m275.86 422.14 3.63 7.45 12.23-1.15 2.1-10.13-6.31-4.2-8.02.96z" fill="#797979"/><path d="m291.72 428.44 2.1-10.13-6.31-4.2-2.54.3 5.85 3.9-2.1 10.13c14.94 47.22 23 102.3 21.26 168.6l-3.79 6.51 1.87 1.93 4.94-8.48c1.73-66.26-6.34-121.34-21.28-168.56z" fill="#000" opacity=".15"/><path d="m283.69 414.3-14.9 21.59-13.91-20.37-17.04-24.91 4.88-7.83z" fill="#fff" stroke="#fff" stroke-miterlimit="10"/><path d="m292.19 395.47-7.86 18.72 14.65 16.93-3.63-14.91v-9.74z" fill="#fff"/><path d="m301.45 435.28-15.65-17.93.41-.98 12.77 14.75-3.63-14.9v-9.75l.84.96 1.16 10.3z" fill="#000" opacity=".15"/><path d="m295.35 406.47 20.65 9.55-10.32 7.78 12.89 7.32 3.94 53.96z" fill="#70dab9"/><path d="m228.35 419.58 8.44-3.05-15-5.63 4.91-7.5 11.13-12.79 17 24.91c10.83 21 25.12 58.92 31.48 105.33z" fill="#000" opacity=".3"/><path d="m295.35 406.47 20.65 9.55-10.32 7.78 12.89 7.32 3.94 53.96z" fill="#000" opacity=".3"/><path d="m243 353.38 3.76-15.38 12.08 17.55-3.78 17.07zm4.5-12.41-3.17 12.13 10.13 16.34 3-13.59z" fill="#70dab9"/><path d="m257.06 353.24s20.88 5.71 43.21.56c0 0-.23 21.75-14.63 29.6 0 0-18.5 7-32-12.28.03 0 3.78-9.49 3.42-17.88z" fill="#70dab9"/><path d="m254.92 367.39c1.456-4.574 2.178-9.35 2.14-14.15 0 0 20.88 5.71 43.21.56 0 0-.12 11.17-5.48 20.39-.02.01-20.64 11.37-39.87-6.8z" fill="#fff" opacity=".2"/><path d="m300.26 353.8-1 8.43s-19.58 9-42.71-1.54c.391-2.182.585-4.394.58-6.61l.08-.81c1.4.38 21.55 5.49 43.05.53z" fill="#fff" opacity=".2"/><path d="m247.4 337.78s-2.15-6.13-8.61-3.33c-7.32 3.23-5.81 19.8 6.57 20.77 6.45.54 5.16-3.23 4.09-8.29z" fill="#fc9d9d"/><path d="m238.47 338.75c.496-.394 1.065-.686 1.675-.858.609-.172 1.247-.22 1.875-.142.602.153 1.164.435 1.647.825s.876.879 1.153 1.435c.791 1.374 1.198 2.935 1.18 4.52l.11 1.4c.003.1-.014.199-.051.292-.037.092-.092.177-.162.248s-.153.127-.246.165c-.092.038-.191.056-.291.055-.1.001-.199-.017-.292-.055s-.177-.094-.248-.165c-.071-.07-.127-.155-.165-.248-.037-.092-.056-.192-.055-.292l-.1-1.4c-.059-1.311-.4-2.593-1-3.76-.409-.731-1.054-1.302-1.83-1.62-.842-.069-1.681.161-2.37.65-.176.1-.382.132-.581.092-.198-.041-.375-.151-.499-.312-.22-.08-.07-.51.25-.83z" fill="#000" opacity=".2"/><path d="m299.08 338.22h-38.08c-1.061 0-2.078.422-2.828 1.172-.751.75-1.172 1.767-1.172 2.828v3.1c0 1.428.281 2.841.827 4.16.547 1.319 1.347 2.517 2.357 3.526 1.009 1.01 2.207 1.811 3.526 2.357s2.733.827 4.16.827 2.841-.281 4.16-.827 2.517-1.347 3.526-2.357c1.01-1.009 1.81-2.207 2.357-3.526.546-1.319.827-2.732.827-4.16v-3.1c-.003-.892-.318-1.755-.89-2.44h4.22c-.539.696-.815 1.56-.78 2.44v3.1c0 2.883 1.145 5.648 3.184 7.686 2.038 2.039 4.803 3.184 7.686 3.184s5.648-1.145 7.686-3.184c2.039-2.038 3.184-4.803 3.184-7.686v-3.1c0-1.052-.414-2.062-1.154-2.811-.739-.748-1.744-1.176-2.796-1.189zm-21.85 4v3.1c-.062 2.406-1.057 4.694-2.775 6.379-1.719 1.686-4.025 2.637-6.432 2.653-2.407.015-4.725-.906-6.465-2.569s-2.765-3.938-2.858-6.343v-3.11c.005-.645.264-1.263.72-1.719.457-.457 1.075-.716 1.72-.721h13.76c.617.003 1.208.249 1.645.686.436.436.682 1.027.685 1.644zm24.29 3.1c-.062 2.406-1.057 4.694-2.775 6.379-1.719 1.686-4.025 2.637-6.432 2.653-2.407.015-4.725-.906-6.465-2.569s-2.765-3.938-2.858-6.343v-3.11c.005-.647.265-1.266.724-1.723s1.079-.714 1.726-.717h13.75c.646.005 1.263.264 1.72.721.456.456.715 1.074.72 1.719z" fill="#ffb7a1"/><path d="m201.27 1050.9h33.13c1.94 0 3.6-1.27 3.6-2.87v-1c0-.34 0-.68-.05-1h-40.2c-.05.56-.08 1.11-.08 1.66v.41c0 1.52 1.57 2.8 3.6 2.8z" fill="#000"/><path d="m1392.7 1052.06h-1213.46c-.083.01-.168 0-.248-.02-.081-.02-.155-.07-.218-.12-.063-.06-.114-.13-.148-.2-.035-.08-.053-.16-.053-.25 0-.08.018-.16.053-.24.034-.07.085-.14.148-.2.063-.05.137-.1.218-.12.08-.02.165-.03.248-.02h1213.57c.08 0 .16.01.23.04.07.02.14.07.19.12.06.05.1.12.13.19s.04.15.04.23c-.02.17-.1.33-.23.44s-.3.16-.47.15z" fill="#70dab9"/><path d="m1392.7 1052.06h-1213.46c-.083.01-.168 0-.248-.02-.081-.02-.155-.07-.218-.12-.063-.06-.114-.13-.148-.2-.035-.08-.053-.16-.053-.25 0-.08.018-.16.053-.24.034-.07.085-.14.148-.2.063-.05.137-.1.218-.12.08-.02.165-.03.248-.02h1213.57c.08 0 .16.01.23.04.07.02.14.07.19.12.06.05.1.12.13.19s.04.15.04.23c-.02.17-.1.33-.23.44s-.3.16-.47.15z" fill="#fff" opacity=".6"/></svg>