<svg enable-background="new 0 0 1600 1200" fill="none" height="1200" viewBox="0 0 1600 1200" width="1600" xmlns="http://www.w3.org/2000/svg"><path d="m232.21 1064.87-45.33-555.65c-1.145-14.155 2.798-28.253 11.12-39.76l226.17-313c6.043-8.361 14.152-15.011 23.535-19.298 9.383-4.288 19.718-6.066 29.995-5.162l774.3 68.23c12.26 1.08 23.88 5.927 33.27 13.875 9.39 7.947 16.1 18.607 19.19 30.515l106.38 409.45c2.61 10.065 2.55 20.64-.2 30.67l-104.09 381.51z" fill="#ffb39c"/><path d="m232.21 1064.87-45.33-555.65c-1.145-14.155 2.798-28.253 11.12-39.76l226.17-313c6.043-8.361 14.152-15.011 23.535-19.298 9.383-4.288 19.718-6.066 29.995-5.162l774.3 68.23c12.26 1.08 23.88 5.927 33.27 13.875 9.39 7.947 16.1 18.607 19.19 30.515l106.38 409.45c2.61 10.065 2.55 20.64-.2 30.67l-104.09 381.51z" fill="#fff" opacity=".9"/><path d="m449 383h-136.85v113.6h136.85z" fill="#fff"/><path d="m439.28 393.17h-117.39v93.15h117.39z" fill="#ffb39c"/><path d="m452 383h-3v113.6h3z" fill="#ffb39c"/><path d="m439.28 393.17h-117.39v93.15h117.39z" fill="#fff" opacity=".6"/><path d="m452 383h-3v113.6h3z" fill="#fff" opacity=".6"/><path d="m389.49 476.45v-6.36h-23.92v6.36z" fill="#fff"/><path d="m377.53 462.57c5.668-.002 11.208-1.685 15.92-4.835s8.383-7.627 10.551-12.864 2.734-11 1.627-16.558c-1.107-5.559-3.837-10.665-7.846-14.672s-9.115-6.736-14.675-7.841c-5.559-1.105-11.321-.537-16.557 1.633-5.236 2.169-9.712 5.842-12.861 10.555-3.148 4.713-4.829 10.254-4.829 15.922 0 3.765.742 7.492 2.182 10.97 1.441 3.478 3.553 6.638 6.216 9.299 2.662 2.662 5.823 4.773 9.301 6.212 3.478 1.44 7.206 2.18 10.971 2.179z" fill="#ffb39c"/><path d="m1395 594.84v25.28 69.88h-117-6-6-6-111-6v-366h6 111v-2.2h6 6 6v2.2h3.86 7.85 16.49 18.43l-3.38-13h-190.25v392h274.08l1.92-7.04v-54.93z" fill="#ffb39c"/><path d="m1149 640.72v-58.5-86.67-18.74-8.27-144.54h-6v366h6v-5.87z" fill="#ffb39c"/><path d="m1281.86 324h-3.86v4.2z" fill="#fff" opacity=".8"/><path d="m1278 689v1h117v-69.88l-70.31 68.88z" fill="#5dd6b0"/><path d="m1260 347.78v-23.78h-111v144.54z" fill="#5dd6b0"/><path d="m1149 495.55 111-121.13v-18.15l-111 120.54z" fill="#5dd6b0"/><path d="m1254.38 689 5.62-5.83v-127.48l-111 128.44v5.87h111v-1z" fill="#5dd6b0"/><path d="m1278 664.51 106.43-110.36-28.46-109.51-77.97 90.22z" fill="#5dd6b0"/><path d="m1278 490.53 69.02-80.35-10.8-41.59-58.22 66.43z" fill="#5dd6b0"/><path d="m1278 354.77 28.2-30.77h-16.49l-11.71 12.72z" fill="#5dd6b0"/><path d="m1149 640.72 111-129.23v-55.93l-111 126.66z" fill="#5dd6b0"/><g fill="#fff" opacity=".8"><path d="m1278 689v1h117v-69.88l-70.31 68.88z" opacity=".8"/><path d="m1260 347.78v-23.78h-111v144.54z" opacity=".8"/><path d="m1149 495.55 111-121.13v-18.15l-111 120.54z" opacity=".8"/><path d="m1254.38 689 5.62-5.83v-127.48l-111 128.44v5.87h111v-1z" opacity=".8"/><path d="m1278 664.51 106.43-110.36-28.46-109.51-77.97 90.22z" opacity=".8"/><path d="m1278 490.53 69.02-80.35-10.8-41.59-58.22 66.43z" opacity=".8"/><path d="m1278 354.77 28.2-30.77h-16.49l-11.71 12.72z" opacity=".8"/><path d="m1149 640.72 111-129.23v-55.93l-111 126.66z" opacity=".8"/></g><path d="m1278 689h46.69l70.31-68.88v-25.28l-10.57-40.69-106.43 110.36z" fill="#f4f4f4"/><path d="m1278 689h46.69l70.31-68.88v-25.28l-10.57-40.69-106.43 110.36z" fill="#fff"/><path d="m1260 689v-5.83l-5.62 5.83z" fill="#f4f4f4"/><path d="m1260 689v-5.83l-5.62 5.83z" fill="#fff"/><path d="m1278 336.72 11.71-12.72h-7.85l-3.86 4.2z" fill="#f4f4f4"/><path d="m1278 336.72 11.71-12.72h-7.85l-3.86 4.2z" fill="#fff"/><path d="m1149 476.81 111-120.54v-8.49l-111 120.76z" fill="#f4f4f4"/><path d="m1149 476.81 111-120.54v-8.49l-111 120.76z" fill="#fff"/><path d="m1278 534.86 77.97-90.22-8.95-34.46-69.02 80.35z" fill="#f4f4f4"/><path d="m1395 594.84v25.28 69.88h-117-6-6-6-111-6v-366h6 111v-2.2h6 6 6v2.2h3.86 7.85 16.49 18.43l-3.38-13h-190.25v392h274.08l1.92-7.04v-54.93z" fill="#fff" opacity=".4"/><path d="m1278 534.86 77.97-90.22-8.95-34.46-69.02 80.35z" fill="#fff"/><path d="m1149 684.13 111-128.44v-44.2l-111 129.23z" fill="#f4f4f4"/><path d="m1149 684.13 111-128.44v-44.2l-111 129.23z" fill="#fff"/><path d="m1278 354.77v80.25l58.22-66.43-11.59-44.59h-18.43z" fill="#f4f4f4"/><path d="m1278 354.77v80.25l58.22-66.43-11.59-44.59h-18.43z" fill="#fff"/><path d="m1149 582.22 111-126.66v-81.14l-111 121.13z" fill="#f4f4f4"/><path d="m1149 582.22 111-126.66v-81.14l-111 121.13z" fill="#fff"/><path d="m1278 664.51v-129.65-44.33-55.51-80.25-18.05-8.52-4.2-2.2h-6v368.2h6v-1z" fill="#ffb39c"/><path d="m1272 321.8h-6-6v2.2 23.78 8.49 18.15 81.14 55.93 44.2 127.48 5.83 1h6 6z" fill="#ffb39c"/><path d="m1272 321.8h-6-6v2.2 23.78 8.49 18.15 81.14 55.93 44.2 127.48 5.83 1h6 6z" fill="#fff" opacity=".4"/><path d="m1092.53 295.13h109.8v579.71h-1.5c-1.72 0-3.59-.15-4.27-.15-.23 0-1 .45-1.2.45-.78 0-4.47 4.25-5.56 4.25s-2.58-2.46-3.81-2.46c-2.56 0-3.7-3.81-5-2.09-.13.17-.37 0-.55 0-.9 0-3.65 2.48-6.8 2.84-1.43.188-2.88.161-4.3-.08-1.47-.3-3.83-2.76-4.78-2.76h-.75c-.63 0-3.4 4.63-5.46 4.93-.87.06-1.74.06-2.61 0-4.32 0-7.38-4.93-8.55-4.93h-.57c-1.19 0-6.53 4.32-8 4.4-.78 0-1.56 0-2.34 0-1.57 0-4.89-4.4-5.25-4.4h-.64c-.73 0-3.47 5.91-4.41 6-1.35.145-2.71.145-4.06 0-1-.09-5.53-6-6.44-6h-.67c-.91 0-4.94 4.82-5.81 4.85-1.54.06-.37.19-1.9 0-2.52-.3-7.79-4.85-8.83-4.85h-5.77z" fill="#5dd6b0"/><path d="m1119.52 295.13h-27v579.71h5.77c.82 0 4.3 2.85 7 4.19v-583.85h5.88v582.82c1.44-1.4 3.14-3.17 3.69-3.17h.67c.55 0 2.4 2.17 4 3.92v-583.62z" fill="#5dd6b0"/><path d="m1127.6 295.13h-8.08v583.63c1.06 1.14 2 2.09 2.43 2.13 1.35.145 2.71.145 4.06 0 .35 0 .94-.9 1.59-1.94z" fill="#000" opacity=".2"/><path d="m1142.39 295.18h-5.89v584.07h2.15c.71 0 2.19-1 3.74-2z" fill="#000" opacity=".2"/><path d="m1159.51 295.18h-5.88v584.18c.69.263 1.41.402 2.15.41.87.06 1.74.06 2.61 0 .41-.08.79-.254 1.12-.51z" fill="#000" opacity=".2"/><path d="m1176.07 295.18h-5.88v582.54c1.16.125 2.33.125 3.49 0 .82-.108 1.63-.326 2.39-.65z" fill="#000" opacity=".2"/><path d="m1190.88 295.18h-5.88v581.55c.32.13.66.198 1 .2 1.23 0 2.58 2.46 3.81 2.46.4-.086.78-.279 1.08-.56v-583.65z" fill="#000" opacity=".2"/><path d="m1111.15 295.18h-5.88v583.82c.58.323 1.21.546 1.86.66 1.53.19.36.06 1.9 0 .81-.413 1.53-.984 2.12-1.68z" fill="#000" opacity=".2"/><path d="m1377.52 806.09v-280.2l-8.37-32.24v343.14z" fill="#5dd6b0"/><path d="m1355.71 874.84h.59c.78.254 1.51.647 2.15 1.16l4.82-17.66v-387.34l-12.74-49v452.84z" fill="#5dd6b0"/><path d="m1410.63 684.74c.39-1.41.72-2.84 1-4.28v-22.84c-.23-1.19-.5-2.38-.8-3.55l-10.44-40.19v108.42z" fill="#5dd6b0"/><path d="m1394.5 743.86v-152.61l-8.9-34.25v219.48z" fill="#5dd6b0"/><path d="m1385.6 776.48v-219.48l-8.08-31.1v280.2z" fill="#5dd6b0"/><path d="m1385.6 776.48v-219.48l-8.08-31.1v280.2z" fill="#000" opacity=".2"/><path d="m1400.39 722.3v-108.42l-5.89-22.63v152.61z" fill="#5dd6b0"/><path d="m1400.39 722.3v-108.42l-5.89-22.63v152.61z" fill="#000" opacity=".2"/><path d="m1411.63 657.62v22.84c1.47-7.542 1.47-15.298 0-22.84z" fill="#5dd6b0"/><path d="m1411.63 657.62v22.84c1.47-7.542 1.47-15.298 0-22.84z" fill="#000" opacity=".2"/><path d="m1363.27 858.34 5.88-21.55v-343.14l-5.88-22.65z" fill="#5dd6b0"/><path d="m1363.27 858.34 5.88-21.55v-343.14l-5.88-22.65z" fill="#000" opacity=".2"/><path d="m1317 295.45h-251v-13h248z" fill="#797979"/><path d="m1075 282.29h6c1.31 1.938 2.02 4.217 2.05 6.555s-.62 4.633-1.88 6.605h-6.17z" fill="#000" opacity=".2"/><path d="m1069 301.45c6.63 0 12-5.373 12-12s-5.37-12-12-12-12 5.373-12 12 5.37 12 12 12z" fill="#797979"/><path d="m676.49 748.16c1-5.18 1.63-9.84 2.13-14.81.512-4.95.763-9.924.75-14.9.016-5.181-.442-10.353-1.37-15.45-1.08-5.27-2.68-11-6.91-16.32-3.337-4.225-8.163-7.012-13.49-7.79-1.619-.229-3.257-.299-4.89-.21-6.048.462-11.806 2.777-16.49 6.63-4.199 3.373-7.767 7.463-10.54 12.08-2.879 4.556-4.848 9.626-5.8 14.93-.593 3.177-.334 6.455.75 9.5.76 1.951 2.087 3.63 3.81 4.82 1.648 1.098 3.562 1.73 5.54 1.83 2.036.12 4.061-.367 5.82-1.4 1.514-.945 2.799-2.216 3.76-3.72 1.493-2.428 2.495-5.126 2.95-7.94.83-5.01.783-10.126-.14-15.12-.785-4.988-2.603-9.757-5.34-14-1.484-2.244-3.474-4.107-5.81-5.44-2.443-1.325-5.261-1.79-8-1.32-5.26.94-9.29 4.08-12.65 7.43-6.61 6.92-11.21 15.22-14.92 23.74 4.36-8.18 9.65-16 16.46-22.1 3.39-2.91 7.4-5.41 11.5-5.66s7.38 2.24 9.33 5.9c1.945 3.823 3.075 8.008 3.32 12.29.369 4.251.004 8.533-1.08 12.66-.444 1.768-1.228 3.433-2.31 4.9-.341.426-.776.768-1.27 1-.297.09-.614.09-.91 0-.43-.11-.92-.33-1-.48-.144-.21-.24-.449-.28-.7-.213-1.436-.104-2.902.32-4.29 2-7.17 7.63-14.57 13.88-18.61 2.721-1.914 5.973-2.928 9.3-2.9.695.038 1.385.146 2.06.32.559.142 1.097.357 1.6.64.954.555 1.755 1.338 2.33 2.28 1.41 2.13 2.39 5.71 2.78 9.57.37 4.112.37 8.248 0 12.36-.339 4.319-.9 8.618-1.68 12.88-.79 4.25-1.8 8.76-2.91 12.65z" fill="#ffb39c"/><path d="m676.49 748.16c1-5.18 1.63-9.84 2.13-14.81.512-4.95.763-9.924.75-14.9.016-5.181-.442-10.353-1.37-15.45-1.08-5.27-2.68-11-6.91-16.32-3.337-4.225-8.163-7.012-13.49-7.79-1.619-.229-3.257-.299-4.89-.21-6.048.462-11.806 2.777-16.49 6.63-4.199 3.373-7.767 7.463-10.54 12.08-2.879 4.556-4.848 9.626-5.8 14.93-.593 3.177-.334 6.455.75 9.5.76 1.951 2.087 3.63 3.81 4.82 1.648 1.098 3.562 1.73 5.54 1.83 2.036.12 4.061-.367 5.82-1.4 1.514-.945 2.799-2.216 3.76-3.72 1.493-2.428 2.495-5.126 2.95-7.94.83-5.01.783-10.126-.14-15.12-.785-4.988-2.603-9.757-5.34-14-1.484-2.244-3.474-4.107-5.81-5.44-2.443-1.325-5.261-1.79-8-1.32-5.26.94-9.29 4.08-12.65 7.43-6.61 6.92-11.21 15.22-14.92 23.74 4.36-8.18 9.65-16 16.46-22.1 3.39-2.91 7.4-5.41 11.5-5.66s7.38 2.24 9.33 5.9c1.945 3.823 3.075 8.008 3.32 12.29.369 4.251.004 8.533-1.08 12.66-.444 1.768-1.228 3.433-2.31 4.9-.341.426-.776.768-1.27 1-.297.09-.614.09-.91 0-.43-.11-.92-.33-1-.48-.144-.21-.24-.449-.28-.7-.213-1.436-.104-2.902.32-4.29 2-7.17 7.63-14.57 13.88-18.61 2.721-1.914 5.973-2.928 9.3-2.9.695.038 1.385.146 2.06.32.559.142 1.097.357 1.6.64.954.555 1.755 1.338 2.33 2.28 1.41 2.13 2.39 5.71 2.78 9.57.37 4.112.37 8.248 0 12.36-.339 4.319-.9 8.618-1.68 12.88-.79 4.25-1.8 8.76-2.91 12.65z" fill="#ffb39c" opacity=".1"/><path d="m661.13 723.81s11.19-17.09 13-32.45c0 0 4.59 13.4 5.21 22l-20 23z" fill="#000" opacity=".2"/><path d="m692 975.46c13.49 19.06 10.75 77.26 18.91 85.41s91.87 7.3 97.51 2.51 3-25.37 9.3-28.75c2.48-1.32-125.72-59.17-125.72-59.17z" fill="#ffb39c"/><path d="m1049.41 976.39c-16.84 24.33-7.74 76.33-15.9 84.48s-91.88 7.3-97.51 2.51-3.06-26.48-6.4-30.6c-1.76-2.18 119.81-56.39 119.81-56.39z" fill="#ffb39c"/><path d="m817.71 1034.64c-1.78.94-2.84 3.25-3.58 6.2-49.79-6.26-87.39-19.15-112.11-30.16-1.93-14.18-4.72-27.71-10-35.21-.02 0 128.19 57.84 125.69 59.17z" fill="#000" opacity=".3"/><path d="m1049.42 976.38c-6.28 9.08-9 22-10.27 35.07-26.24 11.79-62.42 24-107.68 29.77-.31-3.89-.79-7.09-1.86-8.44-1.78-2.19 119.81-56.4 119.81-56.4z" fill="#000" opacity=".3"/><path d="m932.61 655.15s76.9-59 160.19-52c28.69 2.42-18.94 64.56-19.8 113.1z" fill="#ffb39c"/><path d="m932.61 655.15s76.9-59 160.19-52c28.69 2.42-18.94 64.56-19.8 113.1z" fill="#000" opacity=".1"/><path d="m1040.88 692.54c-.48 3.07 26 14.44 28.79 12.69s5.52-40 27.18-80.72c3.15-6-50.85 35.17-55.97 68.03z" fill="#000" opacity=".3"/><path d="m865.1 623.62c-168.39 0-232.83 131.81-232.83 209 0 76.1 49 205.44 232.83 205.44s244.9-109.62 244.9-207.24-74.79-207.2-244.9-207.2z" fill="#ffb39c"/><path d="m926.1 998c-183.88 0-232.83-129.34-232.83-205.44 0-43.35 20.36-104 68.08-148.76-91.83 39.91-129.08 130.12-129.08 188.76 0 76.1 49 205.44 232.83 205.44 88.68 0 148.77-25.49 187.23-62.82-33.46 14.35-75.09 22.82-126.23 22.82z" fill="#000" opacity=".15"/><path d="m922.61 651.15s66.9-62 150.19-55c28.69 2.42-18.94 64.56-19.8 113.1z" fill="#ffb39c"/><path d="m1020.88 685.54c-.48 3.07 26.05 14.44 28.79 12.69s5.52-40 27.18-80.72c3.15-6-50.85 35.17-55.97 68.03z" fill="#000" opacity=".3"/><path d="m1094.22 754.7c3.68 11.06 37.07 2.09 45.49 9.08 13.25 11 9.58 147.4-2.53 158.39-6.8 6.17-52.75 2.33-63.39 9.83s20.43-177.3 20.43-177.3z" fill="#ffb39c"/><path d="m1141.49 839.66c0 33.23-2.78 60.16-6.21 60.16s-6.2-26.93-6.2-60.16 2.78-60.16 6.2-60.16 6.21 26.94 6.21 60.16z" fill="#000" opacity=".3"/><path d="m789.71 668.63c.61-.2 62.35-20.28 119.81-4.57l5.73-20.94c-64-17.48-129.64 4-132.41 4.92l6.88 20.59-3.44-10.29z" fill="#000" opacity=".4"/><path d="m755.53 977.63c-96.72-63.19-79.64-173.21-78.79-178 .593-3.254-.132-6.611-2.014-9.331s-4.767-4.581-8.021-5.174-6.611.131-9.331 2.013-4.581 4.768-5.174 8.022c-.25 1.38-6.08 34.17 2.58 74.79 11.59 54.32 43.1 98.31 94.28 119.82 15.44 6.52 18.94-4.02 6.47-12.14z" fill="#fff"/><path d="m1033.62 822.67c9.84 0 17.81-10.383 17.81-23.19 0-12.808-7.97-23.19-17.81-23.19s-17.81 10.382-17.81 23.19c0 12.807 7.97 23.19 17.81 23.19z" fill="#000"/><path d="m1035 776.36c6.16 3.65 10.44 11.73 10.44 21.12 0 12.81-8 23.19-17.8 23.19-.46 0-.91 0-1.36-.07 2.22 1.344 4.76 2.06 7.36 2.07 9.83 0 17.8-10.38 17.8-23.19-.02-12.21-7.26-22.21-16.44-23.12z" fill="#000" opacity=".3"/><path d="m1346.78 1069.29-1153.41-1.49c-.224.03-.45 0-.665-.07-.215-.06-.412-.18-.58-.33s-.302-.33-.394-.54c-.092-.2-.14-.42-.14-.65s.048-.45.14-.65c.092-.21.226-.39.394-.54s.365-.27.58-.33c.215-.07.441-.1.665-.07l1153.42 1.49c.23-.04.46-.02.69.04.22.06.43.17.61.33.18.15.32.33.41.55.1.21.15.44.15.67s-.05.46-.15.67c-.09.22-.23.4-.41.55-.18.16-.39.27-.61.33-.23.06-.46.08-.69.04z" fill="#ffb39c"/><path d="m1346.78 1069.29-1153.41-1.49c-.224.03-.45 0-.665-.07-.215-.06-.412-.18-.58-.33s-.302-.33-.394-.54c-.092-.2-.14-.42-.14-.65s.048-.45.14-.65c.092-.21.226-.39.394-.54s.365-.27.58-.33c.215-.07.441-.1.665-.07l1153.42 1.49c.23-.04.46-.02.69.04.22.06.43.17.61.33.18.15.32.33.41.55.1.21.15.44.15.67s-.05.46-.15.67c-.09.22-.23.4-.41.55-.18.16-.39.27-.61.33-.23.06-.46.08-.69.04z" fill="#fff" opacity=".36"/><path d="m394.44 1031.13h-132.57v16.83h132.57z" fill="#5dd6b0"/><path d="m286.82 1031.13h-25.21v16.83h25.21z" fill="#000" opacity=".2"/><path d="m378.66 1031.13h-18.49v16.83h18.49z" fill="#fff" opacity=".2"/><path d="m394.44 997.48h-132.57v16.83h132.57z" fill="#5dd6b0"/><path d="m286.82 997.48h-25.21v16.83h25.21z" fill="#000" opacity=".2"/><path d="m378.66 997.48h-18.49v16.83h18.49z" fill="#fff" opacity=".2"/><path d="m394.44 947h-132.57v16.83h132.57z" fill="#5dd6b0"/><path d="m286.82 947h-25.21v16.83h25.21z" fill="#000" opacity=".2"/><path d="m378.66 947h-18.49v16.83h18.49z" fill="#fff" opacity=".2"/><path d="m410.22 1047.96h-132.57v16.83h132.57z" fill="#5dd6b0"/><path d="m303.53 1047.03h-25.21v16.83h25.21z" fill="#000" opacity=".2"/><path d="m394.44 1047.96h-18.49v16.83h18.49z" fill="#fff" opacity=".2"/><path d="m410.22 980.65h-132.57v16.83h132.57z" fill="#5dd6b0"/><path d="m303.53 980.65h-25.21v16.83h25.21z" fill="#000" opacity=".2"/><path d="m394.44 980.65h-18.49v16.83h18.49z" fill="#fff" opacity=".2"/><path d="m410.22 963.83h-132.57v16.83h132.57z" fill="#5dd6b0"/><path d="m303.53 963.83h-25.21v16.83h25.21z" fill="#000" opacity=".2"/><path d="m394.44 963.83h-18.49v16.83h18.49z" fill="#fff" opacity=".2"/><path d="m410.22 1014.31h-132.57v16.83h132.57z" fill="#5dd6b0"/><path d="m303.53 1014.31h-25.21v16.83h25.21z" fill="#000" opacity=".2"/><path d="m394.44 1014.31h-18.49v16.83h18.49z" fill="#fff" opacity=".2"/><path d="m394.44 1047.43h-116.79v1.07h116.79z" fill="#000" opacity=".09"/><path d="m394.44 1030.6h-116.79v1.07h116.79z" fill="#000" opacity=".09"/><path d="m394.44 1013.77h-116.79v1.07h116.79z" fill="#000" opacity=".09"/><path d="m394.44 996.95h-116.79v1.07h116.79z" fill="#000" opacity=".09"/><path d="m410.22 980.12h-132.57v1.07h132.57z" fill="#000" opacity=".09"/><path d="m410.22 963.29h-132.57v1.07h132.57z" fill="#000" opacity=".09"/><path d="m1277.85 1034.7h-122.44v15.54h122.44z" fill="#5dd6b0"/><path d="m1178.45 1034.7h-23.29v15.54h23.29z" fill="#000" opacity=".2"/><path d="m1263.28 1034.7h-17.08v15.54h17.08z" fill="#fff" opacity=".2"/><path d="m1277.85 1003.62h-122.44v15.54h122.44z" fill="#5dd6b0"/><path d="m1178.45 1003.62h-23.29v15.54h23.29z" fill="#000" opacity=".2"/><path d="m1263.28 1003.62h-17.08v15.54h17.08z" fill="#fff" opacity=".2"/><path d="m1277.85 957h-122.44v15.54h122.44z" fill="#5dd6b0"/><path d="m1178.45 957h-23.29v15.54h23.29z" fill="#000" opacity=".2"/><path d="m1263.28 957h-17.08v15.54h17.08z" fill="#fff" opacity=".2"/><path d="m1292.42 1050.25h-122.44v15.54h122.44z" fill="#5dd6b0"/><path d="m1193.89 1049.38h-23.29v15.54h23.29z" fill="#000" opacity=".2"/><path d="m1277.86 1050.25h-17.08v15.54h17.08z" fill="#fff" opacity=".2"/><path d="m1292.42 988.08h-122.44v15.54h122.44z" fill="#5dd6b0"/><path d="m1193.89 988.08h-23.29v15.54h23.29z" fill="#000" opacity=".2"/><path d="m1277.86 988.08h-17.08v15.54h17.08z" fill="#fff" opacity=".2"/><path d="m1292.42 972.54h-122.44v15.54h122.44z" fill="#5dd6b0"/><path d="m1193.89 972.54h-23.29v15.54h23.29z" fill="#000" opacity=".2"/><path d="m1277.86 972.54h-17.08v15.54h17.08z" fill="#fff" opacity=".2"/><path d="m1292.42 1019.16h-122.44v15.54h122.44z" fill="#5dd6b0"/><path d="m1193.89 1019.16h-23.29v15.54h23.29z" fill="#000" opacity=".2"/><path d="m1277.86 1019.16h-17.08v15.54h17.08z" fill="#fff" opacity=".2"/><path d="m1277.85 1049.75h-107.87v.98h107.87z" fill="#000" opacity=".09"/><path d="m1277.85 1034.21h-107.87v.98h107.87z" fill="#000" opacity=".09"/><path d="m1277.85 1018.67h-107.87v.98h107.87z" fill="#000" opacity=".09"/><path d="m1277.85 1003.13h-107.87v.98h107.87z" fill="#000" opacity=".09"/><path d="m1292.42 987.59h-122.44v.98h122.44z" fill="#000" opacity=".09"/><path d="m1292.42 972.05h-122.44v.98h122.44z" fill="#000" opacity=".09"/><path d="m856.8 578c8.977 1.563 17.463 5.205 24.781 10.633 7.319 5.428 13.266 12.493 17.366 20.63 4.101 8.137 6.241 17.121 6.25 26.232.009 9.112-2.113 18.1-6.197 26.245 1.493.3 2.983.633 4.47 1 4.343-8.501 6.537-17.937 6.388-27.482-.148-9.546-2.634-18.909-7.239-27.271s-11.19-15.468-19.178-20.696c-7.987-5.227-17.135-8.418-26.641-9.291z" fill="#5dd6b0"/><path d="m856.8 578c8.977 1.563 17.463 5.205 24.781 10.633 7.319 5.428 13.266 12.493 17.366 20.63 4.101 8.137 6.241 17.121 6.25 26.232.009 9.112-2.113 18.1-6.197 26.245 1.493.3 2.983.633 4.47 1 4.343-8.501 6.537-17.937 6.388-27.482-.148-9.546-2.634-18.909-7.239-27.271s-11.19-15.468-19.178-20.696c-7.987-5.227-17.135-8.418-26.641-9.291z" fill="#000" opacity=".2"/><path d="m856.8 578c-2.144-.376-4.308-.63-6.48-.76-10.733-.649-21.436 1.678-30.931 6.725-9.494 5.047-17.41 12.617-22.876 21.876-5.466 9.26-8.269 19.849-8.1 30.599.169 10.751 3.303 21.247 9.057 30.33 3.16-.83 7.25-1.83 12.09-2.84-.34-.447-.674-.897-1-1.35l-.36-.52c-.34-.5-.68-1-1-1.52-.12-.19-.24-.38-.35-.57-.32-.52-.62-1-.92-1.57-.1-.19-.21-.38-.32-.57-.3-.56-.59-1.13-.87-1.7-.08-.17-.17-.33-.25-.49-.33-.71-.66-1.43-1-2.16v-.08c-.33-.78-.63-1.57-.91-2.37l-.09-.27c-.23-.68-.45-1.37-.65-2.06-.07-.24-.14-.49-.2-.73-.15-.55-.3-1.1-.43-1.65-.07-.3-.13-.59-.2-.89-.11-.51-.21-1-.3-1.54-.06-.32-.11-.64-.16-1-.09-.5-.16-1-.22-1.52l-.12-1c-.05-.52-.09-1-.13-1.57 0-.33-.05-.64-.06-1 0-.57 0-1.15 0-1.73 0-.27 0-.55 0-.83 0-.85 0-1.71.08-2.58.363-6.146 1.934-12.159 4.623-17.697s6.443-10.492 11.048-14.579c4.604-4.086 9.969-7.225 15.787-9.236 5.819-2.012 11.977-2.857 18.122-2.488.75 0 1.51.11 2.25.19l.77.1c.48.06 1 .12 1.45.2l.92.16 1.25.23 1 .22c.38.08.75.17 1.12.27l1.06.28 1 .29 1.14.35.74.26c2.285.8 4.505 1.777 6.64 2.92h.1c.55.3 1.09.61 1.63.93l.11.06c5.313 3.162 9.947 7.345 13.636 12.307 3.688 4.962 6.358 10.606 7.855 16.605 1.496 5.999 1.791 12.235.865 18.348-.925 6.113-3.051 11.983-6.256 17.27 4 .5 8.046 1.147 12.14 1.94 4.054-8.146 6.15-17.126 6.12-26.226-.03-9.099-2.185-18.065-6.294-26.184-4.108-8.119-10.056-15.166-17.37-20.579s-15.791-9.044-24.756-10.601z" fill="#5dd6b0"/><path d="m856.8 578c-2.144-.376-4.308-.63-6.48-.76-10.733-.649-21.436 1.678-30.931 6.725-9.494 5.047-17.41 12.617-22.876 21.876-5.466 9.26-8.269 19.849-8.1 30.599.169 10.751 3.303 21.247 9.057 30.33 3.16-.83 7.25-1.83 12.09-2.84-.34-.447-.674-.897-1-1.35l-.36-.52c-.34-.5-.68-1-1-1.52-.12-.19-.24-.38-.35-.57-.32-.52-.62-1-.92-1.57-.1-.19-.21-.38-.32-.57-.3-.56-.59-1.13-.87-1.7-.08-.17-.17-.33-.25-.49-.33-.71-.66-1.43-1-2.16v-.08c-.33-.78-.63-1.57-.91-2.37l-.09-.27c-.23-.68-.45-1.37-.65-2.06-.07-.24-.14-.49-.2-.73-.15-.55-.3-1.1-.43-1.65-.07-.3-.13-.59-.2-.89-.11-.51-.21-1-.3-1.54-.06-.32-.11-.64-.16-1-.09-.5-.16-1-.22-1.52l-.12-1c-.05-.52-.09-1-.13-1.57 0-.33-.05-.64-.06-1 0-.57 0-1.15 0-1.73 0-.27 0-.55 0-.83 0-.85 0-1.71.08-2.58.363-6.146 1.934-12.159 4.623-17.697s6.443-10.492 11.048-14.579c4.604-4.086 9.969-7.225 15.787-9.236 5.819-2.012 11.977-2.857 18.122-2.488.75 0 1.51.11 2.25.19l.77.1c.48.06 1 .12 1.45.2l.92.16 1.25.23 1 .22c.38.08.75.17 1.12.27l1.06.28 1 .29 1.14.35.74.26c2.285.8 4.505 1.777 6.64 2.92h.1c.55.3 1.09.61 1.63.93l.11.06c5.313 3.162 9.947 7.345 13.636 12.307 3.688 4.962 6.358 10.606 7.855 16.605 1.496 5.999 1.791 12.235.865 18.348-.925 6.113-3.051 11.983-6.256 17.27 4 .5 8.046 1.147 12.14 1.94 4.054-8.146 6.15-17.126 6.12-26.226-.03-9.099-2.185-18.065-6.294-26.184-4.108-8.119-10.056-15.166-17.37-20.579s-15.791-9.044-24.756-10.601z" fill="#fff" opacity=".2"/><g fill="#5dd6b0"><path d="m808.21 662c-.34-.5-.68-1-1-1.52.32.52.66 1.06 1 1.52z"/><path d="m802.5 650.74c-.23-.68-.45-1.37-.65-2.06.2.69.42 1.38.65 2.06z"/><path d="m801.65 648c-.15-.55-.3-1.1-.43-1.65.13.5.28 1.05.43 1.65z"/><path d="m804.49 655.62c-.33-.71-.66-1.43-1-2.16.34.73.67 1.45 1 2.16z"/><path d="m805.61 657.81c-.3-.56-.59-1.13-.87-1.7.26.57.57 1.14.87 1.7z"/><path d="m801 645.41c-.11-.51-.21-1-.3-1.54.11.51.21 1.03.3 1.54z"/><path d="m806.85 660c-.32-.52-.62-1-.92-1.57.3.48.6 1 .92 1.57z"/><path d="m870.78 595.27c2.799 1.674 5.416 3.635 7.81 5.85-7.16-5.48-17-9.9-26.63-10.48-6.145-.371-12.303.474-18.121 2.485s-11.183 5.15-15.787 9.237-8.357 9.041-11.045 14.58c-2.687 5.538-4.256 11.552-4.617 17.698-.36 5.91 1.4 12.58 3.09 17.91 1.171 3.939 2.852 7.707 5 11.21 7.31-1.5 16.25-3 26.23-4.06-3.64-1.68-5.32-5-4.94-11.37.1-1.962.364-3.912.79-5.83l9.56.57c-.171.878-.282 1.767-.33 2.66-.24 4-.12 6.22 3.76 6.45s4.3-1.12 4.61-6.2c.15-2.5.2-3.36-1.11-4.65-2.68-2.84-9.63-5.08-12.85-7.69-2.89-2.25-3.4-5.22-2.92-13.23.55-9.22 3.5-12.15 12.31-12.06l.32-5.33 5.43.33-.32 5.33c8.07.83 10.74 3.84 10.25 12-.098 1.757-.319 3.504-.66 5.23l-9.47-.57c.13-.77.18-1.63.26-2.92.22-3.62-.19-5.46-3.81-5.68-3.1-.18-4 .8-4.28 5.11-.27 4.48 0 4.92 2.81 6.39 3.1 1.66 6.14 2.79 8.82 4.25 3.76 2.13 6.3 3.14 5.76 12-.41 7-1.41 11.33-3.85 13.86 10.022-.244 20.048.24 30 1.45 3.205-5.287 5.331-11.157 6.257-17.27.925-6.113.631-12.349-.866-18.348s-4.166-11.643-7.855-16.605c-3.688-4.962-8.323-9.145-13.636-12.307z"/><path d="m856.27 589.64 1 .22z"/><path d="m854.1 589.25.92.16z"/><path d="m851.88 589 .77.1z"/><path d="m800.56 642.9c-.09-.5-.16-1-.22-1.52.06.51.13 1.02.22 1.52z"/><path d="m858.38 590.13 1.06.28z"/><path d="m800.22 640.39c-.05-.52-.09-1-.13-1.57.04.52.08 1.05.13 1.57z"/><path d="m869 594.28c.55.3 1.09.61 1.63.93-.5-.32-1.04-.63-1.63-.93z"/><path d="m800 635.29c0-.85 0-1.71.08-2.58-.08.87-.08 1.73-.08 2.58z"/><path d="m803.5 653.38c-.33-.78-.63-1.57-.91-2.37.28.8.58 1.59.91 2.37z"/><path d="m809.56 663.91c-.33-.44-.67-.89-1-1.34.327.447.66.893 1 1.34z"/><path d="m860.42 590.7 1.14.35z"/><path d="m862.3 591.31c2.285.8 4.505 1.777 6.64 2.92-2.135-1.143-4.355-2.12-6.64-2.92z"/><path d="m855 589.41 1.25.23z"/></g><path d="m855 589.41 1.25.23z" fill="#fff" opacity=".2"/><path d="m855 589.41 1.25.23z" fill="#000" opacity=".2"/><path d="m852.65 589.05c.48.06 1 .12 1.45.2-.48-.08-.97-.14-1.45-.2z" fill="#5dd6b0"/><path d="m852.65 589.05c.48.06 1 .12 1.45.2-.48-.08-.97-.14-1.45-.2z" fill="#fff" opacity=".2"/><path d="m852.65 589.05c.48.06 1 .12 1.45.2-.48-.08-.97-.14-1.45-.2z" fill="#000" opacity=".2"/><path d="m849.63 588.76c.75 0 1.51.11 2.25.19-.74-.08-1.5-.14-2.25-.19z" fill="#5dd6b0"/><path d="m849.63 588.76c.75 0 1.51.11 2.25.19-.74-.08-1.5-.14-2.25-.19z" fill="#fff" opacity=".2"/><path d="m849.63 588.76c.75 0 1.51.11 2.25.19-.74-.08-1.5-.14-2.25-.19z" fill="#000" opacity=".2"/><path d="m857.26 589.86c.38.08.75.18 1.12.27-.38-.13-.74-.19-1.12-.27z" fill="#5dd6b0"/><path d="m857.26 589.86c.38.08.75.18 1.12.27-.38-.13-.74-.19-1.12-.27z" fill="#fff" opacity=".2"/><path d="m857.26 589.86c.38.08.75.18 1.12.27-.38-.13-.74-.19-1.12-.27z" fill="#000" opacity=".2"/><path d="m800.72 643.87c-.06-.32-.11-.64-.16-1 .05.36.1.68.16 1z" fill="#5dd6b0"/><path d="m800.72 643.87c-.06-.32-.11-.64-.16-1 .05.36.1.68.16 1z" fill="#fff" opacity=".2"/><path d="m800.72 643.87c-.06-.32-.11-.64-.16-1 .05.36.1.68.16 1z" fill="#000" opacity=".2"/><path d="m807.2 660.52c-.12-.19-.24-.38-.35-.57.15.19.23.38.35.57z" fill="#5dd6b0"/><path d="m807.2 660.52c-.12-.19-.24-.38-.35-.57.15.19.23.38.35.57z" fill="#fff" opacity=".2"/><path d="m807.2 660.52c-.12-.19-.24-.38-.35-.57.15.19.23.38.35.57z" fill="#000" opacity=".2"/><path d="m805.93 658.38c-.1-.19-.21-.38-.32-.57.11.19.22.38.32.57z" fill="#5dd6b0"/><path d="m805.93 658.38c-.1-.19-.21-.38-.32-.57.11.19.22.38.32.57z" fill="#fff" opacity=".2"/><path d="m805.93 658.38c-.1-.19-.21-.38-.32-.57.11.19.22.38.32.57z" fill="#000" opacity=".2"/><path d="m804.74 656.11c-.08-.17-.17-.33-.25-.49.08.16.17.32.25.49z" fill="#5dd6b0"/><path d="m804.74 656.11c-.08-.17-.17-.33-.25-.49.08.16.17.32.25.49z" fill="#fff" opacity=".2"/><path d="m804.74 656.11c-.08-.17-.17-.33-.25-.49.08.16.17.32.25.49z" fill="#000" opacity=".2"/><path d="m808.57 662.56-.36-.52z" fill="#5dd6b0"/><path d="m808.57 662.56-.36-.52z" fill="#fff" opacity=".2"/><path d="m808.57 662.56-.36-.52z" fill="#000" opacity=".2"/><path d="m859.44 590.41 1 .29z" fill="#5dd6b0"/><path d="m859.44 590.41 1 .29z" fill="#fff" opacity=".2"/><path d="m859.44 590.41 1 .29z" fill="#000" opacity=".2"/><path d="m870.67 595.21.11.06z" fill="#5dd6b0"/><path d="m870.67 595.21.11.06z" fill="#fff" opacity=".2"/><path d="m870.67 595.21.11.06z" fill="#000" opacity=".2"/><path d="m801.22 646.3c-.07-.3-.13-.59-.2-.89.07.3.13.59.2.89z" fill="#5dd6b0"/><path d="m801.22 646.3c-.07-.3-.13-.59-.2-.89.07.3.13.59.2.89z" fill="#fff" opacity=".2"/><path d="m801.22 646.3c-.07-.3-.13-.59-.2-.89.07.3.13.59.2.89z" fill="#000" opacity=".2"/><path d="m800.34 641.38-.12-1z" fill="#5dd6b0"/><path d="m800.34 641.38-.12-1z" fill="#fff" opacity=".2"/><path d="m800.34 641.38-.12-1z" fill="#000" opacity=".2"/><path d="m800.09 638.82c0-.33-.05-.65-.06-1-.03.36.04.67.06 1z" fill="#5dd6b0"/><path d="m800.09 638.82c0-.33-.05-.65-.06-1-.03.36.04.67.06 1z" fill="#fff" opacity=".2"/><path d="m800.09 638.82c0-.33-.05-.65-.06-1-.03.36.04.67.06 1z" fill="#000" opacity=".2"/><path d="m861.56 591.05.74.26z" fill="#5dd6b0"/><path d="m861.56 591.05.74.26z" fill="#fff" opacity=".2"/><path d="m861.56 591.05.74.26z" fill="#000" opacity=".2"/><path d="m802.59 651-.09-.27z" fill="#5dd6b0"/><path d="m802.59 651-.09-.27z" fill="#fff" opacity=".2"/><path d="m802.59 651-.09-.27z" fill="#000" opacity=".2"/><path d="m801.85 648.68c-.07-.24-.14-.49-.2-.73.06.24.13.49.2.73z" fill="#5dd6b0"/><path d="m801.85 648.68c-.07-.24-.14-.49-.2-.73.06.24.13.49.2.73z" fill="#fff" opacity=".2"/><path d="m801.85 648.68c-.07-.24-.14-.49-.2-.73.06.24.13.49.2.73z" fill="#000" opacity=".2"/><path d="m802.39 634.59c.361-6.146 1.93-12.16 4.617-17.698 2.688-5.539 6.441-10.493 11.045-14.58s9.968-7.226 15.787-9.237c5.818-2.011 11.976-2.856 18.121-2.485 9.67.58 19.47 5 26.63 10.48-2.394-2.215-5.011-4.176-7.81-5.85l-.11-.06c-.54-.32-1.08-.63-1.63-.93h-.1c-2.135-1.143-4.355-2.12-6.64-2.92l-.74-.26-1.14-.35-1-.29-1.06-.28c-.37-.09-.74-.19-1.12-.27l-1-.22-1.25-.23-.92-.16c-.48-.08-1-.14-1.45-.2l-.77-.1c-.74-.08-1.5-.14-2.25-.19-6.145-.369-12.303.476-18.121 2.488-5.819 2.011-11.184 5.15-15.788 9.236-4.605 4.087-8.359 9.041-11.048 14.579s-4.26 11.551-4.623 17.697c0 .87-.07 1.73-.08 2.58v.83 1.73c0 .32 0 .64.06 1 0 .52.08 1 .13 1.57l.12 1c.06.51.13 1 .22 1.52.05.33.1.65.16 1 .09.51.19 1 .3 1.54.07.3.13.59.2.89.13.55.28 1.1.43 1.65.06.24.13.49.2.73.2.69.42 1.38.65 2.06l.09.27c.28.8.58 1.59.91 2.37v.08c.3.73.63 1.45 1 2.16.08.16.17.32.25.49.28.57.57 1.14.87 1.7.11.19.22.38.32.57.3.53.6 1 .92 1.57.11.19.23.38.35.57.33.51.67 1 1 1.52l.36.52c.32.45.66.9 1 1.34l.93-.19c-2.149-3.503-3.829-7.271-5-11.21-1.62-5.45-3.41-12.12-3.02-18.03z" fill="#5dd6b0"/><path d="m802.39 634.59c.361-6.146 1.93-12.16 4.617-17.698 2.688-5.539 6.441-10.493 11.045-14.58s9.968-7.226 15.787-9.237c5.818-2.011 11.976-2.856 18.121-2.485 9.67.58 19.47 5 26.63 10.48-2.394-2.215-5.011-4.176-7.81-5.85l-.11-.06c-.54-.32-1.08-.63-1.63-.93h-.1c-2.135-1.143-4.355-2.12-6.64-2.92l-.74-.26-1.14-.35-1-.29-1.06-.28c-.37-.09-.74-.19-1.12-.27l-1-.22-1.25-.23-.92-.16c-.48-.08-1-.14-1.45-.2l-.77-.1c-.74-.08-1.5-.14-2.25-.19-6.145-.369-12.303.476-18.121 2.488-5.819 2.011-11.184 5.15-15.788 9.236-4.605 4.087-8.359 9.041-11.048 14.579s-4.26 11.551-4.623 17.697c0 .87-.07 1.73-.08 2.58v.83 1.73c0 .32 0 .64.06 1 0 .52.08 1 .13 1.57l.12 1c.06.51.13 1 .22 1.52.05.33.1.65.16 1 .09.51.19 1 .3 1.54.07.3.13.59.2.89.13.55.28 1.1.43 1.65.06.24.13.49.2.73.2.69.42 1.38.65 2.06l.09.27c.28.8.58 1.59.91 2.37v.08c.3.73.63 1.45 1 2.16.08.16.17.32.25.49.28.57.57 1.14.87 1.7.11.19.22.38.32.57.3.53.6 1 .92 1.57.11.19.23.38.35.57.33.51.67 1 1 1.52l.36.52c.32.45.66.9 1 1.34l.93-.19c-2.149-3.503-3.829-7.271-5-11.21-1.62-5.45-3.41-12.12-3.02-18.03z" fill="#000" opacity=".2"/><path d="m855 632.47c-2.68-1.46-5.72-2.59-8.82-4.25-2.85-1.47-3.08-1.91-2.81-6.39.25-4.31 1.18-5.29 4.28-5.11 3.62.22 4 2.06 3.81 5.68-.08 1.29-.13 2.15-.26 2.92l9.47.57c.341-1.726.562-3.473.66-5.23.49-8.19-2.18-11.2-10.25-12l.32-5.33-5.43-.33-.32 5.33c-8.81-.09-11.76 2.84-12.31 12.06-.48 8 0 11 2.92 13.23 3.22 2.61 10.17 4.85 12.85 7.69 1.31 1.29 1.26 2.15 1.11 4.65-.31 5.08-.82 6.43-4.61 6.2s-4-2.48-3.76-6.45c.048-.893.159-1.782.33-2.66l-9.56-.57c-.426 1.918-.69 3.868-.79 5.83-.38 6.4 1.3 9.69 4.94 11.37 6.34-.67 13.1-1.14 20.14-1.3 2.44-2.53 3.44-6.9 3.85-13.86.49-8.91-2.05-9.92-5.76-12.05z" fill="#fff"/><path d="m794 660.52s58-18.52 112-3.52l-3 6-5-1.14c-31-5.86-66-3.86-101 5.14z" fill="#000" opacity=".3"/><path d="m801.05 419.16-8.12-1c17.14 2.15 28.55 27.82 25.74 59-2.91 32.46-20.11 58.61-38.41 58.39-.71 0-1.41-.06-2.11-.14l8.12 1c.7.082 1.405.129 2.11.14 18.3.22 35.5-25.93 38.41-58.39 2.8-31.16-8.61-56.84-25.74-59z" fill="#5dd6b0"/><path d="m801.05 419.16-8.12-1c17.14 2.15 28.55 27.82 25.74 59-2.91 32.46-20.11 58.61-38.41 58.39-.71 0-1.41-.06-2.11-.14l8.12 1c.7.082 1.405.129 2.11.14 18.3.22 35.5-25.93 38.41-58.39 2.8-31.16-8.61-56.84-25.74-59z" fill="#000" opacity=".2"/><path d="m818.67 477.16c-2.91 32.46-20.11 58.61-38.41 58.39s-30.77-26.74-27.85-59.19 20.11-58.58 38.41-58.36 30.77 26.71 27.85 59.16z" fill="#5dd6b0"/><path d="m818.67 477.16c-2.91 32.46-20.11 58.61-38.41 58.39s-30.77-26.74-27.85-59.19 20.11-58.58 38.41-58.36 30.77 26.71 27.85 59.16z" fill="#fff" opacity=".04"/><path d="m811.43 477.36c-2.42 27-16.73 48.76-31.95 48.57s-25.6-22.24-23.17-49.24 16.73-48.73 32-48.55 25.55 22.22 23.12 49.22z" fill="#5dd6b0"/><path d="m811.43 477.36c-2.42 27-16.73 48.76-31.95 48.57s-25.6-22.24-23.17-49.24 16.73-48.73 32-48.55 25.55 22.22 23.12 49.22z" fill="#5dd6b0"/><path d="m758.26 477.67c2.42-27 16.73-48.74 32-48.55 2.066.025 4.106.464 6 1.29-2.401-1.441-5.14-2.224-7.94-2.27-15.22-.18-29.53 21.55-32 48.55-2.1 23.29 5.34 42.89 17.19 48-10.72-6.33-17.23-25.04-15.25-47.02z" fill="#000" opacity=".2"/><path d="m776.39 509.35 1-6.52c-5.71-3.38-8.22-7.41-6.89-16.29.267-1.868.661-3.716 1.18-5.53l7.26 3.83c-.16.64-.35 1.44-.52 2.53-.57 3.86-.7 6.14 2.25 7.69s3.4.35 4.14-4.59c.36-2.43.49-3.27-.39-5-1.77-3.74-6.87-8.33-9.07-12-2-3.22-2.09-6.35-.93-14.14 1.34-9 3.88-10.88 10.62-7.78l.77-5.18 4.12 2.17-.77 5.19c6.1 3.58 7.85 7.48 6.66 15.44-.229 1.686-.563 3.356-1 5l-7.2-3.8c.18-.72.3-1.56.49-2.82.52-3.52.39-5.48-2.35-6.93-2.36-1.24-3.16-.58-3.79 3.61-.65 4.35-.52 4.88 1.52 7.31 2.21 2.7 4.43 4.86 6.34 7.22 2.67 3.4 4.51 5.27 3.22 13.9-1.81 12.15-4.21 15.41-11.5 12.29l-1 6.61z" fill="#fff"/><path d="m633.57 459.28c-.306-.167-.662-.218-1.002-.142-.34.075-.641.271-.848.552l-9.43 8.24h-.56l7.86-15.42c.158-.374.171-.793.038-1.176-.134-.383-.404-.703-.76-.899-.356-.195-.771-.251-1.166-.158s-.741.329-.972.663l-2.6 3.91 3-6.22c.21-.442.251-.946.114-1.416-.136-.469-.44-.873-.854-1.134-.443-.269-.973-.356-1.478-.242-.506.114-.947.419-1.232.852l-10.39 16.31-.75-.19 6.55-13.69c.16-.332.192-.711.089-1.064-.103-.354-.333-.657-.646-.851s-.687-.265-1.05-.199c-.362.065-.687.263-.913.554l-4.33 6.44-5.43 8.33-.26-1.17c2.77-8.3 1.47-9.51.44-10.45-.091-.079-.2-.135-.317-.163-.118-.028-.24-.028-.357 0-.118.029-.226.084-.318.163-.091.079-.163.178-.208.29l-6.08 14.89-5 18 1.79 1.39-1.68-1.2-47.86 63.82-37.32 13.26 8.19 23.15 40.44-16.13c3.64-1.453 6.691-4.078 8.67-7.46l40.59-67.6 10.58-11c2.759-3.348 5.32-6.854 7.67-10.5l8.42-10.36c.093-.171.15-.358.168-.551.019-.193-.002-.388-.061-.573s-.154-.356-.281-.503-.282-.267-.456-.353z" fill="#fc9d9d"/><path d="m633.57 459.28c-.306-.167-.662-.218-1.002-.142-.34.075-.641.271-.848.552l-9.43 8.24h-.56l7.86-15.42c.158-.374.171-.793.038-1.176-.134-.383-.404-.703-.76-.899-.356-.195-.771-.251-1.166-.158s-.741.329-.972.663l-2.6 3.91 3-6.22c.21-.442.251-.946.114-1.416-.136-.469-.44-.873-.854-1.134-.443-.269-.973-.356-1.478-.242-.506.114-.947.419-1.232.852l-10.39 16.31-.75-.19 6.55-13.69c.16-.332.192-.711.089-1.064-.103-.354-.333-.657-.646-.851s-.687-.265-1.05-.199c-.362.065-.687.263-.913.554l-4.33 6.44-5.43 8.33-.26-1.17c2.77-8.3 1.47-9.51.44-10.45-.091-.079-.2-.135-.317-.163-.118-.028-.24-.028-.357 0-.118.029-.226.084-.318.163-.091.079-.163.178-.208.29l-6.08 14.89-5 18 1.79 1.39-1.68-1.2-47.86 63.82-37.32 13.26 8.19 23.15 40.44-16.13c3.64-1.453 6.691-4.078 8.67-7.46l40.59-67.6 10.58-11c2.759-3.348 5.32-6.854 7.67-10.5l8.42-10.36c.093-.171.15-.358.168-.551.019-.193-.002-.388-.061-.573s-.154-.356-.281-.503-.282-.267-.456-.353z" fill="#000" opacity=".1"/><path d="m483.93 569.07 25.52-8.77 1.97 5.32-25.4 7.91z" fill="#ffb39c"/><path d="m483.93 569.07 25.52-8.77 1.97 5.32-25.4 7.91z" fill="#000" opacity=".2"/><path d="m496.34 967.52 2.33 43.77c.73 5.94 1.24 8.58 1.17 13l14.3 25.81 16.06 8 4.1-5.65-17.74-30.87c-1.47-2-2.42-5.94-2.42-9.68l3.54-39.67z" fill="#fc9d9d"/><path d="m531.18 1055.79-18.36-8.1-13-23.42c.07-4.4-.44-7-1.17-13l1.18-22.19h18.36l.28 8.29c-2.575.897-5.199 1.645-7.86 2.24-.797.135-1.516.56-2.015 1.2-.499.63-.744 1.43-.685 2.24l-3.65 15.85c.151 2.12.869 4.17 2.08 5.92l13.9 20.15s5.37 7.67 13.85 7.1l.12.21z" fill="#000" opacity=".15"/><path d="m547.58 1062.69c.123.29.171.61.142.92-.03.31-.137.61-.311.87-.174.27-.411.48-.689.63-.277.15-.587.22-.902.22h-17.38c-2.473 0-4.914-.56-7.147-1.62-2.233-1.07-4.201-2.61-5.763-4.53l-11.14-13.64c-.189-.24-.446-.41-.738-.5-.291-.09-.602-.08-.89.01-.289.1-.541.28-.722.53-.181.24-.282.54-.29.84l-.59 18.84h-2.16l-2.64-18.33c-1.103-7.72.072-15.6 3.38-22.66l18.26 22.15c1.931 2.34 4.444 4.14 7.287 5.21 2.843 1.06 5.917 1.36 8.913.87l8.43 5.14c2.238.98 4.011 2.79 4.95 5.05z" fill="#ffb39c"/><path d="m389.25 876.66-43.8 1.82c-5.94.66-8.59 1.14-13 1l-26 14-8.18 16 5.59 4.17 31.14-17.4c2-1.45 6-2.35 9.71-2.31l39.62 4z" fill="#fc9d9d"/><path d="m300.58 910.47 8.31-18.27 23.57-12.7c4.4.12 7.05-.36 13-1l22.18 1.43-.21 18.36-8.3.19c-.862-2.587-1.577-5.221-2.14-7.89-.13-.796-.55-1.516-1.18-2.021-.63-.504-1.424-.757-2.23-.709l-15.82-3.86c-2.122.129-4.172.819-5.94 2l-20.31 13.66s-7.74 5.29-7.27 13.77l-.2.12z" fill="#000" opacity=".15"/><path d="m293.48 926.78c-.29.12-.606.165-.918.132-.313-.033-.612-.143-.871-.321-.259-.177-.47-.417-.613-.696-.144-.28-.215-.591-.208-.905l.2-17.37c.032-2.475.615-4.911 1.707-7.132 1.091-2.221 2.664-4.171 4.603-5.708l13.77-11c.241-.186.418-.442.508-.732.091-.29.089-.602-.004-.891-.093-.29-.272-.544-.515-.727-.242-.184-.535-.289-.839-.3l-18.84-.81v-2.13l18.37-2.42c7.729-1.019 15.588.242 22.61 3.63l-22.35 18c-2.368 1.905-4.194 4.399-5.296 7.231s-1.442 5.904-.984 8.909l-5.23 8.37c-1.007 2.221-2.835 3.966-5.1 4.87z" fill="#ffb39c"/><path d="m422.28 511.2s-17.14-3.26-24.57 10c-.92 1.65-1.86 3.3-2.9 4.89-3.81 5.91-12.12 17.21-19.81 19.29l2.82 2.8s8.42-3.53 11.57-8.81c0 0-2.44 8.79-7.7 12.66 0 0 4.24 9.12 21.47 19.26 0 0 13.45-8.25 14.61-24.35 0-.76 0-1.53 0-2.3 0-2 .47-8.73 7.42-16.14z" fill="#797979"/><path d="m478.56 502.63s6.87 7.42 9 11.6l2.59 5.08 7.21 6.7c.296.283.493.653.562 1.057.068.404.004.819-.182 1.183l-3.17 2.11 1.68 13.76c.51 4.41-1.17 6.4-5.43 7.57l-9.06 2.82c-.436.13-.809.416-1.049.803-.239.387-.329.849-.251 1.297l7 21-29 10.29-4.46-36.41s-3.7-38-4-37.8z" fill="#fc9d9d"/><path d="m489 519.84c-.104-.482-.392-.905-.803-1.178s-.912-.374-1.397-.282c-.222.08-.425.204-.599.363s-.314.351-.414.565c-.099.213-.156.445-.165.68-.01.236.027.471.108.692.099.483.384.907.795 1.181.41.273.911.373 1.395.279.223-.078.429-.2.604-.359.176-.158.318-.35.419-.564.1-.214.157-.446.167-.683.01-.236-.028-.472-.11-.694z" fill="#000"/><path d="m488.42 519.4c-.037-.063-.091-.114-.157-.146-.065-.032-.138-.044-.211-.034-.072.009-.14.04-.195.088-.054.047-.094.11-.113.181-.02.07-.018.144.005.213.023.07.066.13.123.175s.126.073.199.078c.073.006.145-.01.209-.045.08-.055.138-.136.163-.229.026-.094.018-.193-.023-.281z" fill="#fff"/><path d="m480.7 556.94.53 1.85-7.89-1.45c-.12-.045-.221-.128-.29-.236-.068-.108-.1-.235-.09-.363.011-.127.062-.248.147-.344.084-.096.198-.161.323-.187l8.84-2c-.392.073-.75.269-1.022.561-.272.291-.443.663-.488 1.059 0 .371-.02.741-.06 1.11z" fill="#000" opacity=".15"/><path d="m495.58 538.91c-1.053-.094-2.072-.422-2.982-.96s-1.688-1.273-2.278-2.15c1.604.44 3.273.592 4.93.45z" fill="#fff"/><path d="m486.92 515s-2.68-.72-5.61 3.39c0 0 3.45-2.92 5.61-3.39z" fill="#000"/><path d="m423.723 531.631.269.007c1.844.055 3.383-1.396 3.437-3.24l.43-14.664c.054-1.844-1.397-3.382-3.241-3.436l-.269-.008c-1.844-.054-3.383 1.397-3.437 3.24l-.43 14.664c-.054 1.844 1.397 3.382 3.241 3.437z" fill="#ffb39c"/><path d="m462.51 493.33s16.31-9.82 25 10.21z" fill="#797979"/><path d="m464.27 534s-1.27 14.4-9.75 23.52c0 0-16.35-2.68-26.74-20.87-10.29-18 3.42-35.24 6.06-37.22l1.06-.81c16.18-12.28 28.52-5.69 28.52-5.69 15.28-7.21 22.38 12.18 22.38 12.18s-6.21 8.12-19.09 12.12l.15 3.34c.204 4.618-.683 9.219-2.59 13.43z" fill="#797979"/><path d="m533.77 736.13 1.59 151.51-15.15 133.17h-23.92l-.8-135.56-5.98-155.9z" fill="#797979"/><path d="m648.215 502.297c30.362-10.431 46.52-43.5 36.089-73.863-10.431-30.362-43.5-46.52-73.863-36.089-30.362 10.431-46.52 43.5-36.089 73.863 10.431 30.362 43.5 46.52 73.863 36.089z" fill="#5dd6b0"/><path d="m648.215 502.297c30.362-10.431 46.52-43.5 36.089-73.863-10.431-30.362-43.5-46.52-73.863-36.089-30.362 10.431-46.52 43.5-36.089 73.863 10.431 30.362 43.5 46.52 73.863 36.089z" fill="#000" opacity=".2"/><path d="m629.009 504.641c32.015-2.396 56.026-30.291 53.63-62.306s-30.292-56.025-62.306-53.629c-32.015 2.396-56.026 30.291-53.63 62.306 2.396 32.014 30.291 56.025 62.306 53.629z" fill="#5dd6b0"/><path d="m629.009 504.641c32.015-2.396 56.026-30.291 53.63-62.306s-30.292-56.025-62.306-53.629c-32.015 2.396-56.026 30.291-53.63 62.306 2.396 32.014 30.291 56.025 62.306 53.629z" fill="#fff" opacity=".2"/><path d="m648.681 482.97c22.148-13.134 29.455-41.735 16.321-63.883-13.135-22.147-41.736-29.454-63.884-16.32-22.147 13.134-29.454 41.735-16.32 63.883 13.134 22.147 41.735 29.454 63.883 16.32z" fill="#5dd6b0"/><path d="m580.51 444.67c1.033-12.323 6.92-23.731 16.364-31.714 9.444-7.984 21.673-11.888 33.996-10.856 9.61.81 19.25 5.44 26.24 11.06-4.365-4.418-9.569-7.918-15.306-10.296s-11.892-3.586-18.102-3.552-12.351 1.308-18.062 3.748c-5.711 2.441-10.876 5.998-15.193 10.463-4.317 4.464-7.698 9.747-9.945 15.537-2.246 5.789-3.313 11.97-3.138 18.178.176 6.207 1.59 12.318 4.16 17.971 2.57 5.654 6.244 10.737 10.806 14.951-4.286-5.154-7.414-11.17-9.17-17.64-1.55-5.31-3.16-11.98-2.65-17.85z" fill="#000" opacity=".2"/><path d="m619.17 478.58.56-6.67c-7.51-1-11.06-3.86-10.3-12.93.151-1.948.458-3.881.92-5.78l9.5.8c-.187.867-.317 1.746-.39 2.63-.33 3.94-.26 6.19 3.59 6.51s4.31-1 4.73-6.07c.21-2.48.28-3.33-1-4.65-2.6-2.89-9.47-5.27-12.6-7.95-2.83-2.31-3.27-5.27-2.6-13.23.77-9.16 3.77-12 12.53-11.71l.45-5.3 5.39.46-.45 5.29c8 1 10.61 4.08 9.93 12.21-.146 1.749-.407 3.486-.78 5.2l-9.42-.79c.159-.964.27-1.935.33-2.91.3-3.59-.06-5.43-3.65-5.73-3.09-.26-4 .69-4.39 5-.37 4.45-.15 4.9 2.65 6.43 3.05 1.72 6.05 2.92 8.68 4.44 3.69 2.2 6.19 3.27 5.45 12.09-1 12.41-3.71 16.5-13.18 16.39l-.57 6.75z" fill="#fff"/><path d="m513.3 763.12c2.203 8.799 3.006 17.891 2.38 26.94l-6.23 90-6.85 140.74-5.91.4-1.6-135.56 12.2-153.83 1.36 12.69z" fill="#000" opacity=".3"/><path d="m466.63 535.69-2.94.27-1.05 3.06z" fill="#000" opacity=".15"/><path d="m468.38 725s-23.38 21.38-13.38 54.92c2.422 8.536 3.931 17.305 4.5 26.16.553 8.214.137 16.464-1.24 24.58l-4.26 25.09-118 20.73.8 23.12h138.5c4.151 0 8.179-1.408 11.425-3.995 3.247-2.587 5.519-6.199 6.445-10.245l23.06-109.36 2.77-41.5-23.87-20.3z" fill="#797979"/><path d="m527 594.16-14 6.41 18.34 23.92s8.79 11.72 2.5 20.42c-1.169 1.553-2.2 3.206-3.08 4.94-2.74 5.67-4.34 22.12-1 37.64 0 0 6.38 35.09 4 48.64l-36-5.86-1.87-11.27-6.05 10-24.65-4 5.74-16.06c3.696-10.17 4.591-21.146 2.59-31.78-1.035-5.375-2.851-10.57-5.39-15.42-1.87-3.57-3.66-7.18-5.29-10.88l-12.32-28c-2.679-5.969-3.694-12.551-2.94-19.05.05-.38.1-.76.16-1.14.824-4.916 2.946-9.522 6.145-13.344 3.2-3.822 7.361-6.72 12.055-8.396l49.94-18.33z" fill="#ffb39c"/><path d="m635.42 460.17c-.314-.149-.671-.179-1.005-.085-.335.093-.624.305-.815.595l-9 8.72h-.6l7.06-15.81c.163-.385.173-.818.026-1.21-.147-.391-.439-.711-.816-.894-.376-.182-.808-.213-1.206-.086-.399.128-.733.403-.934.77l-2.4 4 2.7-6.37c.187-.452.202-.958.042-1.42-.16-.463-.485-.851-.912-1.09-.457-.247-.992-.308-1.492-.168s-.926.469-1.188.918l-9.56 16.83-.76-.14 5.84-14c.137-.338.145-.714.023-1.057s-.365-.63-.684-.806-.691-.229-1.047-.15c-.355.08-.669.287-.882.583l-4 6.71-5 8.59-.32-1.16c2.34-8.42 1-9.56-.09-10.45-.095-.075-.207-.127-.327-.15-.119-.023-.242-.017-.359.017-.116.035-.223.096-.31.18-.088.084-.155.188-.194.303l-5.21 15.21-4.11 18.2 1.86 1.3-1.75-1.11-44.65 63.79-36.68 13.56 9.52 26.71 39.57-18.18c3.554-1.645 6.455-4.434 8.24-7.92l37.09-69.59 10-11.54c2.587-3.485 4.967-7.117 7.13-10.88l7.88-10.78c.083-.172.132-.359.142-.549.011-.191-.016-.382-.079-.562-.063-.181-.161-.347-.289-.489-.127-.142-.282-.258-.454-.34z" fill="#fc9d9d"/><path d="m620.46 467c-.079.014-.16.014-.24 0-.125-.066-.219-.178-.262-.313s-.031-.281.032-.407l6.45-12.69c.064-.124.175-.218.308-.261s.277-.032.402.031c.063.031.118.074.164.126.045.053.08.114.101.18.022.067.03.136.024.206-.006.069-.026.137-.059.198l-6.44 12.69c-.051.079-.123.143-.207.185-.085.042-.179.061-.273.055z" fill="#000" opacity=".0225"/><path d="m610.72 495.71-36.72 69.19c-1.798 3.48-4.709 6.258-8.27 7.89l-39.54 18.21-2.39-6 38.33-17.74c3.078-1.429 5.641-3.772 7.34-6.71l38.86-67.25s10.36-9.57 13.55-13.56l4.79-7.17 9.46-11.65s.77.32-.36 1.6l-7.94 11-2.47 4.12c-1.782 2.97-3.83 5.772-6.12 8.37z" fill="#000" opacity=".1"/><path d="m527 594.16-14 6.41 2.79 4.39 2.39 3.19c-12.76 2.39-22.33-5.59-22.33-5.59l29.15-14.2z" fill="#000" opacity=".2"/><path d="m465.22 724.88 11.39 2 6.12-33c4.39-18.74-5.58-35.88-5.58-35.88l-3-6.21c-4.644-9.604-9.922-18.888-15.8-27.79-12.17-18.44-5.48-33.68-5-34.64-3.172 4.192-5.152 9.164-5.73 14.39-.754 6.499.261 13.081 2.94 19.05l12.32 28c1.63 3.7 3.42 7.31 5.3 10.88 2.532 4.852 4.344 10.046 5.38 15.42 2.001 10.634 1.107 21.61-2.59 31.78z" fill="#000" opacity=".2"/><path d="m532.57 645.63-5.58 3.98 2.79 3.05z" fill="#000" opacity=".2"/><path d="m461.6 889.64-124.94 5.7.15 4.26h138.49c4.151 0 8.179-1.408 11.426-3.995 3.246-2.587 5.518-6.199 6.444-10.245l1.9-9c-3.21 16.94-33.47 13.28-33.47 13.28z" fill="#000" opacity=".3"/><path d="m454.43 851.36 9.57 4.78h-10.37z" fill="#000" opacity=".2"/><path d="m467.91 725.43c-3.25 3.26-22.06 23.79-12.93 54.49 2.423 8.536 3.931 17.305 4.5 26.16.553 8.214.136 16.464-1.24 24.58l-3.38 20.13.36.57 8.78 4.78c7-37.45 6.38-56.21 5.85-62.3-.131-1.366-.433-2.71-.9-4-13.06-37.34 8.6-62.87 8.6-62.87z" fill="#000" opacity=".3"/><path d="m467.3 535.65-.36-8.77c-3-8-13.44-4.42-10.13 3.47s10.09 5.18 10.09 5.18z" fill="#fc9d9d"/><path d="m464.23 528.59c.069.172.07.363.004.536-.067.173-.197.314-.364.394-.162.048-.336.035-.489-.037s-.274-.198-.341-.353c-.264-.714-.628-1.387-1.08-2-.348-.428-.82-.738-1.35-.89-.48-.05-.85.2-1.35.72-.04.069-.103.122-.178.149-.075.028-.157.028-.232.001-.1 0-.24 0-.42-.2-.113-.127-.176-.29-.176-.46s.063-.334.176-.46c.278-.331.626-.597 1.018-.778.392-.182.82-.275 1.252-.272.447.062.876.217 1.26.455s.715.553.97.925c.567.672 1.007 1.441 1.3 2.27z" fill="#000" opacity=".15"/><path d="m1155.8 1063.11c28.46-9.78 43.6-40.77 33.83-69.226-9.78-28.456-40.77-43.599-69.23-33.823s-43.6 40.769-33.82 69.229c9.77 28.45 40.77 43.6 69.22 33.82z" fill="#5dd6b0"/><path d="m1155.8 1063.11c28.46-9.78 43.6-40.77 33.83-69.226-9.78-28.456-40.77-43.599-69.23-33.823s-43.6 40.769-33.82 69.229c9.77 28.45 40.77 43.6 69.22 33.82z" fill="#000" opacity=".2"/><path d="m1137.77 1065.4c30-2.25 52.5-28.39 50.26-58.4-2.25-30.002-28.39-52.505-58.4-50.26-30 2.246-52.5 28.389-50.26 58.39 2.25 30.01 28.39 52.51 58.4 50.27z" fill="#5dd6b0"/><path d="m1137.77 1065.4c30-2.25 52.5-28.39 50.26-58.4-2.25-30.002-28.39-52.505-58.4-50.26-30 2.246-52.5 28.389-50.26 58.39 2.25 30.01 28.39 52.51 58.4 50.27z" fill="#fff" opacity=".2"/><path d="m1155.87 1048.62c20.82-12.21 27.8-38.98 15.59-59.802-12.21-20.818-38.99-27.798-59.8-15.588-20.82 12.209-27.8 38.98-15.59 59.8s38.98 27.8 59.8 15.59z" fill="#5dd6b0"/><path d="m1092.34 1009.14c.97-11.549 6.49-22.239 15.34-29.72s20.31-11.139 31.86-10.17c9 .76 18 5.1 24.59 10.36-4.13-3.987-9-7.122-14.33-9.227-5.34-2.104-11.04-3.136-16.78-3.038s-11.4 1.326-16.66 3.612-10.02 5.587-14.01 9.713-7.12 8.997-9.23 14.335c-2.1 5.335-3.13 11.035-3.03 16.775.09 5.74 1.32 11.4 3.61 16.66 2.28 5.26 5.58 10.02 9.71 14.01-4.01-4.83-6.94-10.48-8.58-16.54-1.46-5.01-2.95-11.26-2.49-16.77z" fill="#000" opacity=".2"/><path d="m1128.57 1040.93.52-6.25c-7-.91-10.36-3.62-9.64-12.12.13-1.83.42-3.64.86-5.42l8.9.75c-.17.82-.3 1.64-.37 2.47-.31 3.69-.24 5.8 3.37 6.1s4-1 4.43-5.69c.2-2.32.26-3.13-.93-4.36-2.43-2.71-8.87-4.94-11.81-7.45-2.65-2.16-3.06-4.94-2.43-12.4.72-8.59 3.53-11.26 11.74-11l.42-5 5 .43-.41 5c7.51 1 9.94 3.82 9.3 11.45-.13 1.635-.38 3.26-.74 4.86l-8.82-.74c.15-.9.26-1.808.31-2.72.28-3.37-.06-5.09-3.43-5.38-2.88-.24-3.77.66-4.1 4.67-.35 4.17-.15 4.59 2.48 6 2.85 1.61 5.67 2.74 8.13 4.16 3.46 2.07 5.8 3.07 5.11 11.33-1 11.63-3.48 15.46-12.36 15.36l-.53 6.33z" fill="#fff"/></svg>