<svg enable-background="new 0 0 1600 1200" fill="none" height="1200" viewBox="0 0 1600 1200" width="1600" xmlns="http://www.w3.org/2000/svg"><path d="m294.07 1056-59.71-542.94c-.791-7.192-.155-14.47 1.871-21.417 2.027-6.946 5.404-13.424 9.939-19.063l228.83-284.58c5.869-7.298 13.504-12.977 22.183-16.498 8.678-3.521 18.112-4.768 27.407-3.622l648.34 80c9.98 1.231 19.43 5.173 27.32 11.398 7.9 6.225 13.94 14.496 17.46 23.912l133.11 355.61c3.16 8.453 4.19 17.554 3 26.5l-51.76 390.7z" fill="#797979"/><path d="m294.07 1056-59.71-542.94c-.791-7.192-.155-14.47 1.871-21.417 2.027-6.946 5.404-13.424 9.939-19.063l228.83-284.58c5.869-7.298 13.504-12.977 22.183-16.498 8.678-3.521 18.112-4.768 27.407-3.622l648.34 80c9.98 1.231 19.43 5.173 27.32 11.398 7.9 6.225 13.94 14.496 17.46 23.912l133.11 355.61c3.16 8.453 4.19 17.554 3 26.5l-51.76 390.7z" fill="#fff" opacity=".9"/><path d="m483.8 631.64c24.853 0 45-20.147 45-45s-20.147-45-45-45-45 20.147-45 45 20.147 45 45 45z" fill="#fff"/><path d="m463.37 573.84c0-1.469.436-2.906 1.252-4.128.817-1.222 1.977-2.174 3.335-2.736 1.357-.563 2.851-.71 4.293-.423 1.441.286 2.765.994 3.804 2.033s1.747 2.363 2.033 3.805c.287 1.441.14 2.935-.422 4.292-.563 1.358-1.515 2.518-2.737 3.335-1.222.816-2.658 1.252-4.128 1.252-1.97 0-3.86-.783-5.254-2.176-1.393-1.394-2.176-3.283-2.176-5.254z" fill="#797979"/><path d="m467.6 601.41 27.45-35c.086-.11.193-.202.314-.27.121-.069.255-.112.394-.129.138-.017.278-.006.413.032.134.037.259.101.369.187l4.19 3.25c.22.177.362.433.396.713.034.281-.044.563-.216.787l-27.45 35c-.174.221-.427.365-.706.4-.279.036-.561-.04-.784-.21l-4.18-3.26c-.112-.085-.206-.192-.276-.314-.071-.122-.116-.257-.134-.396-.017-.14-.007-.282.031-.417.037-.136.102-.263.189-.373z" fill="#797979"/><path d="m496.8 607.26c-1.47 0-2.907-.436-4.129-1.253s-2.174-1.978-2.736-3.336-.709-2.853-.421-4.294c.287-1.442.996-2.766 2.036-3.804 1.04-1.039 2.365-1.746 3.807-2.031 1.442-.286 2.936-.137 4.293.426 1.358.564 2.518 1.518 3.333 2.741.815 1.224 1.249 2.661 1.247 4.131-.003 1.969-.787 3.856-2.18 5.247-1.393 1.392-3.281 2.173-5.25 2.173z" fill="#797979"/><g fill="#fff" opacity=".4"><path d="m463.37 573.84c0-1.469.436-2.906 1.252-4.128.817-1.222 1.977-2.174 3.335-2.736 1.357-.563 2.851-.71 4.293-.423 1.441.286 2.765.994 3.804 2.033s1.747 2.363 2.033 3.805c.287 1.441.14 2.935-.422 4.292-.563 1.358-1.515 2.518-2.737 3.335-1.222.816-2.658 1.252-4.128 1.252-1.97 0-3.86-.783-5.254-2.176-1.393-1.394-2.176-3.283-2.176-5.254z" opacity=".4"/><path d="m467.6 601.41 27.45-35c.086-.11.193-.202.314-.27.121-.069.255-.112.394-.129.138-.017.278-.006.413.032.134.037.259.101.369.187l4.19 3.25c.22.177.362.433.396.713.034.281-.044.563-.216.787l-27.45 35c-.174.221-.427.365-.706.4-.279.036-.561-.04-.784-.21l-4.18-3.26c-.112-.085-.206-.192-.276-.314-.071-.122-.116-.257-.134-.396-.017-.14-.007-.282.031-.417.037-.136.102-.263.189-.373z" opacity=".4"/><path d="m496.8 607.26c-1.47 0-2.907-.436-4.129-1.253s-2.174-1.978-2.736-3.336-.709-2.853-.421-4.294c.287-1.442.996-2.766 2.036-3.804 1.04-1.039 2.365-1.746 3.807-2.031 1.442-.286 2.936-.137 4.293.426 1.358.564 2.518 1.518 3.333 2.741.815 1.224 1.249 2.661 1.247 4.131-.003 1.969-.787 3.856-2.18 5.247-1.393 1.392-3.281 2.173-5.25 2.173z" opacity=".4"/></g><path d="m444.12 447.68c24.853 0 45-20.147 45-45s-20.147-45-45-45-45 20.147-45 45 20.147 45 45 45z" fill="#fff"/><path d="m468.28 387.3c-.094-.122-.216-.221-.354-.289-.139-.068-.292-.102-.446-.101h-38.57l-1.06-5.28c-.045-.231-.17-.439-.353-.587s-.412-.227-.647-.223h-6.09c-.265 0-.52.105-.707.293-.188.187-.293.442-.293.707s.105.52.293.707c.187.188.442.293.707.293h5.24l5 24.75c.326 1.615 1.202 3.066 2.478 4.107 1.277 1.041 2.875 1.608 4.522 1.603h23.43c.265 0 .519-.105.707-.293.187-.187.293-.442.293-.707s-.106-.52-.293-.707c-.188-.188-.442-.293-.707-.293h-23.43c-.809 0-1.605-.193-2.324-.564-.718-.371-1.338-.907-1.806-1.566l29.73-4c.202-.025.392-.111.544-.247s.258-.315.306-.513l4.06-16.25c.027-.148.021-.301-.019-.446-.04-.146-.112-.28-.211-.394z" fill="#797979"/><path d="m458.148 425.408c2.769-.449 4.65-3.059 4.201-5.828-.45-2.769-3.059-4.65-5.829-4.2-2.769.449-4.65 3.059-4.2 5.828.449 2.769 3.059 4.65 5.828 4.2z" fill="#797979"/><path d="m437.01 425.5c2.805 0 5.08-2.274 5.08-5.08s-2.275-5.08-5.08-5.08c-2.806 0-5.08 2.274-5.08 5.08s2.274 5.08 5.08 5.08z" fill="#797979"/><g fill="#fff" opacity=".4"><path d="m468.28 387.3c-.094-.122-.216-.221-.354-.289-.139-.068-.292-.102-.446-.101h-38.57l-1.06-5.28c-.045-.231-.17-.439-.353-.587s-.412-.227-.647-.223h-6.09c-.265 0-.52.105-.707.293-.188.187-.293.442-.293.707s.105.52.293.707c.187.188.442.293.707.293h5.24l5 24.75c.326 1.615 1.202 3.066 2.478 4.107 1.277 1.041 2.875 1.608 4.522 1.603h23.43c.265 0 .519-.105.707-.293.187-.187.293-.442.293-.707s-.106-.52-.293-.707c-.188-.188-.442-.293-.707-.293h-23.43c-.809 0-1.605-.193-2.324-.564-.718-.371-1.338-.907-1.806-1.566l29.73-4c.202-.025.392-.111.544-.247s.258-.315.306-.513l4.06-16.25c.027-.148.021-.301-.019-.446-.04-.146-.112-.28-.211-.394z" opacity=".4"/><path d="m458.147 425.408c2.77-.449 4.65-3.059 4.201-5.828-.45-2.769-3.059-4.65-5.829-4.2-2.769.449-4.65 3.059-4.2 5.828.449 2.769 3.059 4.65 5.828 4.2z" opacity=".4"/><path d="m437.01 425.5c2.805 0 5.08-2.274 5.08-5.08s-2.275-5.08-5.08-5.08c-2.806 0-5.08 2.274-5.08 5.08s2.274 5.08 5.08 5.08z" opacity=".4"/></g><path d="m1322.73 1058h-1050.51c-.206 0-.405-.08-.551-.23-.146-.14-.229-.34-.229-.55s.083-.41.229-.55c.146-.15.345-.23.551-.23h1050.51c.21 0 .41.08.55.23.15.14.23.34.23.55s-.08.41-.23.55c-.14.15-.34.23-.55.23z" fill="#797979"/><path d="m1322.73 1058h-1050.51c-.206 0-.405-.08-.551-.23-.146-.14-.229-.34-.229-.55s.083-.41.229-.55c.146-.15.345-.23.551-.23h1050.51c.21 0 .41.08.55.23.15.14.23.34.23.55s-.08.41-.23.55c-.14.15-.34.23-.55.23z" fill="#fff" opacity=".36"/><path d="m688.69 310.72c24.853 0 45-20.147 45-45s-20.147-45-45-45c-24.852 0-45 20.147-45 45s20.148 45 45 45z" fill="#fff"/><path d="m675.93 259h4.36l8.63-12.91.71-7.22c.023-.26.109-.51.248-.73.14-.22.33-.404.555-.536s.478-.208.738-.223c.261-.015.521.033.759.139 1.89.89 3.81 3.4 3.82 10.5 0 8 .07 8.49.07 8.49l13.43.11c.789.02 1.54.343 2.099.901.558.558.881 1.31.901 2.099.1 5.06.31 15.35.42 21 .095 1.859-.435 3.697-1.506 5.219-1.072 1.523-2.622 2.643-4.404 3.181-.503.134-1.02.204-1.54.21-3.57 0-21.8-2.9-21.8-2.9h-7.54z" fill="#797979"/><path d="m663.36 258.99 2.78 27.83h7.46v-27.83z" fill="#797979"/><g fill="#fff" opacity=".4"><path d="m675.931 259h4.36l8.63-12.91.71-7.22c.023-.26.109-.51.248-.73.14-.22.33-.404.555-.536s.478-.208.738-.223c.261-.015.521.033.759.139 1.89.89 3.81 3.4 3.82 10.5 0 8 .07 8.49.07 8.49l13.43.11c.789.02 1.54.343 2.099.901.558.558.881 1.31.901 2.099.1 5.06.31 15.35.42 21 .095 1.859-.435 3.697-1.507 5.219-1.071 1.523-2.621 2.643-4.403 3.181-.503.134-1.02.204-1.54.21-3.57 0-21.8-2.9-21.8-2.9h-7.54z" opacity=".4"/><path d="m663.36 258.99 2.78 27.83h7.46v-27.83z" opacity=".4"/></g><path d="m829.1 325.7h64.31c5.029 0 10.008.991 14.654 2.916 4.645 1.925 8.866 4.746 12.421 8.303s6.374 7.779 8.297 12.426c1.922 4.646 2.911 9.626 2.908 14.655v654.19c0 10.15-4.033 19.89-11.212 27.07s-16.916 11.21-27.068 11.21h-64.31c-1.852 0-3.686-.36-5.397-1.07-1.712-.71-3.267-1.75-4.576-3.06-1.31-1.31-2.348-2.86-3.056-4.57-.709-1.71-1.072-3.55-1.071-5.4v-702.57c-.001-1.852.362-3.686 1.071-5.397.708-1.712 1.746-3.267 3.056-4.576 1.309-1.31 2.864-2.348 4.576-3.056 1.711-.709 3.545-1.072 5.397-1.071z" fill="#797979"/><path d="m829.1 325.7h64.31c5.029 0 10.008.991 14.654 2.916 4.645 1.925 8.866 4.746 12.421 8.303s6.374 7.779 8.297 12.426c1.922 4.646 2.911 9.626 2.908 14.655v654.19c0 10.15-4.033 19.89-11.212 27.07s-16.916 11.21-27.068 11.21h-64.31c-1.852 0-3.686-.36-5.397-1.07-1.712-.71-3.267-1.75-4.576-3.06-1.31-1.31-2.348-2.86-3.056-4.57-.709-1.71-1.072-3.55-1.071-5.4v-702.57c-.001-1.852.362-3.686 1.071-5.397.708-1.712 1.746-3.267 3.056-4.576 1.309-1.31 2.864-2.348 4.576-3.056 1.711-.709 3.545-1.072 5.397-1.071z" fill="#000" opacity=".2"/><path d="m868.75 325.7h-306.97c-22.743 0-41.18 18.437-41.18 41.18v648.4c0 22.74 18.437 41.18 41.18 41.18h306.97c22.743 0 41.18-18.44 41.18-41.18v-648.4c0-22.743-18.437-41.18-41.18-41.18z" fill="#797979"/><path d="m868.25 342.5h-79.46c-2.623-.001-5.164.912-7.186 2.582s-3.399 3.993-3.894 6.568c-.489 2.577-1.863 4.903-3.884 6.575-2.021 1.673-4.563 2.587-7.186 2.585h-102.74c-2.624 0-5.166-.914-7.188-2.586-2.023-1.672-3.399-3.997-3.892-6.574-.493-2.575-1.868-4.897-3.889-6.567-2.02-1.67-4.56-2.583-7.181-2.583h-79.47c-3.348 0-6.663.66-9.756 1.941-3.092 1.282-5.902 3.161-8.268 5.529-2.367 2.368-4.243 5.179-5.522 8.273-1.28 3.094-1.937 6.409-1.934 9.757v646.08c0 3.35.659 6.66 1.939 9.75 1.281 3.09 3.158 5.9 5.524 8.27 2.366 2.36 5.175 4.24 8.266 5.52s6.405 1.94 9.751 1.94h306c3.347 0 6.661-.66 9.754-1.94 3.092-1.28 5.902-3.15 8.269-5.52s4.245-5.17 5.526-8.27c1.281-3.09 1.941-6.4 1.941-9.75v-646.08c.002-3.351-.656-6.67-1.938-9.766s-3.162-5.909-5.532-8.278c-2.371-2.369-5.185-4.247-8.282-5.526-3.098-1.279-6.417-1.935-9.768-1.93z" fill="#797979"/><path d="m868.25 342.5h-79.46c-2.623-.001-5.164.912-7.186 2.582s-3.399 3.993-3.894 6.568c-.489 2.577-1.863 4.903-3.884 6.575-2.021 1.673-4.563 2.587-7.186 2.585h-102.74c-2.624 0-5.166-.914-7.188-2.586-2.023-1.672-3.399-3.997-3.892-6.574-.493-2.575-1.868-4.897-3.889-6.567-2.02-1.67-4.56-2.583-7.181-2.583h-79.47c-3.348 0-6.663.66-9.756 1.941-3.092 1.282-5.902 3.161-8.268 5.529-2.367 2.368-4.243 5.179-5.522 8.273-1.28 3.094-1.937 6.409-1.934 9.757v646.08c0 3.35.659 6.66 1.939 9.75 1.281 3.09 3.158 5.9 5.524 8.27 2.366 2.36 5.175 4.24 8.266 5.52s6.405 1.94 9.751 1.94h306c3.347 0 6.661-.66 9.754-1.94 3.092-1.28 5.902-3.15 8.269-5.52s4.245-5.17 5.526-8.27c1.281-3.09 1.941-6.4 1.941-9.75v-646.08c.002-3.351-.656-6.67-1.938-9.766s-3.162-5.909-5.532-8.278c-2.371-2.369-5.185-4.247-8.282-5.526-3.098-1.279-6.417-1.935-9.768-1.93z" fill="#fff" opacity=".7"/><path d="m756.26 342.5h-81.99c-1.601 0-2.9 1.296-2.9 2.895s1.299 2.895 2.9 2.895h81.99c1.602 0 2.9-1.296 2.9-2.895s-1.298-2.895-2.9-2.895z" fill="#000" opacity=".2"/><path d="m803.2 342.5-33.77 84.11h-65.08l33.57-84.11z" fill="#ffb7a1"/><path d="m673.03 342.5-33.77 84.11h-65.09l33.57-84.11z" fill="#ffb7a1"/><path d="m868.28 342.5-33.76 84.11h-65.09l33.57-84.11z" fill="#70dab9"/><path d="m738.11 342.5-33.76 84.11h-65.09l33.57-84.11z" fill="#70dab9"/><path d="m607.94 342.5-33.76 84.11h-65.29l26.4-65.75c2.176-5.421 5.924-10.066 10.763-13.338 4.838-3.272 10.546-5.021 16.387-5.022z" fill="#70dab9"/><path d="m834.52 426.61h59.22v-58.61c0-6.75-2.682-13.223-7.455-17.996-4.772-4.773-11.246-7.454-17.996-7.454z" fill="#ffb7a1"/><path d="m799.91 515.73h-160.88c-12.978 0-23.5 10.521-23.5 23.5v160.88c0 12.979 10.522 23.5 23.5 23.5h160.88c12.979 0 23.5-10.521 23.5-23.5v-160.88c0-12.979-10.521-23.5-23.5-23.5z" fill="#797979"/><path d="m799.91 515.73h-160.88c-12.978 0-23.5 10.521-23.5 23.5v160.88c0 12.979 10.522 23.5 23.5 23.5h160.88c12.979 0 23.5-10.521 23.5-23.5v-160.88c0-12.979-10.521-23.5-23.5-23.5z" fill="#fff" opacity=".16"/><path d="m791.5 515.73h-160.88c-12.979 0-23.5 10.521-23.5 23.5v160.88c0 12.979 10.521 23.5 23.5 23.5h160.88c12.979 0 23.5-10.521 23.5-23.5v-160.88c0-12.979-10.521-23.5-23.5-23.5z" fill="#fff"/><path d="m843.69 813.98h-256.83c-3.944 0-7.14 3.197-7.14 7.14s3.196 7.14 7.14 7.14h256.83c3.943 0 7.14-3.197 7.14-7.14s-3.197-7.14-7.14-7.14z" fill="#fff"/><path d="m843.69 771.59h-256.83c-3.944 0-7.14 3.197-7.14 7.14s3.196 7.14 7.14 7.14h256.83c3.943 0 7.14-3.197 7.14-7.14s-3.197-7.14-7.14-7.14z" fill="#fff"/><path d="m797.7 856.37h-164.87c-3.943 0-7.14 3.197-7.14 7.14s3.197 7.14 7.14 7.14h164.87c3.944 0 7.14-3.197 7.14-7.14s-3.196-7.14-7.14-7.14z" fill="#fff"/><path d="m1170.39 719.92h-115.06v62.8h115.06z" fill="#ffb7a1"/><path d="m1170.39 719.92h-24.5v62.8h24.5z" fill="#000" opacity=".2"/><path d="m1198.16 738.08-12.65-62.25" stroke="#868a91" stroke-miterlimit="10" stroke-width=".37"/><path d="m1201.69 654.82-1.79 80.95" stroke="#868a91" stroke-miterlimit="10" stroke-width=".37"/><path d="m1220.11 669.85-19.32 24.22" stroke="#868a91" stroke-miterlimit="10" stroke-width=".37"/><path d="m1207.77 753.61-1.91-2.89c-1.91-2.899-2.94-6.296-2.94-9.77v-6.88h-7.42v6.93c0 3.473-1.02 6.87-2.93 9.77l-1.92 2.89c-1.98 3-3.31 6.379-3.91 9.922-.6 3.544-.46 7.173.42 10.658l2.16 8.53h19.79l2.16-8.53c.89-3.493 1.04-7.132.43-10.685-.6-3.553-1.94-6.941-3.93-9.945z" fill="#797979"/><path d="m1207.77 753.61-1.91-2.89c-1.91-2.9-2.93-6.297-2.93-9.77v-6.88h-2.14v6.93c.05 3.384.89 6.71 2.45 9.71l2.19 4.16c5.44 12.25-4.82 27.9-4.82 27.9h8.5l2.16-8.53c.89-3.493 1.04-7.132.43-10.685-.6-3.553-1.94-6.941-3.93-9.945z" fill="#000" opacity=".2"/><path d="m1193.22 713.75 22.97-19.03" stroke="#868a91" stroke-miterlimit="10" stroke-width=".37"/><path d="m1175.94 709.5 20.31 19.16" stroke="#868a91" stroke-miterlimit="10" stroke-width=".37"/><path d="m1208.63 684.29 3.18-14c.26-1.143.8-2.201 1.58-3.076.78-.874 1.77-1.536 2.88-1.923 1.1-.387 2.29-.487 3.44-.289 1.16.197 2.25.685 3.16 1.418.92.73 1.63 1.681 2.08 2.763.45 1.083.61 2.261.48 3.425s-.56 2.275-1.24 3.229c-.68.953-1.59 1.718-2.65 2.223z" fill="#70dab9"/><path d="m1208.63 684.29 3.18-14c.26-1.143.8-2.201 1.58-3.076.78-.874 1.77-1.536 2.88-1.923 1.1-.387 2.29-.487 3.44-.289 1.16.197 2.25.685 3.16 1.418.92.73 1.63 1.681 2.08 2.763.45 1.083.61 2.261.48 3.425s-.56 2.275-1.24 3.229c-.68.953-1.59 1.718-2.65 2.223z" fill="#fff" opacity=".3"/><path d="m1225.47 672c-.01 1.289-.39 2.55-1.08 3.637-.69 1.088-1.68 1.958-2.84 2.513l-12.92 6.19 14.24-17.85c.83.658 1.49 1.497 1.94 2.452s.68 2.002.66 3.058z" fill="#70dab9"/><path d="m1201.3 678.07-9.13-18.89c-.75-1.544-1.09-3.251-.99-4.963.09-1.712.62-3.373 1.53-4.825.91-1.453 2.17-2.651 3.67-3.483 1.5-.831 3.19-1.267 4.9-1.269 1.72-.001 3.4.434 4.9 1.263s2.77 2.025 3.68 3.477c.92 1.452 1.44 3.112 1.54 4.825.1 1.712-.24 3.42-.99 4.965z" fill="#70dab9"/><path d="m1201.3 678.07-9.13-18.89c-.75-1.544-1.09-3.251-.99-4.963.09-1.712.62-3.373 1.53-4.825.91-1.453 2.17-2.651 3.67-3.483 1.5-.831 3.19-1.267 4.9-1.269 1.72-.001 3.4.434 4.9 1.263s2.77 2.025 3.68 3.477c.92 1.452 1.44 3.112 1.54 4.825.1 1.712-.24 3.42-.99 4.965z" fill="#fff" opacity=".3"/><path d="m1201.73 644.67-.43 33.4 9.11-18.9c.73-1.509 1.07-3.175.99-4.849-.08-1.673-.57-3.301-1.43-4.738-.86-1.438-2.06-2.639-3.5-3.496-1.44-.858-3.07-1.345-4.74-1.417z" fill="#fff" opacity=".3"/><path d="m1191.18 703.28-13.32-15.83c-1.09-1.296-1.83-2.847-2.15-4.507-.33-1.661-.23-3.377.29-4.987.52-1.611 1.44-3.064 2.67-4.222 1.23-1.159 2.74-1.986 4.38-2.404 1.64-.413 3.35-.405 4.99.025 1.63.429 3.13 1.265 4.35 2.431 1.23 1.165 2.14 2.621 2.64 4.233.51 1.611.6 3.325.27 4.981z" fill="#70dab9"/><path d="m1195.3 683c.34-1.657.25-3.372-.26-4.985-.51-1.612-1.42-3.07-2.64-4.237s-2.72-2.004-4.36-2.434c-1.63-.43-3.35-.438-4.99-.024l8.15 31.85z" fill="#fff" opacity=".3"/><path d="m1189.28 722.11-6-15.14c-.5-1.237-1.3-2.328-2.33-3.171s-2.26-1.411-3.57-1.651-2.66-.144-3.92.28-2.4 1.161-3.3 2.142c-.9.984-1.53 2.18-1.84 3.476s-.29 2.65.06 3.935c.36 1.284 1.03 2.458 1.96 3.411.94.953 2.09 1.654 3.37 2.038z" fill="#70dab9"/><path d="m1189.28 722.11-6-15.14c-.5-1.237-1.3-2.328-2.33-3.171s-2.26-1.411-3.57-1.651-2.66-.144-3.92.28-2.4 1.161-3.3 2.142c-.9.984-1.53 2.18-1.84 3.476s-.29 2.65.06 3.935c.36 1.284 1.03 2.458 1.96 3.411.94.953 2.09 1.654 3.37 2.038z" fill="#fff" opacity=".3"/><path d="m1170.4 704.3 18.87 17.8-6-15.14c-.48-1.21-1.26-2.282-2.25-3.119-1-.837-2.19-1.413-3.47-1.677-1.27-.263-2.6-.206-3.84.167-1.25.372-2.39 1.049-3.31 1.969z" fill="#fff" opacity=".3"/><path d="m1199.38 708.87 6.59-16c.54-1.305 1.4-2.452 2.5-3.333 1.11-.882 2.42-1.468 3.81-1.705s2.82-.116 4.15.35c1.34.467 2.53 1.264 3.47 2.318.94 1.053 1.6 2.327 1.91 3.703s.27 2.809-.12 4.165-1.12 2.591-2.12 3.588-2.23 1.724-3.59 2.114z" fill="#70dab9"/><path d="m1199.38 708.87 6.59-16c.54-1.305 1.4-2.452 2.5-3.333 1.11-.882 2.42-1.468 3.81-1.705s2.82-.116 4.15.35c1.34.467 2.53 1.264 3.47 2.318.94 1.053 1.6 2.327 1.91 3.703s.27 2.809-.12 4.165-1.12 2.591-2.12 3.588-2.23 1.724-3.59 2.114z" fill="#fff" opacity=".3"/><path d="m1200.02 728.25 31.4-17.19" stroke="#868a91" stroke-miterlimit="10" stroke-width=".37"/><path d="m1205.16 725.43 11.37-15.57c.93-1.274 2.17-2.291 3.6-2.956s3.01-.955 4.58-.845c1.58.111 3.1.62 4.42 1.479s2.41 2.04 3.15 3.432 1.12 2.949 1.09 4.525c-.02 1.577-.45 3.121-1.23 4.489-.79 1.367-1.91 2.514-3.25 3.332-1.35.818-2.88 1.28-4.46 1.344z" fill="#70dab9"/><path d="m1205.16 725.43 11.37-15.57c.93-1.274 2.17-2.291 3.6-2.956s3.01-.955 4.58-.845c1.58.111 3.1.62 4.42 1.479s2.41 2.04 3.15 3.432 1.12 2.949 1.09 4.525c-.02 1.577-.45 3.121-1.23 4.489-.79 1.367-1.91 2.514-3.25 3.332-1.35.818-2.88 1.28-4.46 1.344z" fill="#fff" opacity=".3"/><path d="m1232.56 719.16c-.7 1.586-1.84 2.943-3.28 3.916-1.43.972-3.12 1.521-4.85 1.584l-19.28.77 27.12-14.43c.67 1.247 1.05 2.631 1.1 4.046s-.23 2.823-.81 4.114z" fill="#70dab9"/><path d="m1206 692.91-6.59 16 20.5-18.35c-.94-1.049-2.13-1.844-3.46-2.309s-2.75-.586-4.14-.352c-1.39.235-2.7.818-3.8 1.694s-1.97 2.017-2.51 3.317z" fill="#fff" opacity=".3"/><path d="m1218.51 789.49h67.09c.89 0 1.74-.353 2.37-.981s.99-1.48.99-2.369c0-.441-.09-.878-.26-1.286-.16-.407-.41-.778-.72-1.09-.32-.312-.69-.559-1.09-.728-.41-.169-.85-.256-1.29-.256h-67.09z" fill="#70dab9"/><path d="m1218.51 789.49h67.09c.89 0 1.74-.353 2.37-.981s.99-1.48.99-2.369c0-.441-.09-.878-.26-1.286-.16-.407-.41-.778-.72-1.09-.32-.312-.69-.559-1.09-.728-.41-.169-.85-.256-1.29-.256h-67.09z" fill="#fff" opacity=".2"/><path d="m1276.9 786.16h-67.7v208.54h67.7z" fill="#70dab9"/><path d="m1276.9 786.16h-67.7v208.54h67.7z" fill="#fff" opacity=".2"/><path d="m1211.27 786.16h-227.08v208.54h227.08z" fill="#70dab9"/><path d="m1211.27 786.16h-227.08v208.54h227.08z" fill="#fff" opacity=".4"/><path d="m1200.78 978.79h-206.9v-163.59l206.9.19zm-205.39-1.5h203.89v-160.38h-203.89z" fill="#70dab9"/><path d="m1200.78 978.79h-206.9v-163.59l206.9.19zm-205.39-1.5h203.89v-160.38h-203.89z" fill="#fff" opacity=".2"/><path d="m1218.58 782.78h-242.07c-1.85 0-3.35 1.5-3.35 3.35v.01c0 1.85 1.5 3.35 3.35 3.35h242.07c1.85 0 3.35-1.5 3.35-3.35v-.01c0-1.85-1.5-3.35-3.35-3.35z" fill="#70dab9"/><path d="m1218.58 782.78h-242.07c-1.85 0-3.35 1.5-3.35 3.35v.01c0 1.85 1.5 3.35 3.35 3.35h242.07c1.85 0 3.35-1.5 3.35-3.35v-.01c0-1.85-1.5-3.35-3.35-3.35z" fill="#fff" opacity=".4"/><path d="m993.89 897.48h206.89v-1.51h-206.89z" fill="#70dab9"/><path d="m993.89 897.48h206.89v-1.51h-206.89z" fill="#fff" opacity=".2"/><path d="m1089.29 841.48c2.87 0 5.19-2.324 5.19-5.19s-2.32-5.19-5.19-5.19-5.19 2.324-5.19 5.19 2.32 5.19 5.19 5.19z" fill="#70dab9"/><path d="m1091.17 836.29c0-1.085-.34-2.142-.98-3.022-.63-.881-1.52-1.541-2.55-1.888.53-.177 1.09-.268 1.65-.27.7-.031 1.4.081 2.05.327.66.247 1.26.624 1.77 1.108.5.485.91 1.067 1.18 1.711.28.645.42 1.338.42 2.039s-.14 1.394-.42 2.039c-.27.644-.68 1.226-1.18 1.711-.51.484-1.11.861-1.77 1.108-.65.246-1.35.358-2.05.327-.56-.002-1.12-.093-1.65-.27 1.03-.349 1.92-1.011 2.55-1.893.64-.883.98-1.941.98-3.027z" fill="#000" opacity=".15"/><path d="m1089.29 921.96c2.87 0 5.19-2.324 5.19-5.19s-2.32-5.19-5.19-5.19-5.19 2.324-5.19 5.19 2.32 5.19 5.19 5.19z" fill="#70dab9"/><path d="m1091.17 916.77c0-1.086-.34-2.145-.98-3.027-.63-.882-1.52-1.544-2.55-1.893.53-.177 1.09-.268 1.65-.27.7-.031 1.4.081 2.05.327.66.247 1.26.624 1.77 1.108.5.485.91 1.067 1.18 1.711.28.645.42 1.338.42 2.039s-.14 1.394-.42 2.039c-.27.644-.68 1.226-1.18 1.71-.51.485-1.11.862-1.77 1.109-.65.246-1.35.358-2.05.327-.56-.002-1.12-.093-1.65-.27 1.03-.347 1.92-1.007 2.55-1.888.64-.881.98-1.937.98-3.022z" fill="#000" opacity=".15"/><path d="m1221.93 796.49-10.66-7h-227.08v3.2z" fill="#70dab9"/><path d="m1263.59 994.7 5.23 57.7c.1.49.09 1-.03 1.49-.11.49-.34.95-.66 1.34s-.72.71-1.17.92c-.46.22-.96.33-1.46.33-.71 0-1.39-.22-1.97-.63-.57-.41-1-.99-1.23-1.66l-15.13-59.49z" fill="#70dab9"/><path d="m1263.59 995 5.23 57.7c.1.49.09 1-.03 1.49-.11.49-.34.95-.66 1.34s-.72.7-1.17.92c-.46.21-.96.32-1.46.32-.71 0-1.39-.22-1.97-.63-.57-.41-1-.99-1.23-1.66l-15.13-59.48z" fill="#fff" opacity=".4"/><path d="m1261.65 1028.24-6.34-1.53-8.14-32h16.42l5.23 57.7c.16.77.05 1.57-.32 2.26-.36.69-.96 1.24-1.68 1.54z" fill="#70dab9"/><path d="m1204.66 994.7 5.23 57.7c.1.49.1 1-.02 1.49s-.34.95-.66 1.34-.72.71-1.17.92c-.46.22-.96.33-1.46.33-.71 0-1.39-.22-1.97-.63-.57-.41-1-.99-1.23-1.66l-15.14-59.49z" fill="#70dab9"/><path d="m1204.66 995 5.23 57.7c.1.49.09 1-.02 1.49-.12.49-.35.94-.67 1.33-.31.39-.71.71-1.17.92-.45.22-.95.33-1.45.33-.71 0-1.39-.22-1.97-.63-.57-.41-1-.99-1.23-1.66l-15.14-59.48z" fill="#fff" opacity=".4"/><path d="m1199.18 1001.08-9.36-1.77-1.58-4.61h16.42l5.23 57.7c.16.77.04 1.56-.32 2.26-.37.69-.96 1.23-1.68 1.54z" fill="#70dab9"/><path d="m1054.85 994.7-5.23 57.7c-.1.49-.09 1 .03 1.49s.35.95.66 1.34c.32.39.72.7 1.18.92.45.21.95.33 1.45.33.71 0 1.39-.22 1.97-.63.57-.41 1-.99 1.23-1.66l15.14-59.49z" fill="#70dab9"/><path d="m1054.85 995-5.23 57.7c-.1.49-.09 1 .03 1.49s.35.94.66 1.33c.32.39.72.71 1.18.92.45.22.95.33 1.45.33.71 0 1.39-.22 1.97-.63.57-.41 1-.99 1.23-1.66l15.14-59.48z" fill="#fff" opacity=".4"/><path d="m1057.76 1025.41-5.57-1.37 2.66-29.34h16.43l-15.14 59.49c-.23.67-.66 1.25-1.23 1.66-.58.41-1.26.63-1.97.63h-.15z" fill="#70dab9"/><path d="m994.36 994.7-5.22 57.7c-.105.49-.098 1 .02 1.49s.344.95.662 1.34c.317.39.717.71 1.172.92.455.22.952.33 1.456.33.705 0 1.393-.22 1.967-.63s1.005-.99 1.233-1.66l15.14-59.49z" fill="#70dab9"/><path d="m994.36 995-5.22 57.7c-.103.49-.095 1 .024 1.49s.345.94.662 1.33.717.71 1.171.92c.454.22.95.33 1.453.33.705 0 1.393-.22 1.967-.63s1.005-.99 1.233-1.66l15.14-59.48z" fill="#fff" opacity=".4"/><path d="m1000.77 999.73-7.17-1.34.76-3.69h16.43l-15.14 59.49c-.228.67-.659 1.25-1.233 1.66-.573.41-1.261.63-1.967.63h-.15z" fill="#70dab9"/><path d="m1221.93 796.49-10.66-7h-227.08v3.2z" fill="#fff" opacity=".2"/><path d="m1261.65 1028.24-6.34-1.53-8.14-32h16.42l5.23 57.7c.16.77.05 1.57-.32 2.26-.36.69-.96 1.24-1.68 1.54z" fill="#fff" opacity=".2"/><path d="m1199.18 1001.08-9.36-1.77-1.58-4.61h16.42l5.23 57.7c.16.77.04 1.56-.32 2.26-.37.69-.96 1.23-1.68 1.54z" fill="#fff" opacity=".2"/><path d="m1057.76 1025.41-5.57-1.37 2.66-29.34h16.43l-15.14 59.49c-.23.67-.66 1.25-1.23 1.66-.58.41-1.26.63-1.97.63h-.15z" fill="#fff" opacity=".2"/><path d="m1000.77 999.73-7.17-1.34.76-3.69h16.43l-15.14 59.49c-.228.67-.659 1.25-1.233 1.66-.573.41-1.261.63-1.967.63h-.15z" fill="#fff" opacity=".2"/><path d="m508.89 426.61h65.29v8.5c0 4.287-.845 8.532-2.486 12.493s-4.046 7.559-7.078 10.591c-3.032 3.031-6.631 5.435-10.593 7.074-3.961 1.64-8.206 2.483-12.493 2.482-8.657 0-16.959-3.439-23.08-9.56-6.122-6.121-9.56-14.423-9.56-23.08z" fill="#70dab9"/><path d="m574 426.61h65.28v8.5c0 8.657-3.439 16.959-9.56 23.08s-14.423 9.56-23.08 9.56-16.959-3.439-23.08-9.56-9.56-14.423-9.56-23.08z" fill="#ffb7a1"/><path d="m639.06 426.61h65.29v8.5c0 4.287-.845 8.532-2.486 12.493s-4.046 7.559-7.078 10.591c-3.032 3.031-6.631 5.435-10.593 7.074-3.961 1.64-8.206 2.483-12.493 2.482-8.657 0-16.959-3.439-23.08-9.56-6.122-6.121-9.56-14.423-9.56-23.08z" fill="#70dab9"/><path d="m704.15 426.61h65.28v8.5c0 8.657-3.438 16.959-9.56 23.08-6.121 6.121-14.423 9.56-23.08 9.56-8.656 0-16.958-3.439-23.08-9.56-6.121-6.121-9.56-14.423-9.56-23.08z" fill="#ffb7a1"/><path d="m769.23 426.61h65.291v8.5c0 8.657-3.439 16.959-9.561 23.08-6.121 6.121-14.423 9.56-23.08 9.56-4.287.001-8.532-.842-12.493-2.482-3.962-1.639-7.561-4.043-10.593-7.074-3.032-3.032-5.437-6.63-7.078-10.591s-2.486-8.206-2.486-12.493z" fill="#70dab9"/><path d="m508.89 426.61h65.29v8.5c0 4.287-.845 8.532-2.486 12.493s-4.046 7.559-7.078 10.591c-3.032 3.031-6.631 5.435-10.593 7.074-3.961 1.64-8.206 2.483-12.493 2.482-8.657 0-16.959-3.439-23.08-9.56-6.122-6.121-9.56-14.423-9.56-23.08z" fill="#000" opacity=".2"/><path d="m639.06 426.61h65.29v8.5c0 4.287-.845 8.532-2.486 12.493s-4.046 7.559-7.078 10.591c-3.032 3.031-6.631 5.435-10.593 7.074-3.961 1.64-8.206 2.483-12.493 2.482-8.657 0-16.959-3.439-23.08-9.56-6.122-6.121-9.56-14.423-9.56-23.08z" fill="#000" opacity=".2"/><path d="m769.23 426.61h65.291v8.5c0 8.657-3.439 16.959-9.561 23.08-6.121 6.121-14.423 9.56-23.08 9.56-4.287.001-8.532-.842-12.493-2.482-3.962-1.639-7.561-4.043-10.593-7.074-3.032-3.032-5.437-6.63-7.078-10.591s-2.486-8.206-2.486-12.493z" fill="#000" opacity=".2"/><path d="m834.52 426.61v11.53c0 7.853 3.119 15.384 8.672 20.937s13.084 8.673 20.938 8.673c7.853 0 15.384-3.12 20.937-8.673s8.673-13.084 8.673-20.937v-11.53z" fill="#21252b"/><path d="m834.52 426.61v11.53c0 7.853 3.119 15.384 8.672 20.937s13.084 8.673 20.938 8.673c7.853 0 15.384-3.12 20.937-8.673s8.673-13.084 8.673-20.937v-11.53z" fill="#ffb7a1"/><path d="m574 426.61h65.28v8.5c0 8.657-3.439 16.959-9.56 23.08s-14.423 9.56-23.08 9.56-16.959-3.439-23.08-9.56-9.56-14.423-9.56-23.08z" fill="#000" opacity=".2"/><path d="m704.15 426.61h65.28v8.5c0 8.657-3.438 16.959-9.56 23.08-6.121 6.121-14.423 9.56-23.08 9.56-8.656 0-16.958-3.439-23.08-9.56-6.121-6.121-9.56-14.423-9.56-23.08z" fill="#000" opacity=".2"/><path d="m834.52 426.61v11.53c0 7.853 3.119 15.384 8.672 20.937s13.084 8.673 20.938 8.673c7.853 0 15.384-3.12 20.937-8.673s8.673-13.084 8.673-20.937v-11.53z" fill="#000" opacity=".2"/><path d="m696.98 958.32h-123.58c-3.093 0-5.6 2.507-5.6 5.6v28.67c0 3.093 2.507 5.6 5.6 5.6h123.58c3.093 0 5.6-2.507 5.6-5.6v-28.67c0-3.093-2.507-5.6-5.6-5.6z" fill="#ffb7a1"/><path d="m696.98 958.32h-123.58c-3.093 0-5.6 2.507-5.6 5.6v28.67c0 3.093 2.507 5.6 5.6 5.6h123.58c3.093 0 5.6-2.507 5.6-5.6v-28.67c0-3.093-2.507-5.6-5.6-5.6z" fill="#000" opacity=".2"/><path d="m690.5 958.32h-123.58c-3.093 0-5.6 2.507-5.6 5.6v28.67c0 3.093 2.507 5.6 5.6 5.6h123.58c3.093 0 5.6-2.507 5.6-5.6v-28.67c0-3.093-2.507-5.6-5.6-5.6z" fill="#ffb7a1"/><path d="m587.4 981.63h-4.4l-.83 2h-2.17l4.18-9.38h2.14l4.2 9.38h-2.28zm-.68-1.65-1.49-3.59-1.49 3.61z" fill="#fff"/><path d="m591.48 974.26h4.27c.93-.018 1.851.181 2.69.58.753.363 1.388.931 1.831 1.64.425.752.649 1.601.649 2.465s-.224 1.713-.649 2.465c-.44.711-1.076 1.28-1.831 1.64-.838.402-1.759.604-2.69.59h-4.27zm4.161 7.59c.819.042 1.623-.238 2.239-.78.54-.576.84-1.336.84-2.125s-.3-1.549-.84-2.125c-.616-.542-1.42-.822-2.239-.78h-2v5.81z" fill="#fff"/><path d="m602.55 974.26h4.26c.933-.019 1.857.179 2.7.58.75.363 1.381.932 1.82 1.64.426.752.65 1.601.65 2.465s-.224 1.713-.65 2.465c-.436.71-1.068 1.28-1.82 1.64-.842.404-1.767.606-2.7.59h-4.26zm4.15 7.59c.823.041 1.629-.238 2.25-.78.539-.576.839-1.336.839-2.125s-.3-1.549-.839-2.125c-.621-.542-1.427-.821-2.25-.78h-2v5.81z" fill="#fff"/><path d="m619.35 976h-3v-1.77h8.17v1.77h-3v7.61h-2.17z" fill="#fff"/><path d="m627.46 983.17c-.759-.4-1.393-1.002-1.83-1.74-.426-.738-.644-1.578-.63-2.43-.012-.875.216-1.736.66-2.49.438-.735 1.071-1.334 1.83-1.73.813-.427 1.721-.643 2.64-.63.912-.015 1.814.202 2.62.63.759.399 1.395.997 1.84 1.73.446.753.678 1.614.67 2.49.011.867-.218 1.719-.661 2.464s-1.083 1.352-1.849 1.756c-.806.428-1.708.645-2.62.63-.934.003-1.852-.231-2.67-.68zm4.14-1.6c.421-.263.766-.632 1-1.07.255-.459.392-.975.4-1.5.007-.544-.124-1.08-.38-1.56-.235-.435-.58-.801-1-1.06-.458-.258-.975-.389-1.5-.38-.526-.012-1.044.119-1.5.38-.444.249-.811.616-1.06 1.06-.257.48-.388 1.016-.38 1.56-.008.541.123 1.074.38 1.55.248.447.615.817 1.06 1.07.458.256.975.387 1.5.38.522-.012 1.032-.16 1.48-.43z" fill="#fff"/><path d="m642.55 983.17c-.752-.396-1.382-.991-1.82-1.72-.438-.76-.669-1.622-.669-2.5s.231-1.74.669-2.5c.434-.735 1.065-1.334 1.82-1.73.742-.373 1.555-.583 2.385-.616.829-.032 1.657.113 2.425.426.643.268 1.21.69 1.65 1.23l-1.39 1.24c-.286-.347-.647-.625-1.055-.814-.409-.189-.855-.283-1.305-.276-.541-.016-1.077.116-1.55.38-.449.246-.819.613-1.07 1.06-.256.48-.387 1.016-.38 1.56-.007.54.124 1.074.38 1.55.25.45.621.82 1.07 1.07.476.258 1.01.388 1.55.38.452.004.899-.093 1.307-.285.409-.192.769-.474 1.053-.825l1.39 1.28c-.442.546-1.012.975-1.66 1.25-.7.291-1.451.437-2.21.43-.899.025-1.79-.178-2.59-.59z" fill="#fff"/><path d="m656.46 981.63h-4.35l-.83 2h-2.23l4.18-9.38h2.15l4.19 9.38h-2.28zm-.68-1.65-1.49-3.59-1.48 3.61z" fill="#fff"/><path d="m666.52 983.64-1.8-2.62h-2v2.62h-2.17v-9.38h4.06c.741-.016 1.476.124 2.16.41.575.251 1.068.66 1.42 1.18.337.542.508 1.172.49 1.81.042.641-.123 1.278-.471 1.818-.347.54-.859.954-1.459 1.182l2.11 3zm-.54-7.19c-.433-.308-.96-.456-1.49-.42h-1.77v3.26h1.77c.53.036 1.057-.112 1.49-.42.168-.152.3-.339.387-.548.086-.21.125-.436.113-.662.016-.225-.019-.45-.102-.66-.083-.209-.212-.397-.378-.55z" fill="#fff"/><path d="m672.21 976h-3v-1.77h8.18v1.77h-3v7.61h-2.17z" fill="#fff"/><path d="m855.21 958.32h-123.58c-3.093 0-5.6 2.507-5.6 5.6v28.67c0 3.093 2.507 5.6 5.6 5.6h123.58c3.093 0 5.6-2.507 5.6-5.6v-28.67c0-3.093-2.507-5.6-5.6-5.6z" fill="#70dab9"/><path d="m855.21 958.32h-123.58c-3.093 0-5.6 2.507-5.6 5.6v28.67c0 3.093 2.507 5.6 5.6 5.6h123.58c3.093 0 5.6-2.507 5.6-5.6v-28.67c0-3.093-2.507-5.6-5.6-5.6z" fill="#000" opacity=".2"/><path d="m848.72 958.32h-123.58c-3.093 0-5.6 2.507-5.6 5.6v28.67c0 3.093 2.507 5.6 5.6 5.6h123.58c3.093 0 5.6-2.507 5.6-5.6v-28.67c0-3.093-2.507-5.6-5.6-5.6z" fill="#70dab9"/><path d="m760.62 979.61c.308.427.467.944.45 1.47.011.375-.076.745-.251 1.077-.175.331-.433.611-.749.813-.844.502-1.82.736-2.8.67h-4.85v-9.38h4.58c.926-.057 1.847.169 2.64.65.29.198.525.466.684.778.159.313.237.661.226 1.012.01.429-.101.851-.32 1.22-.228.356-.545.645-.92.84.517.134.977.432 1.31.85zm-6-3.72v2.21h2.16c.425.028.849-.069 1.22-.28.13-.095.235-.22.307-.365.071-.144.107-.304.103-.465.009-.161-.024-.321-.096-.465s-.18-.266-.314-.355c-.371-.211-.795-.308-1.22-.28zm3.83 5.83c.14-.097.252-.227.328-.379.075-.153.11-.321.102-.491 0-.78-.58-1.17-1.73-1.17h-2.53v2.32h2.53c.454.031.908-.066 1.31-.28z" fill="#fff"/><path d="m763.76 982.68c-.392-.425-.693-.925-.886-1.47-.192-.545-.272-1.123-.234-1.7v-5.25h2.17v5.17c0 1.68.7 2.52 2.09 2.52.289.017.578-.029.847-.134s.513-.268.713-.476c.396-.555.583-1.231.53-1.91v-5.17h2.15v5.25c.036.577-.045 1.154-.237 1.699-.193.545-.493 1.045-.883 1.471-.882.725-1.988 1.121-3.13 1.121s-2.248-.396-3.13-1.121z" fill="#fff"/><path d="m777.65 980.31v3.33h-2.17v-3.35l-3.63-6h2.3l2.51 4.16 2.5-4.16h2.13z" fill="#fff"/><path d="m794.59 974.26v9.38h-1.78l-4.67-5.7v5.7h-2.14v-9.38h1.8l4.66 5.69v-5.69z" fill="#fff"/><path d="m798.73 983.17c-.767-.402-1.407-1.01-1.848-1.755-.442-.746-.667-1.599-.652-2.465-.012-.875.217-1.736.66-2.49.442-.735 1.079-1.334 1.84-1.73.815-.415 1.716-.631 2.63-.631s1.816.216 2.63.631c.766.404 1.405 1.012 1.846 1.757s.668 1.597.654 2.463c.015.873-.217 1.733-.67 2.48-.44.736-1.073 1.337-1.83 1.74-.814.414-1.716.63-2.63.63s-1.815-.216-2.63-.63zm4.13-1.6c.426-.258.772-.628 1-1.07.261-.474.392-1.009.38-1.55.012-.544-.119-1.082-.38-1.56-.229-.439-.575-.806-1-1.06-.46-.249-.976-.38-1.5-.38s-1.039.131-1.5.38c-.443.247-.807.614-1.05 1.06-.261.478-.392 1.016-.38 1.56-.012.541.119 1.076.38 1.55.242.449.606.82 1.05 1.07.461.249.976.38 1.5.38s1.04-.131 1.5-.38z" fill="#fff"/><path d="m822 974.26-3.07 9.38h-2.33l-2.06-6.35-2.13 6.35h-2.32l-3.09-9.38h2.25l2.12 6.59 2.21-6.59h2l2.14 6.64 2.19-6.64z" fill="#fff"/><path d="m893.61 365.36c0 .32 0 .65.07 1-.02-.36-.04-.68-.07-1z" fill="#000" opacity=".3"/><path d="m868.29 342.5h-306.12c-4.804.063-9.519 1.303-13.733 3.611-4.214 2.309-7.797 5.615-10.437 9.629 3.06-2.12 7.38-1.8 12.5-1.81h324.58c9.26 0 17.49 2.44 18.53 11.43-.643-6.268-3.588-12.075-8.265-16.298-4.677-4.222-10.754-6.56-17.055-6.562z" fill="#000" opacity=".3"/><path d="m773.75 601.28h-125.37c-5.467 0-9.9 4.432-9.9 9.9v73.62c0 5.468 4.433 9.9 9.9 9.9h125.37c5.468 0 9.901-4.432 9.901-9.9v-73.62c0-5.468-4.433-9.9-9.901-9.9z" fill="#70dab9"/><path clip-rule="evenodd" d="m745.59 626.3c3.42 0 6.21-4.14 6.21-9.21s-2.79-9.21-6.21-9.21-6.21 4.14-6.21 9.21 2.79 9.21 6.21 9.21z" fill="#000" fill-rule="evenodd" opacity=".2"/><path clip-rule="evenodd" d="m676.54 626.3c3.42 0 6.21-4.14 6.21-9.21s-2.79-9.21-6.21-9.21-6.22 4.14-6.22 9.21 2.79 9.21 6.22 9.21z" fill="#000" fill-rule="evenodd" opacity=".2"/><path d="m679.3 617.12-5.54-.06c0-3 1.25-73.93 37.41-73.93s37.16 70.92 37.19 73.94h-5.54c-.298-11.788-1.792-23.514-4.46-35-5.47-22.17-14.62-33.41-27.19-33.41s-21.77 11.25-27.3 33.42c-2.71 11.494-4.242 23.235-4.57 35.04z" fill="#70dab9"/><path d="m708.43 601.28h-5.26v93.42h5.26z" fill="#000" opacity=".2"/><path d="m718.96 601.28h-5.26v93.42h5.26z" fill="#000" opacity=".2"/><g fill="#000" opacity=".2"><path d="m648.41 677.82c2.07-8 3.22-18.6 3.22-29.83s-1.15-21.81-3.22-29.83c-1.87-7.2-4.49-11.81-7.58-13.35-1.06 1.24-1.792 2.725-2.13 4.32.59.14 2.68 1.29 5 10.25 2 7.6 3.06 17.76 3.06 28.61s-1.09 21-3.06 28.62c-2.32 9-4.41 10.11-5 10.25.34 1.595 1.072 3.079 2.13 4.32 3.09-1.54 5.71-6.18 7.58-13.36z" opacity=".2"/><path d="m783.42 686.86c-.59-.14-2.68-1.29-5-10.25-2-7.6-3-17.76-3-28.62s1.08-21 3-28.61c2.32-9 4.41-10.11 5-10.25-.342-1.594-1.074-3.078-2.13-4.32-3.1 1.53-5.719 6.14-7.589 13.35-2.07 8-3.221 18.61-3.221 29.83s1.151 21.82 3.221 29.83c1.87 7.21 4.489 11.82 7.589 13.36 1.056-1.242 1.788-2.726 2.13-4.32z" opacity=".2"/></g><path d="m722.75 632.58h-23.38c-1.022 0-1.85.828-1.85 1.85v13.73c0 1.022.828 1.85 1.85 1.85h23.38c1.021 0 1.849-.828 1.849-1.85v-13.73c0-1.022-.828-1.85-1.849-1.85z" fill="#ffb7a1"/><path d="m566.35 874-45.75 94.01-.24-109.23z" fill="#000" opacity=".2"/><path d="m438.153 750.527-176.416 176.416c-4.62 4.62-4.62 12.11 0 16.73l109.446 109.447c4.62 4.62 12.11 4.62 16.73 0l176.416-176.417c4.62-4.62 4.62-12.11 0-16.73l-109.446-109.446c-4.62-4.62-12.11-4.62-16.73 0z" fill="#70dab9"/><path d="m443.914 770.137-35.299 35.299c-1.441 1.441-1.441 3.778 0 5.219l6.201 6.201c1.441 1.441 3.778 1.441 5.219 0l35.299-35.299c1.441-1.441 1.441-3.777 0-5.218l-6.202-6.202c-1.441-1.441-3.777-1.441-5.218 0z" fill="#797979"/><path d="m340.116 925.35-30.441 30.441 7.028 7.029 30.441-30.441z" fill="#797979"/><path d="m321.87 927.56-17.94 17.93c-.604.607-.943 1.429-.943 2.285s.339 1.678.943 2.285l4.75 4.74 20.21-20.21z" fill="#797979"/><path d="m329.8 919.62-6.94 7 7 7 9.24-9.24-4.75-4.74c-.603-.601-1.419-.939-2.271-.943-.851-.004-1.67.328-2.279.923z" fill="#797979"/><path d="m322.43 968.56c.607.604 1.428.943 2.285.943.856 0 1.678-.339 2.285-.943l7.66-7.67-7-7-9.94 9.94z" fill="#797979"/><path d="m335.65 959.9 17.22-17.22c.3-.299.538-.654.7-1.046.163-.391.246-.81.246-1.234 0-.423-.083-.843-.246-1.234-.162-.391-.4-.747-.7-1.046l-4.74-4.75-19.51 19.51z" fill="#797979"/><path d="m373.372 951.503-32.697 32.697c-.718.718-.718 1.883 0 2.602l6.859 6.859c.719.719 1.884.719 2.602 0l32.697-32.697c.718-.718.718-1.883 0-2.602l-6.859-6.859c-.719-.718-1.884-.718-2.602 0z" fill="#fff"/><path d="m414.051 910.823-32.696 32.697c-.719.718-.719 1.883 0 2.602l6.859 6.859c.718.718 1.883.718 2.602 0l32.696-32.697c.719-.718.719-1.883 0-2.602l-6.858-6.859c-.719-.718-1.884-.718-2.603 0z" fill="#fff"/><path d="m454.739 870.136-32.697 32.696c-.718.719-.718 1.884 0 2.602l6.859 6.859c.719.719 1.884.719 2.602 0l32.697-32.696c.719-.719.719-1.884 0-2.602l-6.859-6.859c-.719-.719-1.884-.719-2.602 0z" fill="#fff"/><path d="m495.419 829.455-32.697 32.697c-.719.719-.719 1.884 0 2.602l6.859 6.859c.719.719 1.883.719 2.602 0l32.697-32.696c.718-.719.718-1.884 0-2.603l-6.859-6.859c-.719-.718-1.884-.718-2.602 0z" fill="#fff"/><path d="m430.737 954.946-59.793 59.794c-1.074 1.07-1.076 2.81-.004 3.88 1.072 1.08 2.812 1.08 3.886 0l59.793-59.792c1.074-1.074 1.075-2.813.003-3.885s-2.812-1.071-3.885.003z" fill="#fff"/><path d="m443.914 770.137-35.299 35.299c-1.441 1.441-1.441 3.778 0 5.219l6.201 6.201c1.441 1.441 3.778 1.441 5.219 0l35.299-35.299c1.441-1.441 1.441-3.777 0-5.218l-6.202-6.202c-1.441-1.441-3.777-1.441-5.218 0z" fill="#fff" opacity=".3"/><path d="m430.737 954.946-59.793 59.794c-1.074 1.07-1.076 2.81-.004 3.88 1.072 1.08 2.812 1.08 3.886 0l59.793-59.792c1.074-1.074 1.075-2.813.003-3.885s-2.812-1.071-3.885.003z" fill="#fff" opacity=".7"/><path d="m535.725 861.611c-5.885-5.885-15.427-5.885-21.312 0-5.885 5.886-5.885 15.427 0 21.313 5.885 5.885 15.427 5.885 21.312 0 5.885-5.886 5.885-15.427 0-21.313z" fill="#797979"/><path d="m521.405 875.933c-5.885-5.885-15.427-5.885-21.312 0-5.886 5.885-5.886 15.427 0 21.312 5.885 5.885 15.427 5.885 21.312 0s5.885-15.427 0-21.312z" fill="#fff"/><path d="m1166.26 1000.76v35.37h-27.77l-3.96-33.43-.24-2.03z" fill="#fc9d9d"/><path d="m1166.26 1000.76v9l-11.67 1.12c-1.67.15-3.25.81-4.53 1.88-1.29 1.07-2.22 2.51-2.67 4.12l-8.46 19.21h-.44l-4-33.43c4.22-1.41 31.77-1.9 31.77-1.9z" fill="#231f20" opacity=".15"/><path d="m1163.28 1019.77-.8-.8c-3.11-3.02-7.28-4.7-11.61-4.65-4.34.04-8.48 1.8-11.52 4.88l-.46.57c-1.54 1.56-2.4 3.65-2.4 5.84v3.44c.05 2.04-.27 4.07-.92 6l-2.86 9.51c-.72 2.3-1.11 4.69-1.14 7.1v1.14c.03.91.42 1.77 1.09 2.39.66.62 1.54.95 2.45.93h33c.45.02.91-.05 1.33-.2.43-.16.82-.4 1.15-.71s.6-.68.78-1.09c.18-.42.28-.87.29-1.32v-.46c-.01-2.8-.48-5.59-1.38-8.24l-3.32-9.28c-.72-2.14-1.1-4.38-1.14-6.64l-.12-2.63c-.02-2.17-.89-4.24-2.42-5.78z" fill="#ffb7a1"/><path d="m1168.06 1054.64h-33c-.75.02-1.49-.2-2.11-.63-.61-.44-1.07-1.06-1.31-1.77-.08.68-.12 1.37-.12 2.06v1.1c.05.89.45 1.73 1.11 2.33s1.54.91 2.43.87h33c.44.03.89-.03 1.31-.18.42-.14.81-.37 1.14-.67s.6-.66.79-1.06c.19-.41.29-.84.31-1.29v-.4c-.01-.86-.06-1.72-.17-2.58-.25.68-.72 1.26-1.33 1.66s-1.32.6-2.05.56z" fill="#ffb7a1"/><g fill="#000"><path d="m1168.06 1054.64h-33c-.75.02-1.49-.2-2.11-.63-.61-.44-1.07-1.06-1.31-1.77-.08.68-.12 1.37-.12 2.06v1.1c.05.89.45 1.73 1.11 2.33s1.54.91 2.43.87h33c.44.03.89-.03 1.31-.18.42-.14.81-.37 1.14-.67s.6-.66.79-1.06c.19-.41.29-.84.31-1.29v-.4c-.01-.86-.06-1.72-.17-2.58-.25.68-.72 1.26-1.33 1.66s-1.32.6-2.05.56z" opacity=".2"/><path d="m1141.77 1027.1c.68 0 1.24-.56 1.24-1.24s-.56-1.24-1.24-1.24c-.69 0-1.24.56-1.24 1.24s.55 1.24 1.24 1.24z" opacity=".2"/><path d="m1142.43 1032.05c.68 0 1.24-.56 1.24-1.24s-.56-1.24-1.24-1.24c-.69 0-1.24.56-1.24 1.24s.55 1.24 1.24 1.24z" opacity=".2"/><path d="m1144.08 1036.83c.68 0 1.24-.56 1.24-1.24s-.56-1.24-1.24-1.24-1.24.56-1.24 1.24.56 1.24 1.24 1.24z" opacity=".2"/><path d="m1144.3 1042.65c.68 0 1.24-.56 1.24-1.24s-.56-1.24-1.24-1.24c-.69 0-1.24.56-1.24 1.24s.55 1.24 1.24 1.24z" opacity=".2"/><path d="m1144.91 1047.68c.68 0 1.24-.56 1.24-1.24s-.56-1.24-1.24-1.24-1.24.56-1.24 1.24.56 1.24 1.24 1.24z" opacity=".2"/><path d="m1160.53 1046.6c.68 0 1.24-.56 1.24-1.24s-.56-1.24-1.24-1.24c-.69 0-1.24.56-1.24 1.24s.55 1.24 1.24 1.24z" opacity=".2"/><path d="m1160.01 1041.91c.68 0 1.24-.56 1.24-1.24s-.56-1.24-1.24-1.24c-.69 0-1.24.56-1.24 1.24s.55 1.24 1.24 1.24z" opacity=".2"/><path d="m1159.38 1035.71c.68 0 1.24-.56 1.24-1.24s-.56-1.24-1.24-1.24c-.69 0-1.24.56-1.24 1.24s.55 1.24 1.24 1.24z" opacity=".2"/><path d="m1157.73 1030.82c.68 0 1.24-.56 1.24-1.24s-.56-1.24-1.24-1.24c-.69 0-1.24.56-1.24 1.24s.55 1.24 1.24 1.24z" opacity=".2"/><path d="m1157.52 1026.16c.68 0 1.24-.56 1.24-1.24s-.56-1.24-1.24-1.24c-.69 0-1.24.56-1.24 1.24s.55 1.24 1.24 1.24z" opacity=".2"/></g><path d="m1142.23 1026.12c-.13 0-.26-.05-.35-.14-.05-.05-.08-.1-.11-.16s-.04-.13-.04-.19c0-.07.01-.14.04-.2s.06-.11.11-.16c.06-.06 6-6.21 15.89-1.09.06.03.12.07.17.12.05.04.08.1.11.17.02.06.03.13.03.2-.01.07-.03.14-.06.2s-.07.11-.12.16c-.06.04-.12.07-.18.09-.07.02-.14.03-.21.02s-.13-.03-.19-.07c-9.26-4.78-14.65.83-14.71.89-.05.05-.11.09-.17.12-.07.03-.14.04-.21.04z" fill="#fff"/><path d="m1142.43 1031c-.13 0-.25-.04-.34-.13-.05-.05-.08-.1-.11-.16s-.04-.13-.04-.19c0-.07.01-.14.04-.2s.06-.11.11-.16c.06-.06 6-6.22 15.9-1.09.12.06.21.17.25.29.04.13.03.27-.04.39-.06.11-.16.2-.29.24s-.26.03-.38-.03c-9.23-4.77-14.49.65-14.71.89-.05.05-.11.09-.18.12-.07.02-.14.03-.21.03z" fill="#fff"/><path d="m1144.08 1035.89c-.13 0-.25-.04-.34-.13-.09-.1-.14-.22-.14-.35 0-.14.05-.26.14-.36 1.25-1.33 8.38-5 15.9-1.09.12.06.2.17.24.29.04.13.03.26-.03.38s-.16.21-.29.25-.26.03-.38-.03c-6.91-3.58-13.62-.28-14.7.88-.05.05-.11.1-.18.13-.07.02-.15.03-.22.03z" fill="#fff"/><path d="m1144.71 1041.8c-.13 0-.25-.05-.34-.14-.05-.05-.08-.1-.11-.16-.02-.06-.04-.12-.04-.19s.02-.13.04-.19c.03-.06.06-.11.11-.16.06-.06 6-6.22 15.89-1.09.07.03.13.06.18.11s.08.11.11.18c.02.07.04.14.03.21 0 .07-.02.14-.05.2-.04.06-.08.12-.14.16-.05.04-.12.08-.19.09-.07.02-.14.02-.21.01s-.13-.04-.19-.08c-9.22-4.76-14.48.66-14.7.89-.05.05-.11.1-.18.12-.06.03-.14.04-.21.04z" fill="#fff"/><path d="m1144.91 1046.69c-.13 0-.25-.05-.34-.14-.05-.05-.08-.1-.11-.16-.02-.06-.04-.12-.04-.19s.02-.13.04-.19c.03-.06.06-.11.11-.16.06-.07 6-6.22 15.89-1.1.06.03.11.07.15.12.05.05.08.11.1.17.02.07.02.13.02.2-.01.06-.02.13-.06.18-.03.06-.07.12-.12.16s-.11.07-.17.09-.13.03-.19.02c-.07 0-.13-.02-.19-.05-9.22-4.77-14.48.66-14.7.89-.05.05-.11.09-.18.12s-.14.04-.21.04z" fill="#fff"/><path d="m1060.76 1002.52-.21 2.36-.12 1.32-2.83 31.85-52.84 1.14 15.19-10.7c1.36-1.08 2.52-2.39 3.43-3.87 1.69-2.46 2.78-5.29 3.16-8.25l2.09-13.49.07-.44z" fill="#fc9d9d"/><path d="m1060.55 1004.88-.12 1.32-19.74 3.8c-2.12.41-4.04 1.51-5.46 3.13-1.43 1.61-2.27 3.66-2.41 5.81l-.44 7-9-1.27c1.69-2.46 2.78-5.29 3.16-8.25l2.09-13.49z" fill="#231f20" opacity=".15"/><path d="m1060.8 1051.89-87.25.18c-.191-.37-.329-.77-.41-1.18-.146.97-.179 1.95-.1 2.92.053.76.393 1.47.949 1.99.557.51 1.29.8 2.051.8l81.94-.16c.77 0 1.51-.29 2.06-.82.56-.52.9-1.24.94-2.01z" fill="#ffb7a1"/><path d="m1060.8 1051.89-87.25.18c-.191-.37-.329-.77-.41-1.18-.146.97-.179 1.95-.1 2.92.053.76.393 1.47.949 1.99.557.51 1.29.8 2.051.8l81.94-.16c.77 0 1.51-.29 2.06-.82.56-.52.9-1.24.94-2.01z" fill="#000" opacity=".2"/><path d="m978.31 1042.64c15.57-6.5 28.22-11.89 39.82-21.62 2.64-2.22 5.91-3.56 9.35-3.83l31.3-2.52c.54-.04 1.08.03 1.59.21.51.19.98.48 1.37.86.38.38.69.84.88 1.34.2.51.28 1.05.25 1.59l-2.07 33.21-87.25.18c-1.84-3.57 2.02-8.27 4.76-9.42z" fill="#ffb7a1"/><path d="m993.58 1044.13c.889 0 1.61-.65 1.61-1.46s-.721-1.46-1.61-1.46-1.61.65-1.61 1.46.721 1.46 1.61 1.46z" fill="#000" opacity=".2"/><path d="m1003.14 1041.66c.89 0 1.61-.65 1.61-1.46s-.72-1.46-1.61-1.46-1.61.65-1.61 1.46.72 1.46 1.61 1.46z" fill="#000" opacity=".2"/><path d="m1011.08 1036.48c.89 0 1.61-.65 1.61-1.46s-.72-1.46-1.61-1.46-1.61.65-1.61 1.46.72 1.46 1.61 1.46z" fill="#000" opacity=".2"/><path d="m1018.78 1031.23c.89 0 1.61-.65 1.61-1.46s-.72-1.46-1.61-1.46-1.61.65-1.61 1.46.72 1.46 1.61 1.46z" fill="#000" opacity=".2"/><path d="m1025.6 1024.83c.89 0 1.61-.65 1.61-1.46s-.72-1.46-1.61-1.46-1.61.65-1.61 1.46.72 1.46 1.61 1.46z" fill="#000" opacity=".2"/><path d="m990.54 1039.21 1.06 2.71c.167.37.466.65.838.81.371.15.787.15 1.162.01.191-.06.367-.16.514-.29.147-.14.261-.3.335-.49s.105-.38.092-.58c-.014-.2-.072-.4-.171-.57l-1.53-2.61z" fill="#fff"/><path d="m999.05 1035.4 2 4.1c.2.37.55.65.95.77.41.12.84.08 1.22-.12.17-.08.32-.18.45-.32.12-.14.22-.3.27-.48.06-.17.08-.36.07-.54-.02-.19-.08-.37-.17-.53l-2.31-4z" fill="#fff"/><path d="m1006.18 1031.22 2.73 3.51c.28.33.67.54 1.1.58s.86-.1 1.19-.37l.1-.09c.13-.11.24-.24.32-.38.08-.15.12-.31.14-.48.02-.16 0-.33-.05-.49-.04-.16-.12-.31-.23-.44l-2.63-3.29z" fill="#fff"/><path d="m1013.14 1026.85 3.51 3.07c.29.25.66.38 1.04.38.39 0 .76-.13 1.05-.38.16-.13.28-.29.37-.47.08-.19.12-.39.11-.59s-.07-.4-.17-.57c-.1-.18-.24-.33-.41-.44l-3.52-2.49z" fill="#fff"/><path d="m1020 1021.1s2.05 1.55 3.39 2.54c.31.22.69.32 1.07.28s.73-.22.98-.51c.13-.15.21-.33.26-.52.04-.19.04-.39-.01-.58s-.14-.37-.27-.52c-.13-.14-.3-.26-.48-.33l-4.08-1.84z" fill="#fff"/><path d="m1036 639-10.75 364.89 36.45.12 31.4-303.53c.22-2.24 3.93-3.94 3.93-3.94 1.03.051 2 .483 2.73 1.211.72.729 1.15 1.701 1.2 2.729l30.94 303.25h35.33l-1.23-364.73z" fill="#797979"/><path d="m1147.15 1003.72-29.88-288.72c-.43-4.144-2.23-8.026-5.11-11.034-2.89-3.008-6.69-4.97-10.81-5.576l-1.26-.18c.49.676.79 1.47.87 2.3l30.94 303.25z" fill="#000" opacity=".2"/><path d="m1048 639h-12l-10.75 364.73h12.81z" fill="#000" opacity=".2"/><path d="m1062.37 1004.01h-37.89l.57-7.94h38.09z" fill="#797979"/><path d="m1038.03 1004.01h-13.55l.57-7.94h13.27z" fill="#000" opacity=".2"/><path d="m1167.76 1003.73h-37.24l-.74-7.66h37.98z" fill="#797979"/><path d="m1147.15 1003.72-16.63.01-.74-7.66h16.76z" fill="#000" opacity=".2"/><path d="m1180.91 441.4c-4.85-1.49-14.91 133-14.91 184.6v13h-130l-7.18-134.68c-2.67-28.75 3.18-63.83-3.55-68.68 47.06-20.84 138.81-7.28 155.64 5.76z" fill="#ffb7a1"/><path d="m1037 639h129v-4.48h-130.24l.33 4.48z" fill="#70dab9"/><path d="m1037 631h129v-4.48h-130.24l.33 4.48z" fill="#70dab9"/><path d="m1037 622h129v-4.48h-130.24l.33 4.48z" fill="#70dab9"/><path d="m1080.49 439.89c-.53 0-1.04.211-1.41.586-.38.375-.59.884-.59 1.414v58.26c0 .53.21 1.039.59 1.414.37.375.88.586 1.41.586s1.04-.211 1.41-.586c.38-.375.59-.884.59-1.414v-58.26c0-.53-.21-1.039-.59-1.414-.37-.375-.88-.586-1.41-.586z" fill="#70dab9"/><path d="m1080.89 496c1.17 0 2.11-.949 2.11-2.12s-.94-2.12-2.11-2.12-2.11.949-2.11 2.12.94 2.12 2.11 2.12z" fill="#fff"/><path d="m1118.59 439.26c-.53 0-1.04.211-1.41.586-.38.375-.59.884-.59 1.414v58.27c0 .53.21 1.039.59 1.414.37.375.88.586 1.41.586s1.04-.211 1.41-.586c.38-.375.59-.884.59-1.414v-58.27c0-.53-.21-1.039-.59-1.414-.37-.375-.88-.586-1.41-.586z" fill="#70dab9"/><path d="m1118.89 494c1.17 0 2.11-.949 2.11-2.12s-.94-2.12-2.11-2.12-2.11.949-2.11 2.12.94 2.12 2.11 2.12z" fill="#fff"/><path d="m1132 513 39.84-3.28 47.27 62.18-43.46 49.52 9.93 22.44 74.54-59.08c3.13-2.512 5.27-6.045 6.05-9.979s.14-8.017-1.79-11.531l-69.38-111.13c-5.57-10.16-25.65-17.38-36.94-16.14l-31.06 21z" fill="#ffb7a1"/><path d="m1219 572-47-62 4-30 50.49 72.93c1.03 1.486 1.57 3.252 1.55 5.058-.01 1.805-.58 3.563-1.63 5.032z" fill="#000" opacity=".2"/><path d="m1175.58 621.54 9.96 22.32 2.3-1.86-10.3-22.59z" fill="#70dab9"/><path d="m1178.84 617.78 10.26 23.21 2.37-1.9-10.71-23.5z" fill="#70dab9"/><path d="m1182.05 614.13 10.61 24 2.37-1.89-11.07-24.29z" fill="#70dab9"/><path d="m1165.48 677.2-19.3-29.45c3.82-3.75 13.3-10.89 19.29-9 0 .02.85 40.71.01 38.45z" fill="#000" opacity=".2"/><path d="m1185.58 643.86-9.93-22.44-7.36 9.34c-.54.682-1.18 1.279-1.9 1.77-2.47 1.68-8.28 5.64-8.26 5.61l-8.44 7.69 14.58 23.17c17.91-11.6 8.76-15.47 16.67-21.2 1.06-.8 4.64-3.94 4.64-3.94z" fill="#fc9d9d"/><path d="m1176.76 623.93-1-2.58-8.61 10.78c-6.67 3.913-12.78 8.721-18.15 14.29l1.87 3z" fill="#231f20" opacity=".2"/><path d="m1099.83 453.83c-10-6.34-43.32-26.94-50.58-25.74-1.51-7.93 12.52-2.55 17.53-9.69 1.31-1.945 3.15-3.475 5.3-4.41 4.16-1.73 7.54-1.16 8.65-.14 16.16 14.77 27 8.51 43.84-2.48 2-1.3 10-.63 12.07 6.3 6.69 11.8 19.62 2.23 19.62 13.89 0 .89-1.2.82-3 .42-6.36-1.384-13.01-.41-18.7 2.74l-29 19.06c-.85.557-1.84.857-2.86.866-1.01.009-2.01-.274-2.87-.816z" fill="#70dab9"/><path d="m844.39 478.54-10.75-5.6-14.8-.84c-.271-.027-.544.013-.797.116-.252.103-.475.267-.649.476-.175.209-.295.457-.352.724-.056.266-.047.542.028.804 0 2.55 14 3 15.5 3.67l7.09 5.57-7.09-5.57-12.26-.69c-.222-.016-.444.017-.652.096-.207.08-.395.205-.548.365-.154.161-.271.353-.341.564-.071.21-.095.434-.069.655-.06 2.35 12.4 2.6 13.77 3.26l10.28 8-10.28-8c-.86.47-11-.62-10.07 1.73.06 1.6 10.41 1.58 11.35 2l10 6.79z" fill="#fc9d9d"/><path d="m844.39 478.54-10.75-5.6-14.8-.84c-.271-.027-.544.013-.797.116-.252.103-.475.267-.649.476-.175.209-.295.457-.352.724-.056.266-.047.542.028.804 0 2.55 14 3 15.5 3.67l7.09 5.57-7.09-5.57-12.26-.69c-.222-.016-.444.017-.652.096-.207.08-.395.205-.548.365-.154.161-.271.353-.341.564-.071.21-.095.434-.069.655-.06 2.35 12.4 2.6 13.77 3.26l10.28 8-10.28-8c-.86.47-11-.62-10.07 1.73.06 1.6 10.41 1.58 11.35 2l10 6.79z" fill="#000" opacity=".15"/><path d="m844.92 474.45 13.14 15.86c-.84 1.16 32.11 15.47 33.24 16.23l-9.54 18.55-28.44-14.66c-6.28-.53-11.55-4.42-15.4-9.07h-.11c-2.57-3.18-12.18-5.1-11.9-7.34 2.21-6.7 14.63 3.57 14.76-5.26-.55-1.41-1.33-11.87-2.93-12.51-.45-1-18.55-11.33-16.43-13 .114-.202.266-.379.448-.522s.39-.249.613-.311.456-.08.686-.052.452.101.653.215c4.99 2.86 17.91 8.95 21.21 11.87z" fill="#fc9d9d"/><path d="m856 507.57c-6.28-.53-12.62-4.53-16.47-9.19h-.11c-2.22-2.45-11.16-5.73-11.7-6.4-6.45 4.08 7.23 5.44 10.13 9.38h.11c3.85 4.65 9.12 8.54 15.4 9.07l28.44 14.66c-.28-.94-16.8-20.92-25.8-17.52z" fill="#000" opacity=".15"/><path d="m965.13 527 46.46-81.6c9.38-18.61 33.66-12.74 50.19-11.79l-21.24 60.24-47.76 76c-13.56 19.64-34 13.52-49.14-.56z" fill="#ffb7a1"/><path d="m882.07 525.1 72.38 52c22.21 15.79 42.67-11.3 55.62-34.86l-39.88-24.2-7.44 13.56-71.45-25.1z" fill="#ffb7a1"/><path d="m891.31 506.93-9.55 18.16 2.72 1.74 9.84-18.64z" fill="#70dab9"/><path d="m895.78 508.74-10 19.03 2.69 1.79 10.38-19.67z" fill="#70dab9"/><path d="m900.31 510.44-10.52 20.02 2.75 1.68 10.84-20.54z" fill="#70dab9"/><path d="m1138.13 358.58c-.27 1.58-2.42 36-20.16 50v-40z" fill="#70dab9"/><path d="m1138.13 358.58c-.27 1.58-2.42 36-20.16 50v-40z" fill="#000" opacity=".3"/><path d="m1127.42 431.84-2.83-41.5-.59-8.26c-1.42-31.72-42.81-5.77-42.81-5.77s1.18 11 1.65 23.11c.01 2.499.29 4.99.83 7.43l-2.67 24.64" fill="#fc9d9d"/><path d="m1127.41 431.84c-.01.757-.21 1.5-.58 2.161-.37.66-.9 1.217-1.54 1.619l-7.29 4.95-15.46 10.49c-.35.202-.76.288-1.16.247-.41-.041-.79-.208-1.09-.477l-13.18-11.34-4.5-3.87c-.61-.489-1.08-1.126-1.37-1.849-.28-.723-.38-1.509-.28-2.281z" fill="#fc9d9d"/><path d="m1122.7 353 1.18 27.59s-3.07 42.57-30.42 38.91c-31.49-4.12-16.87-65.68-16.87-65.68z" fill="#fc9d9d"/><path d="m1098.65 421c5.64-.779 10.83-3.54 14.62-7.79.11-.11.17-.259.17-.413 0-.155-.06-.303-.17-.412s-.26-.169-.42-.168c-.15.001-.3.063-.41.173-2.98 3.271-6.82 5.641-11.08 6.84-8.49 1.88-16-2-18.75-4.72l-1.06 9.9c2.94.583 5.96.582 8.89-.003s5.72-1.743 8.21-3.407z" fill="#000" opacity=".15"/><path d="m1090.63 406.26c-.01-.111 0-.224.04-.329.03-.106.09-.202.17-.282.08-.079.18-.14.28-.178.11-.038.22-.052.33-.041 1.21.192 2.43.309 3.66.35.22 0 .43.087.59.243.15.156.24.367.24.587s-.09.431-.24.587c-.16.156-.37.243-.59.243-1.29-.209-2.59-.329-3.89-.36-.36-.23-.83-.71-.59-.82z" fill="#000" opacity=".15"/><path d="m1086.26 402.48c-.1-.044-.18-.107-.26-.186-.07-.078-.12-.17-.16-.271-.03-.1-.05-.206-.04-.313.01-.106.03-.21.08-.305s.12-.179.2-.248.17-.12.27-.152c.11-.031.21-.041.32-.03s.21.043.3.095c8.26 2.71 11.68-1.18 12.74-3.07.05-.095.12-.178.2-.245.09-.066.18-.115.29-.142.1-.027.21-.033.31-.016.11.017.21.055.3.113s.17.134.23.223c.05.089.09.19.11.295s.02.213-.01.317c-.03.103-.07.201-.14.285-1.06 1.88-4.12 5.54-11.08 4.48-1.24-.18-2.46-.457-3.66-.83z" fill="#000" opacity=".15"/><path d="m1097.47 385.03c1.37 0 2.48-1.11 2.48-2.48s-1.11-2.48-2.48-2.48-2.48 1.11-2.48 2.48 1.11 2.48 2.48 2.48z" fill="#000"/><path d="m1096.4 382.32c.33 0 .59-.264.59-.59s-.26-.59-.59-.59-.59.264-.59.59.26.59.59.59z" fill="#fff"/><path d="m1078.01 385.03c1.37 0 2.48-1.11 2.48-2.48s-1.11-2.48-2.48-2.48-2.48 1.11-2.48 2.48 1.11 2.48 2.48 2.48z" fill="#000"/><path d="m1076.95 382.32c.33 0 .59-.264.59-.59s-.26-.59-.59-.59-.59.264-.59.59.26.59.59.59z" fill="#fff"/><path d="m1085.32 393.87c.1-.788.5-1.507 1.11-2.011.62-.504 1.4-.754 2.19-.699.36 0 .59.36.59.83s-.35.59-.82.59c-.2-.016-.4.008-.59.071-.2.062-.37.161-.53.292-.15.131-.28.291-.37.471-.09.179-.14.375-.16.576s.01.403.07.595c.06.191.16.369.29.522s.29.279.47.371c.18.091.38.146.58.162l3.3.24c.36 0 .59.35.59.82s-.35.59-.82.59l-3.31-.23c-.39-.021-.76-.122-1.11-.298-.34-.175-.65-.421-.89-.722-.25-.301-.42-.649-.53-1.023-.1-.374-.12-.764-.06-1.147z" fill="#000" opacity=".15"/><path d="m1068.58 379.72v2.83c-.04 1.327.18 2.649.66 3.888s1.2 2.368 2.13 3.322c.92.954 2.03 1.712 3.25 2.23s2.54.785 3.86.785c1.33 0 2.65-.267 3.87-.785s2.33-1.276 3.25-2.23c.93-.954 1.65-2.083 2.13-3.322s.7-2.561.66-3.888v-2.83c-.03-.817-.32-1.604-.83-2.24h3.89c-.28.301-.49.654-.63 1.038-.14.385-.21.793-.19 1.202v2.83c-.04 1.327.18 2.649.66 3.888s1.2 2.368 2.13 3.322c.92.954 2.03 1.712 3.25 2.23s2.54.785 3.86.785c1.33 0 2.65-.267 3.87-.785s2.33-1.276 3.25-2.23c.93-.954 1.65-2.083 2.13-3.322s.7-2.561.66-3.888v-2.83c-.01-.968-.39-1.895-1.08-2.579-.68-.683-1.61-1.068-2.58-1.071h-34.67c-.48-.035-.97.037-1.42.209-.45.173-.86.443-1.2.791-.33.348-.59.766-.75 1.224s-.21.944-.16 1.426zm25.7-2.35h12.38c.59.02 1.15.262 1.56.678.42.416.66.974.68 1.562v2.83c0 2.254-.9 4.416-2.49 6.01s-3.76 2.49-6.01 2.49-4.42-.896-6.01-2.49-2.49-3.756-2.49-6.01v-2.83c.1-.579.39-1.109.82-1.512s.98-.658 1.56-.728zm-24.64 2.35c.02-.588.26-1.146.68-1.562.41-.416.97-.658 1.56-.678h12.5c.59.02 1.15.262 1.56.678.42.416.66.974.68 1.562v2.83c0 2.254-.9 4.416-2.49 6.01s-3.76 2.49-6.01 2.49-4.42-.896-6.01-2.49-2.49-3.756-2.49-6.01z" fill="#ffb7a1"/><path d="m1069 367.89c-12.92-1-27.28-22.27-8.3-35.36 0 0 10.54-4.46 10.54 6.7 8.77-16 13.67 3.44 13.67 3.44s9.66-19.63 27.66-5.24c8.18-9.81 12.76 1 10.79 4.75 10.15-6.71 20.13 9.74 12.12 24.13-1.3 2.33-1.89 6.41-3.92 5.9-6.12-1.52-8.48 1.82-8.61 7.23-.1 3.77-4.46 3.4-4.42-.26 0-3.85.32-14.09-2.2-14.09-3.11 0-4.91 6.05-8.18 2.12s4.59-8.64 0-11.75c-4.37-2.97-26.64 13.38-39.15 12.43z" fill="#70dab9"/><path d="m1069 367.89c-12.92-1-27.28-22.27-8.3-35.36 0 0 10.54-4.46 10.54 6.7 8.77-16 13.67 3.44 13.67 3.44s9.66-19.63 27.66-5.24c8.18-9.81 12.76 1 10.79 4.75 10.15-6.71 20.13 9.74 12.12 24.13-1.3 2.33-1.89 6.41-3.92 5.9-6.12-1.52-8.48 1.82-8.61 7.23-.1 3.77-4.46 3.4-4.42-.26 0-3.85.32-14.09-2.2-14.09-3.11 0-4.91 6.05-8.18 2.12s4.59-8.64 0-11.75c-4.37-2.97-26.64 13.38-39.15 12.43z" fill="#000" opacity=".3"/><path d="m1116.57 407.62-4.68-15.53 13-17.2 3.6 14zm-3.4-15.33 3.72 12.35 10.31-15.87-2.84-11.08z" fill="#797979"/><path d="m1113.38 389.85s-18.92 6.72-39.93 3.49c0 0 1.72 20.1 15.58 26.37 0 0 17.59 5.21 28.72-13.57 0 0-4.12-8.51-4.37-16.29z" fill="#797979"/><path d="m1116.33 402.79c-1.65-4.13-2.65-8.493-2.95-12.93 0 0-18.92 6.72-39.93 3.49 0 0 .88 10.32 6.48 18.48.07 0 19.87 9.09 36.4-9.04z" fill="#fff" opacity=".2"/><path d="m1073.46 393.34 1.55 7.72s18.73 6.95 39.4-4.36c-.51-1.994-.84-4.028-1-6.08l-.13-.74c-1.28.45-19.58 6.57-39.82 3.46z" fill="#fff" opacity=".2"/><path d="m1121.28 384.44c-1.06 4.72-2.24 8.26 3.9 7.78 11.67-.82 13-16.5 6.13-19.57-6-2.71-8 3.07-8 3.07z" fill="#fc9d9d"/><path d="m1132 378c-.24.35-.59.35-1.07.23-.3-.27-.66-.464-1.05-.566-.39-.103-.8-.111-1.19-.024-.59 0-1.06.59-1.65 1.42-.65 1.069-1.02 2.288-1.06 3.54l-.23 1.41c0 .36-.36.59-.83.59s-.59-.35-.59-.82l.24-1.42c.06-1.523.47-3.013 1.18-4.36.3-.496.69-.928 1.15-1.272.47-.343 1-.59 1.56-.728 1.17-.151 2.34.145 3.3.83.24.06.37.41.24 1.17z" fill="#000" opacity=".15"/><path d="m1027.82 484 3.18-12.23c.31-2.44 4.6-2.23 4.73.33l12.27 166.9h-12z" fill="#000" opacity=".2"/></svg>